<svg width="140" height="165" viewBox="0 0 140 165" fill="none" xmlns="http://www.w3.org/2000/svg">
<path d="M79.3254 94.1717C79.3367 77.3983 52.5816 73.2861 53.2279 103.499C53.5832 120.092 41.073 139.341 33.9978 149.753" stroke="#B61E23" stroke-width="6.13791" stroke-linecap="round"/>
<path d="M69.7218 160.661C106.019 160.661 135.444 130.852 135.444 94.081C135.444 57.31 106.019 27.5012 69.7218 27.5012C33.4247 27.5012 4 57.31 4 94.081C4 130.852 33.4247 160.661 69.7218 160.661Z" stroke="#B61E23" stroke-width="7.28688" stroke-linecap="round" stroke-linejoin="round"/>
<path d="M45.0566 155.645C56.1684 141.068 67.2272 119.687 66.9626 93.8769M57.6235 159.652C67.4313 145.308 74.0719 134.027 78.3881 105.847" stroke="#B61E23" stroke-width="6.13791" stroke-linecap="round"/>
<path d="M71.7287 160.392C83.1806 144.757 91.4085 117.298 91.3745 93.7446C91.3443 71.0638 74.4197 68.2896 66.5961 68.951C29.5192 72.0691 52.7631 112.635 24.6814 140.913" stroke="#B61E23" stroke-width="6.13791" stroke-linecap="round"/>
<path d="M89.0389 156.564C104.663 122.794 105.499 109.683 105.453 92.2441C105.37 61.29 77.9838 54.4491 67.303 55.3486C16.7067 59.6043 39.6181 112.842 14.7905 126.207" stroke="#B61E23" stroke-width="6.13791" stroke-linecap="round"/>
<path d="M105.313 149.488C159.946 40.0227 35.4455 4.69571 18.4566 86.9831C17.0506 93.7899 17.6629 106.587 9.83936 109.962" stroke="#B61E23" stroke-width="6.13791" stroke-linecap="round" stroke-linejoin="round"/>
<path fill-rule="evenodd" clip-rule="evenodd" d="M58.5458 2.5036C63.5348 -4.30707 67.6015 2.82108 84.7491 23.3589C96.681 15.7923 114.694 28.7787 130.7 21.3217C118.757 42.9481 104.149 43.7607 88.5966 37.1692C104.486 44.9701 103.17 54.2639 106.028 63.1987C98.3667 49.1805 88.4001 66.6758 78.4109 47.1282C78.6376 50.9304 79.0874 57.159 51.7011 66.3659C56.5276 56.0516 56.9244 47.4343 69.1322 39.2064C55.1291 46.7503 41.0203 42.298 26.8018 25.8496C42.6039 31.2165 50.1289 17.6367 70.0393 23.8124C60.1597 9.1593 57.1436 5.20216 58.5458 2.5036Z" fill="#008937"/>
</svg>
