<?xml version="1.0" encoding="UTF-8" standalone="no"?>
<!-- Created using Krita: https://krita.org -->

<svg
   width="1474.56pt"
   height="1474.56pt"
   viewBox="0 0 1474.56 1474.56"
   version="1.1"
   id="svg5"
   sodipodi:docname="github-jn.svg"
   inkscape:version="1.1.2 (b8e25be833, 2022-02-05)"
   xmlns:inkscape="http://www.inkscape.org/namespaces/inkscape"
   xmlns:sodipodi="http://sodipodi.sourceforge.net/DTD/sodipodi-0.dtd"
   xmlns="http://www.w3.org/2000/svg"
   xmlns:svg="http://www.w3.org/2000/svg">
  <sodipodi:namedview
     id="namedview7"
     pagecolor="#ffffff"
     bordercolor="#666666"
     borderopacity="1.0"
     inkscape:pageshadow="2"
     inkscape:pageopacity="0.0"
     inkscape:pagecheckerboard="0"
     inkscape:document-units="pt"
     showgrid="false"
     inkscape:zoom="0.42419432"
     inkscape:cx="981.86133"
     inkscape:cy="984.21874"
     inkscape:window-width="1920"
     inkscape:window-height="1001"
     inkscape:window-x="-9"
     inkscape:window-y="-9"
     inkscape:window-maximized="1"
     inkscape:current-layer="svg5" />
  <defs
     id="defs2" />
  <path
     id="path1395"
     transform="matrix(0.72 0 0 0.72 5.41063573741303 23.4747169811327)"
     fill="#59c2d9"
     fill-rule="evenodd"
     stroke-opacity="0"
     stroke="#000000"
     stroke-width="0"
     stroke-linecap="square"
     stroke-linejoin="bevel"
     d="M1016.39 0C455.093 0 0 455.093 0 1016.52C0 1465.62 291.227 1846.58 695.15 1981.05C746.007 1990.35 764.54 1958.96 764.54 1932.01C764.54 1907.92 763.665 1843.96 763.169 1759.15C480.429 1820.56 420.773 1622.87 420.773 1622.87C374.534 1505.49 307.889 1474.23 307.889 1474.23C215.598 1411.14 314.878 1412.39 314.878 1412.39C416.904 1419.63 470.57 1517.16 470.57 1517.16C561.238 1672.48 708.506 1627.61 766.414 1601.65C775.649 1535.95 801.858 1491.14 830.937 1465.74C605.231 1440.1 367.919 1352.86 367.919 963.351C367.919 852.401 407.544 761.67 472.566 690.595C462.083 664.886 427.201 561.549 482.488 421.583C482.488 421.583 567.853 394.251 762.046 525.793C843.105 503.266 930.092 491.972 1016.52 491.597C1102.82 491.972 1189.81 503.266 1270.99 525.793C1465.06 394.251 1550.24 421.583 1550.24 421.583C1605.71 561.549 1570.83 664.886 1560.35 690.595C1625.49 761.67 1664.87 852.401 1664.87 963.351C1664.87 1353.86 1427.18 1439.78 1200.73 1464.93C1237.23 1496.32 1269.74 1558.35 1269.74 1653.2C1269.74 1789.04 1268.49 1898.68 1268.49 1932.01C1268.49 1959.21 1286.78 1990.85 1338.38 1980.93C1741.99 1846.2 2032.97 1465.49 2032.97 1016.52C2032.97 455.093 1577.82 0 1016.39 0"
     sodipodi:nodetypes="cccccccccccccccccccccccccc"
     style="fill:#1091a7;fill-opacity:1" />
</svg>
