<svg width="500" height="500" viewBox="0 0 500 500" fill="none" xmlns="http://www.w3.org/2000/svg">
<path d="M231.854 356.898C276.037 356.898 311.854 321.081 311.854 276.898C311.854 232.715 276.037 196.898 231.854 196.898C187.671 196.898 151.854 232.715 151.854 276.898C151.854 321.081 187.671 356.898 231.854 356.898Z" fill="#65C8D9" fill-opacity="0.2"/>
<path d="M291.246 460.231C335.429 460.231 371.246 424.414 371.246 380.231C371.246 336.049 335.429 300.231 291.246 300.231C247.064 300.231 211.246 336.049 211.246 380.231C211.246 424.414 247.064 460.231 291.246 460.231Z" fill="#65C8D9" fill-opacity="0.2"/>
<path d="M172.061 460C216.244 460 252.061 424.183 252.061 380C252.061 335.817 216.244 300 172.061 300C127.878 300 92.061 335.817 92.061 380C92.061 424.183 127.878 460 172.061 460Z" fill="#65C8D9" fill-opacity="0.2"/>
<path d="M348.176 141.587C348.176 119.922 330.613 102.36 308.949 102.36C287.284 102.36 269.722 119.922 269.722 141.587C269.722 163.251 287.284 180.814 308.949 180.814C330.613 180.814 348.176 163.251 348.176 141.587Z" fill="#0F91A7"/>
<path d="M492.392 87.5308C492.392 48.4524 460.713 16.773 421.635 16.773C382.556 16.773 350.877 48.4524 350.877 87.5308C350.877 126.609 382.556 158.289 421.635 158.289C460.713 158.289 492.392 126.609 492.392 87.5308Z" fill="#0F91A7"/>
<path d="M120.323 119.559C120.323 88.433 95.091 63.2007 63.9654 63.2007C32.8397 63.2007 7.60742 88.433 7.60742 119.559C7.60742 150.684 32.8397 175.917 63.9654 175.917C95.091 175.917 120.323 150.684 120.323 119.559Z" fill="#0F91A7"/>
<path d="M256.395 71.5975C256.395 36.9068 228.272 8.78444 193.582 8.78444C158.891 8.78444 130.769 36.9068 130.769 71.5975C130.769 106.288 158.891 134.411 193.582 134.411C228.272 134.411 256.395 106.288 256.395 71.5975Z" fill="#0F91A7"/>
<path d="M147.753 62.6809V77.8475H144.639V62.6809H147.753ZM153.431 68.983V77.8475H150.431V66.5767H153.243L153.431 68.983ZM152.993 71.8163H152.181C152.181 70.983 152.288 70.233 152.503 69.5663C152.719 68.8927 153.021 68.3198 153.41 67.8475C153.799 67.3684 154.26 67.0038 154.795 66.7538C155.337 66.4969 155.941 66.3684 156.608 66.3684C157.135 66.3684 157.618 66.4448 158.056 66.5976C158.493 66.7503 158.868 66.9934 159.181 67.3267C159.5 67.6601 159.743 68.101 159.91 68.6496C160.083 69.1982 160.17 69.8684 160.17 70.66V77.8475H157.149V70.6496C157.149 70.1496 157.08 69.7607 156.941 69.483C156.802 69.2052 156.597 69.0107 156.326 68.8996C156.063 68.7816 155.736 68.7225 155.347 68.7225C154.944 68.7225 154.594 68.8024 154.295 68.9621C154.003 69.1219 153.76 69.3441 153.566 69.6288C153.378 69.9066 153.236 70.233 153.139 70.608C153.042 70.983 152.993 71.3857 152.993 71.8163ZM165.389 68.983V77.8475H162.389V66.5767H165.201L165.389 68.983ZM164.951 71.8163H164.139C164.139 70.983 164.247 70.233 164.462 69.5663C164.677 68.8927 164.979 68.3198 165.368 67.8475C165.757 67.3684 166.219 67.0038 166.753 66.7538C167.295 66.4969 167.899 66.3684 168.566 66.3684C169.094 66.3684 169.576 66.4448 170.014 66.5976C170.451 66.7503 170.826 66.9934 171.139 67.3267C171.458 67.6601 171.701 68.101 171.868 68.6496C172.042 69.1982 172.128 69.8684 172.128 70.66V77.8475H169.108V70.6496C169.108 70.1496 169.038 69.7607 168.899 69.483C168.76 69.2052 168.556 69.0107 168.285 68.8996C168.021 68.7816 167.694 68.7225 167.306 68.7225C166.903 68.7225 166.552 68.8024 166.253 68.9621C165.962 69.1219 165.719 69.3441 165.524 69.6288C165.337 69.9066 165.194 70.233 165.097 70.608C165 70.983 164.951 71.3857 164.951 71.8163ZM173.931 72.3267V72.108C173.931 71.2816 174.049 70.5212 174.285 69.8267C174.521 69.1253 174.865 68.5177 175.316 68.0038C175.767 67.4899 176.323 67.0906 176.983 66.8059C177.642 66.5142 178.399 66.3684 179.253 66.3684C180.108 66.3684 180.868 66.5142 181.535 66.8059C182.201 67.0906 182.76 67.4899 183.212 68.0038C183.67 68.5177 184.017 69.1253 184.253 69.8267C184.49 70.5212 184.608 71.2816 184.608 72.108V72.3267C184.608 73.1462 184.49 73.9066 184.253 74.608C184.017 75.3024 183.67 75.91 183.212 76.4309C182.76 76.9448 182.205 77.3441 181.545 77.6288C180.885 77.9135 180.128 78.0559 179.274 78.0559C178.42 78.0559 177.66 77.9135 176.993 77.6288C176.333 77.3441 175.774 76.9448 175.316 76.4309C174.865 75.91 174.521 75.3024 174.285 74.608C174.049 73.9066 173.931 73.1462 173.931 72.3267ZM176.931 72.108V72.3267C176.931 72.7989 176.972 73.2399 177.056 73.6496C177.139 74.0593 177.271 74.4205 177.451 74.733C177.639 75.0385 177.882 75.2781 178.181 75.4517C178.479 75.6253 178.844 75.7121 179.274 75.7121C179.691 75.7121 180.049 75.6253 180.347 75.4517C180.646 75.2781 180.885 75.0385 181.066 74.733C181.246 74.4205 181.378 74.0593 181.462 73.6496C181.552 73.2399 181.597 72.7989 181.597 72.3267V72.108C181.597 71.6496 181.552 71.2191 181.462 70.8163C181.378 70.4066 181.243 70.0455 181.056 69.733C180.875 69.4135 180.635 69.1635 180.337 68.983C180.038 68.8024 179.677 68.7121 179.253 68.7121C178.83 68.7121 178.469 68.8024 178.17 68.983C177.878 69.1635 177.639 69.4135 177.451 69.733C177.271 70.0455 177.139 70.4066 177.056 70.8163C176.972 71.2191 176.931 71.6496 176.931 72.108ZM190.118 75.66L192.618 66.5767H195.753L191.951 77.8475H190.056L190.118 75.66ZM188.399 66.5767L190.91 75.6705L190.962 77.8475H189.056L185.253 66.5767H188.399ZM203.014 75.3059V70.285C203.014 69.9239 202.955 69.6149 202.837 69.358C202.719 69.0941 202.535 68.8892 202.285 68.7434C202.042 68.5975 201.726 68.5246 201.337 68.5246C201.003 68.5246 200.715 68.5837 200.472 68.7017C200.229 68.8128 200.042 68.976 199.91 69.1913C199.778 69.3996 199.712 69.6462 199.712 69.9309H196.712C196.712 69.4517 196.823 68.9969 197.045 68.5663C197.267 68.1357 197.59 67.7573 198.014 67.4309C198.437 67.0976 198.941 66.8371 199.524 66.6496C200.115 66.4621 200.774 66.3684 201.503 66.3684C202.378 66.3684 203.156 66.5142 203.837 66.8059C204.517 67.0976 205.052 67.5351 205.441 68.1184C205.837 68.7017 206.035 69.4309 206.035 70.3059V75.1288C206.035 75.7468 206.073 76.2538 206.149 76.6496C206.226 77.0385 206.337 77.3788 206.483 77.6705V77.8475H203.451C203.305 77.542 203.194 77.16 203.118 76.7017C203.049 76.2364 203.014 75.7711 203.014 75.3059ZM203.41 70.983L203.43 72.6809H201.753C201.358 72.6809 201.014 72.726 200.722 72.8163C200.43 72.9066 200.191 73.035 200.003 73.2017C199.816 73.3614 199.677 73.5489 199.587 73.7642C199.503 73.9795 199.462 74.2156 199.462 74.4725C199.462 74.7295 199.521 74.9621 199.639 75.1705C199.757 75.3718 199.927 75.5316 200.149 75.6496C200.371 75.7607 200.632 75.8163 200.93 75.8163C201.382 75.8163 201.774 75.726 202.108 75.5455C202.441 75.3649 202.698 75.1427 202.878 74.8788C203.066 74.6149 203.163 74.3649 203.17 74.1288L203.962 75.3996C203.851 75.6843 203.698 75.9795 203.503 76.285C203.316 76.5906 203.076 76.8788 202.785 77.1496C202.493 77.4135 202.142 77.6323 201.733 77.8059C201.323 77.9725 200.837 78.0559 200.274 78.0559C199.559 78.0559 198.91 77.9135 198.326 77.6288C197.75 77.3371 197.292 76.9378 196.951 76.4309C196.618 75.917 196.451 75.3336 196.451 74.6809C196.451 74.0906 196.562 73.5663 196.785 73.108C197.007 72.6496 197.333 72.2642 197.764 71.9517C198.201 71.6323 198.746 71.3927 199.399 71.233C200.052 71.0663 200.809 70.983 201.67 70.983H203.41ZM213.868 66.5767V68.7017H207.305V66.5767H213.868ZM208.93 63.7955H211.93V74.4517C211.93 74.7781 211.972 75.0281 212.055 75.2017C212.146 75.3753 212.278 75.4968 212.451 75.5663C212.625 75.6288 212.844 75.66 213.108 75.66C213.295 75.66 213.462 75.6531 213.608 75.6392C213.76 75.6184 213.889 75.5975 213.993 75.5767L214.003 77.785C213.746 77.8684 213.469 77.9343 213.17 77.983C212.871 78.0316 212.542 78.0559 212.18 78.0559C211.521 78.0559 210.944 77.9482 210.451 77.733C209.965 77.5107 209.59 77.1566 209.326 76.6705C209.062 76.1843 208.93 75.5455 208.93 74.7538V63.7955ZM218.743 66.5767V77.8475H215.733V66.5767H218.743ZM215.545 63.6392C215.545 63.2017 215.698 62.8406 216.003 62.5559C216.309 62.2712 216.719 62.1288 217.233 62.1288C217.739 62.1288 218.146 62.2712 218.451 62.5559C218.764 62.8406 218.92 63.2017 218.92 63.6392C218.92 64.0767 218.764 64.4378 218.451 64.7226C218.146 65.0073 217.739 65.1496 217.233 65.1496C216.719 65.1496 216.309 65.0073 216.003 64.7226C215.698 64.4378 215.545 64.0767 215.545 63.6392ZM220.743 72.3267V72.108C220.743 71.2816 220.861 70.5212 221.097 69.8267C221.333 69.1253 221.677 68.5177 222.128 68.0038C222.58 67.4899 223.135 67.0906 223.795 66.8059C224.455 66.5142 225.212 66.3684 226.066 66.3684C226.92 66.3684 227.68 66.5142 228.347 66.8059C229.014 67.0906 229.573 67.4899 230.024 68.0038C230.483 68.5177 230.83 69.1253 231.066 69.8267C231.302 70.5212 231.42 71.2816 231.42 72.108V72.3267C231.42 73.1462 231.302 73.9066 231.066 74.608C230.83 75.3024 230.483 75.91 230.024 76.4309C229.573 76.9448 229.017 77.3441 228.358 77.6288C227.698 77.9135 226.941 78.0559 226.087 78.0559C225.233 78.0559 224.472 77.9135 223.805 77.6288C223.146 77.3441 222.587 76.9448 222.128 76.4309C221.677 75.91 221.333 75.3024 221.097 74.608C220.861 73.9066 220.743 73.1462 220.743 72.3267ZM223.743 72.108V72.3267C223.743 72.7989 223.785 73.2399 223.868 73.6496C223.951 74.0593 224.083 74.4205 224.264 74.733C224.451 75.0385 224.694 75.2781 224.993 75.4517C225.292 75.6253 225.656 75.7121 226.087 75.7121C226.503 75.7121 226.861 75.6253 227.16 75.4517C227.458 75.2781 227.698 75.0385 227.878 74.733C228.059 74.4205 228.191 74.0593 228.274 73.6496C228.364 73.2399 228.41 72.7989 228.41 72.3267V72.108C228.41 71.6496 228.364 71.2191 228.274 70.8163C228.191 70.4066 228.055 70.0455 227.868 69.733C227.687 69.4135 227.448 69.1635 227.149 68.983C226.851 68.8024 226.489 68.7121 226.066 68.7121C225.642 68.7121 225.281 68.8024 224.983 68.983C224.691 69.1635 224.451 69.4135 224.264 69.733C224.083 70.0455 223.951 70.4066 223.868 70.8163C223.785 71.2191 223.743 71.6496 223.743 72.108ZM236.201 68.983V77.8475H233.201V66.5767H236.014L236.201 68.983ZM235.764 71.8163H234.951C234.951 70.983 235.059 70.233 235.274 69.5663C235.489 68.8927 235.792 68.3198 236.18 67.8475C236.569 67.3684 237.031 67.0038 237.566 66.7538C238.108 66.4969 238.712 66.3684 239.378 66.3684C239.906 66.3684 240.389 66.4448 240.826 66.5976C241.264 66.7503 241.639 66.9934 241.951 67.3267C242.271 67.6601 242.514 68.101 242.68 68.6496C242.854 69.1982 242.941 69.8684 242.941 70.66V77.8475H239.92V70.6496C239.92 70.1496 239.851 69.7607 239.712 69.483C239.573 69.2052 239.368 69.0107 239.097 68.8996C238.833 68.7816 238.507 68.7225 238.118 68.7225C237.715 68.7225 237.364 68.8024 237.066 68.9621C236.774 69.1219 236.531 69.3441 236.337 69.6288C236.149 69.9066 236.007 70.233 235.91 70.608C235.812 70.983 235.764 71.3857 235.764 71.8163Z" fill="white"/>
<path d="M35.8716 115.809V116.527C35.8716 117.68 35.7154 118.715 35.4029 119.632C35.0904 120.548 34.6494 121.329 34.08 121.975C33.5105 122.614 32.83 123.104 32.0383 123.444C31.2536 123.784 30.3821 123.954 29.4237 123.954C28.4723 123.954 27.6008 123.784 26.8091 123.444C26.0244 123.104 25.3439 122.614 24.7675 121.975C24.1911 121.329 23.7432 120.548 23.4237 119.632C23.1112 118.715 22.955 117.68 22.955 116.527V115.809C22.955 114.649 23.1112 113.614 23.4237 112.704C23.7362 111.788 24.1772 111.007 24.7466 110.361C25.323 109.715 26.0036 109.222 26.7883 108.882C27.58 108.541 28.4515 108.371 29.4029 108.371C30.3612 108.371 31.2327 108.541 32.0175 108.882C32.8091 109.222 33.4897 109.715 34.0591 110.361C34.6355 111.007 35.08 111.788 35.3925 112.704C35.7119 113.614 35.8716 114.649 35.8716 115.809ZM32.7154 116.527V115.788C32.7154 114.982 32.6425 114.274 32.4966 113.663C32.3508 113.052 32.1355 112.538 31.8508 112.121C31.5661 111.704 31.2189 111.392 30.8091 111.184C30.3994 110.968 29.9307 110.861 29.4029 110.861C28.8751 110.861 28.4064 110.968 27.9966 111.184C27.5939 111.392 27.2501 111.704 26.9654 112.121C26.6876 112.538 26.4758 113.052 26.33 113.663C26.1841 114.274 26.1112 114.982 26.1112 115.788V116.527C26.1112 117.326 26.1841 118.034 26.33 118.652C26.4758 119.263 26.6911 119.781 26.9758 120.204C27.2605 120.621 27.6077 120.937 28.0175 121.152C28.4272 121.368 28.8959 121.475 29.4237 121.475C29.9515 121.475 30.4202 121.368 30.83 121.152C31.2397 120.937 31.5834 120.621 31.8612 120.204C32.139 119.781 32.3508 119.263 32.4966 118.652C32.6425 118.034 32.7154 117.326 32.7154 116.527ZM40.9341 114.642V128.079H37.9341V112.475H40.7154L40.9341 114.642ZM48.0695 117.986V118.204C48.0695 119.024 47.9723 119.784 47.7779 120.486C47.5904 121.187 47.3126 121.798 46.9445 122.319C46.5765 122.833 46.1181 123.236 45.5695 123.527C45.0279 123.812 44.4029 123.954 43.6945 123.954C43.007 123.954 42.4098 123.816 41.9029 123.538C41.3959 123.26 40.9688 122.871 40.6216 122.371C40.2813 121.864 40.007 121.277 39.7987 120.611C39.5904 119.944 39.4306 119.229 39.3195 118.465V117.892C39.4306 117.072 39.5904 116.322 39.7987 115.642C40.007 114.954 40.2813 114.361 40.6216 113.861C40.9688 113.354 41.3924 112.961 41.8924 112.684C42.3994 112.406 42.9931 112.267 43.6737 112.267C44.389 112.267 45.0174 112.402 45.5591 112.673C46.1077 112.944 46.5661 113.333 46.9341 113.84C47.3091 114.347 47.5904 114.951 47.7779 115.652C47.9723 116.354 48.0695 117.132 48.0695 117.986ZM45.0591 118.204V117.986C45.0591 117.507 45.0174 117.066 44.9341 116.663C44.8577 116.253 44.7327 115.895 44.5591 115.59C44.3924 115.284 44.1702 115.048 43.8924 114.882C43.6216 114.708 43.2918 114.621 42.9029 114.621C42.4931 114.621 42.1424 114.687 41.8508 114.819C41.5661 114.951 41.3334 115.142 41.1529 115.392C40.9723 115.642 40.8369 115.941 40.7466 116.288C40.6563 116.635 40.6008 117.027 40.58 117.465V118.913C40.6147 119.427 40.7119 119.888 40.8716 120.298C41.0313 120.701 41.2779 121.02 41.6112 121.257C41.9445 121.493 42.382 121.611 42.9237 121.611C43.3195 121.611 43.6529 121.524 43.9237 121.35C44.1945 121.17 44.4133 120.923 44.5799 120.611C44.7536 120.298 44.8751 119.937 44.9445 119.527C45.0209 119.118 45.0591 118.677 45.0591 118.204ZM55.1216 123.954C54.2466 123.954 53.4619 123.816 52.7674 123.538C52.073 123.253 51.4827 122.861 50.9966 122.361C50.5174 121.861 50.1494 121.281 49.8924 120.621C49.6355 119.954 49.507 119.246 49.507 118.496V118.079C49.507 117.225 49.6285 116.444 49.8716 115.736C50.1147 115.027 50.4619 114.413 50.9133 113.892C51.3716 113.371 51.9272 112.972 52.5799 112.694C53.2327 112.409 53.9688 112.267 54.7883 112.267C55.5869 112.267 56.2952 112.399 56.9133 112.663C57.5313 112.927 58.0487 113.302 58.4653 113.788C58.8889 114.274 59.2084 114.857 59.4237 115.538C59.6389 116.211 59.7466 116.961 59.7466 117.788V119.038H50.7883V117.038H56.7987V116.809C56.7987 116.392 56.7223 116.02 56.5695 115.694C56.4237 115.361 56.2015 115.097 55.9028 114.902C55.6042 114.708 55.2223 114.611 54.757 114.611C54.3612 114.611 54.0209 114.697 53.7362 114.871C53.4515 115.045 53.2188 115.288 53.0383 115.6C52.8647 115.913 52.7327 116.281 52.6424 116.704C52.5591 117.121 52.5174 117.579 52.5174 118.079V118.496C52.5174 118.947 52.5799 119.364 52.7049 119.746C52.8369 120.128 53.0209 120.458 53.257 120.736C53.5001 121.013 53.7917 121.229 54.132 121.382C54.4792 121.534 54.8716 121.611 55.3091 121.611C55.8508 121.611 56.3542 121.507 56.8195 121.298C57.2917 121.083 57.698 120.76 58.0383 120.329L59.4966 121.913C59.2605 122.253 58.9376 122.579 58.5278 122.892C58.1251 123.204 57.639 123.461 57.0695 123.663C56.5001 123.857 55.8508 123.954 55.1216 123.954ZM64.3924 114.882V123.746H61.3924V112.475H64.2049L64.3924 114.882ZM63.9549 117.715H63.1424C63.1424 116.882 63.2501 116.132 63.4653 115.465C63.6806 114.791 63.9827 114.218 64.3716 113.746C64.7605 113.267 65.2223 112.902 65.757 112.652C66.2987 112.395 66.9028 112.267 67.5695 112.267C68.0973 112.267 68.5799 112.343 69.0174 112.496C69.4549 112.649 69.8299 112.892 70.1424 113.225C70.4618 113.559 70.7049 114 70.8716 114.548C71.0452 115.097 71.132 115.767 71.132 116.559V123.746H68.1112V116.548C68.1112 116.048 68.0417 115.659 67.9028 115.382C67.7639 115.104 67.5591 114.909 67.2882 114.798C67.0244 114.68 66.698 114.621 66.3091 114.621C65.9063 114.621 65.5556 114.701 65.257 114.861C64.9653 115.02 64.7223 115.243 64.5278 115.527C64.3403 115.805 64.198 116.132 64.1007 116.507C64.0035 116.882 63.9549 117.284 63.9549 117.715ZM78.6007 123.954C77.7257 123.954 76.941 123.816 76.2466 123.538C75.5521 123.253 74.9618 122.861 74.4757 122.361C73.9966 121.861 73.6285 121.281 73.3716 120.621C73.1146 119.954 72.9861 119.246 72.9861 118.496V118.079C72.9861 117.225 73.1077 116.444 73.3507 115.736C73.5938 115.027 73.941 114.413 74.3924 113.892C74.8507 113.371 75.4063 112.972 76.0591 112.694C76.7118 112.409 77.4479 112.267 78.2674 112.267C79.066 112.267 79.7743 112.399 80.3924 112.663C81.0104 112.927 81.5278 113.302 81.9445 113.788C82.3681 114.274 82.6875 114.857 82.9028 115.538C83.1181 116.211 83.2257 116.961 83.2257 117.788V119.038H74.2674V117.038H80.2778V116.809C80.2778 116.392 80.2014 116.02 80.0486 115.694C79.9028 115.361 79.6806 115.097 79.382 114.902C79.0834 114.708 78.7014 114.611 78.2361 114.611C77.8403 114.611 77.5 114.697 77.2153 114.871C76.9306 115.045 76.6979 115.288 76.5174 115.6C76.3438 115.913 76.2118 116.281 76.1216 116.704C76.0382 117.121 75.9966 117.579 75.9966 118.079V118.496C75.9966 118.947 76.0591 119.364 76.1841 119.746C76.316 120.128 76.5 120.458 76.7361 120.736C76.9792 121.013 77.2709 121.229 77.6111 121.382C77.9584 121.534 78.3507 121.611 78.7882 121.611C79.3299 121.611 79.8334 121.507 80.2986 121.298C80.7709 121.083 81.1771 120.76 81.5174 120.329L82.9757 121.913C82.7396 122.253 82.4167 122.579 82.007 122.892C81.6042 123.204 81.1181 123.461 80.5486 123.663C79.9792 123.857 79.3299 123.954 78.6007 123.954ZM91.0278 120.632C91.0278 120.416 90.9653 120.222 90.8403 120.048C90.7153 119.875 90.4827 119.715 90.1424 119.569C89.809 119.416 89.3264 119.277 88.6945 119.152C88.125 119.027 87.5938 118.871 87.1007 118.684C86.6146 118.489 86.191 118.257 85.8299 117.986C85.4757 117.715 85.1979 117.395 84.9965 117.027C84.7952 116.652 84.6945 116.225 84.6945 115.746C84.6945 115.274 84.7952 114.829 84.9965 114.413C85.2049 113.996 85.5 113.628 85.882 113.309C86.2709 112.982 86.7431 112.729 87.2986 112.548C87.8611 112.361 88.4931 112.267 89.1945 112.267C90.1736 112.267 91.0139 112.423 91.7153 112.736C92.4236 113.048 92.9653 113.479 93.3403 114.027C93.7222 114.569 93.9132 115.187 93.9132 115.882H90.9132C90.9132 115.59 90.8507 115.329 90.7257 115.1C90.6077 114.864 90.4202 114.68 90.1632 114.548C89.9132 114.409 89.5868 114.34 89.184 114.34C88.8507 114.34 88.5625 114.399 88.3195 114.517C88.0764 114.628 87.8889 114.781 87.757 114.975C87.632 115.163 87.5695 115.371 87.5695 115.6C87.5695 115.774 87.6042 115.93 87.6736 116.069C87.75 116.201 87.8715 116.322 88.0382 116.434C88.2049 116.545 88.4202 116.649 88.684 116.746C88.9549 116.836 89.2882 116.92 89.684 116.996C90.4965 117.163 91.2222 117.382 91.8611 117.652C92.5 117.916 93.007 118.277 93.382 118.736C93.757 119.187 93.9445 119.781 93.9445 120.517C93.9445 121.017 93.8333 121.475 93.6111 121.892C93.3889 122.309 93.0695 122.673 92.6528 122.986C92.2361 123.291 91.7361 123.531 91.1528 123.704C90.5764 123.871 89.9271 123.954 89.2049 123.954C88.1563 123.954 87.2674 123.767 86.5382 123.392C85.816 123.017 85.2674 122.541 84.8924 121.965C84.5243 121.382 84.3403 120.784 84.3403 120.173H87.184C87.1979 120.583 87.3021 120.913 87.4965 121.163C87.6979 121.413 87.9514 121.593 88.257 121.704C88.5695 121.816 88.9063 121.871 89.2674 121.871C89.6563 121.871 89.9792 121.819 90.2361 121.715C90.4931 121.604 90.6875 121.458 90.8195 121.277C90.9583 121.09 91.0278 120.875 91.0278 120.632ZM101.986 120.632C101.986 120.416 101.924 120.222 101.799 120.048C101.674 119.875 101.441 119.715 101.101 119.569C100.767 119.416 100.285 119.277 99.6528 119.152C99.0833 119.027 98.5521 118.871 98.059 118.684C97.5729 118.489 97.1493 118.257 96.7882 117.986C96.434 117.715 96.1562 117.395 95.9549 117.027C95.7535 116.652 95.6528 116.225 95.6528 115.746C95.6528 115.274 95.7535 114.829 95.9549 114.413C96.1632 113.996 96.4583 113.628 96.8403 113.309C97.2292 112.982 97.7014 112.729 98.2569 112.548C98.8194 112.361 99.4514 112.267 100.153 112.267C101.132 112.267 101.972 112.423 102.674 112.736C103.382 113.048 103.924 113.479 104.299 114.027C104.681 114.569 104.872 115.187 104.872 115.882H101.872C101.872 115.59 101.809 115.329 101.684 115.1C101.566 114.864 101.378 114.68 101.122 114.548C100.872 114.409 100.545 114.34 100.142 114.34C99.809 114.34 99.5208 114.399 99.2778 114.517C99.0347 114.628 98.8472 114.781 98.7153 114.975C98.5903 115.163 98.5278 115.371 98.5278 115.6C98.5278 115.774 98.5625 115.93 98.6319 116.069C98.7083 116.201 98.8299 116.322 98.9965 116.434C99.1632 116.545 99.3785 116.649 99.6424 116.746C99.9132 116.836 100.247 116.92 100.642 116.996C101.455 117.163 102.181 117.382 102.819 117.652C103.458 117.916 103.965 118.277 104.34 118.736C104.715 119.187 104.903 119.781 104.903 120.517C104.903 121.017 104.792 121.475 104.569 121.892C104.347 122.309 104.028 122.673 103.611 122.986C103.194 123.291 102.694 123.531 102.111 123.704C101.535 123.871 100.885 123.954 100.163 123.954C99.1146 123.954 98.2257 123.767 97.4965 123.392C96.7743 123.017 96.2257 122.541 95.8507 121.965C95.4826 121.382 95.2986 120.784 95.2986 120.173H98.1424C98.1562 120.583 98.2604 120.913 98.4549 121.163C98.6562 121.413 98.9097 121.593 99.2153 121.704C99.5278 121.816 99.8646 121.871 100.226 121.871C100.615 121.871 100.937 121.819 101.194 121.715C101.451 121.604 101.646 121.458 101.778 121.277C101.917 121.09 101.986 120.875 101.986 120.632Z" fill="white"/>
<path d="M290.022 143.227V145.665H281.949V143.227H290.022ZM282.97 130.498V145.665H279.845V130.498H282.97ZM288.97 136.675V139.05H281.949V136.675H288.97ZM290.012 130.498V132.946H281.949V130.498H290.012ZM298.105 149.998V136.696L298.491 134.394H301.126V149.998H298.105ZM290.98 140.144V139.925C290.98 139.064 291.074 138.283 291.262 137.582C291.456 136.873 291.741 136.269 292.116 135.769C292.491 135.262 292.949 134.873 293.491 134.602C294.039 134.325 294.671 134.186 295.386 134.186C296.074 134.186 296.668 134.325 297.168 134.602C297.668 134.88 298.088 135.273 298.428 135.78C298.775 136.286 299.053 136.884 299.261 137.571C299.47 138.259 299.63 139.012 299.741 139.832V140.311C299.636 141.095 299.477 141.825 299.261 142.498C299.053 143.172 298.775 143.762 298.428 144.269C298.088 144.776 297.664 145.172 297.157 145.457C296.657 145.734 296.06 145.873 295.366 145.873C294.664 145.873 294.039 145.731 293.491 145.446C292.949 145.155 292.491 144.752 292.116 144.238C291.741 143.724 291.456 143.12 291.262 142.425C291.074 141.724 290.98 140.964 290.98 140.144ZM293.98 139.925V140.144C293.98 140.609 294.018 141.047 294.095 141.457C294.171 141.859 294.293 142.217 294.459 142.53C294.633 142.842 294.855 143.089 295.126 143.269C295.397 143.443 295.73 143.53 296.126 143.53C296.675 143.53 297.116 143.411 297.449 143.175C297.789 142.932 298.039 142.602 298.199 142.186C298.366 141.769 298.463 141.293 298.491 140.759V139.394C298.47 138.957 298.411 138.564 298.314 138.217C298.223 137.863 298.084 137.561 297.897 137.311C297.716 137.061 297.48 136.87 297.189 136.738C296.904 136.599 296.557 136.53 296.147 136.53C295.758 136.53 295.425 136.616 295.147 136.79C294.869 136.964 294.643 137.207 294.47 137.519C294.303 137.825 294.178 138.182 294.095 138.592C294.018 139.002 293.98 139.446 293.98 139.925ZM310.157 142.967V134.394H313.157V145.665H310.334L310.157 142.967ZM310.491 140.655L311.376 140.634C311.376 141.384 311.289 142.082 311.116 142.727C310.942 143.366 310.682 143.922 310.334 144.394C309.987 144.859 309.55 145.224 309.022 145.488C308.494 145.745 307.873 145.873 307.157 145.873C306.609 145.873 306.102 145.797 305.636 145.644C305.178 145.484 304.782 145.238 304.449 144.905C304.123 144.564 303.866 144.13 303.678 143.602C303.498 143.068 303.407 142.425 303.407 141.675V134.394H306.407V141.696C306.407 142.03 306.446 142.311 306.522 142.54C306.605 142.769 306.72 142.957 306.866 143.102C307.011 143.248 307.182 143.352 307.376 143.415C307.577 143.477 307.8 143.509 308.043 143.509C308.661 143.509 309.147 143.384 309.501 143.134C309.862 142.884 310.116 142.543 310.261 142.113C310.414 141.675 310.491 141.189 310.491 140.655ZM318.616 134.394V145.665H315.605V134.394H318.616ZM315.418 131.457C315.418 131.019 315.57 130.658 315.876 130.373C316.182 130.089 316.591 129.946 317.105 129.946C317.612 129.946 318.018 130.089 318.324 130.373C318.636 130.658 318.793 131.019 318.793 131.457C318.793 131.894 318.636 132.255 318.324 132.54C318.018 132.825 317.612 132.967 317.105 132.967C316.591 132.967 316.182 132.825 315.876 132.54C315.57 132.255 315.418 131.894 315.418 131.457ZM326.616 134.394V136.519H320.053V134.394H326.616ZM321.678 131.613H324.678V142.269C324.678 142.595 324.72 142.845 324.803 143.019C324.893 143.193 325.025 143.314 325.199 143.384C325.373 143.446 325.591 143.477 325.855 143.477C326.043 143.477 326.209 143.47 326.355 143.457C326.508 143.436 326.636 143.415 326.741 143.394L326.751 145.602C326.494 145.686 326.216 145.752 325.918 145.8C325.619 145.849 325.289 145.873 324.928 145.873C324.268 145.873 323.692 145.766 323.199 145.55C322.713 145.328 322.338 144.974 322.074 144.488C321.81 144.002 321.678 143.363 321.678 142.571V131.613ZM331.668 144.394L334.657 134.394H337.876L333.345 147.363C333.248 147.648 333.116 147.953 332.949 148.279C332.789 148.606 332.57 148.915 332.293 149.207C332.022 149.505 331.678 149.748 331.261 149.936C330.852 150.123 330.348 150.217 329.751 150.217C329.466 150.217 329.234 150.2 329.053 150.165C328.873 150.13 328.657 150.082 328.407 150.019V147.821C328.484 147.821 328.564 147.821 328.647 147.821C328.73 147.828 328.81 147.832 328.886 147.832C329.282 147.832 329.605 147.786 329.855 147.696C330.105 147.606 330.307 147.467 330.459 147.279C330.612 147.099 330.734 146.863 330.824 146.571L331.668 144.394ZM330.418 134.394L332.866 142.561L333.293 145.738L331.251 145.957L327.199 134.394H330.418Z" fill="white"/>
<path d="M367.63 89.0621H370.744C370.682 90.083 370.4 90.9892 369.9 91.7809C369.407 92.5726 368.716 93.1906 367.827 93.6351C366.946 94.0795 365.883 94.3017 364.64 94.3017C363.668 94.3017 362.796 94.1351 362.025 93.8017C361.255 93.4614 360.595 92.9753 360.046 92.3434C359.505 91.7114 359.091 90.9476 358.807 90.0517C358.522 89.1559 358.38 88.1524 358.38 87.0413V85.9892C358.38 84.8781 358.525 83.8746 358.817 82.9788C359.116 82.076 359.539 81.3087 360.088 80.6767C360.643 80.0448 361.307 79.5587 362.077 79.2184C362.848 78.8781 363.709 78.708 364.661 78.708C365.925 78.708 366.991 78.9372 367.859 79.3955C368.734 79.8538 369.411 80.4858 369.89 81.2913C370.376 82.0969 370.668 83.0135 370.765 84.0413H367.64C367.605 83.4302 367.484 82.9128 367.275 82.4892C367.067 82.0587 366.751 81.7358 366.327 81.5205C365.911 81.2983 365.355 81.1872 364.661 81.1872C364.14 81.1872 363.685 81.2844 363.296 81.4788C362.907 81.6733 362.581 81.9684 362.317 82.3642C362.053 82.7601 361.855 83.2601 361.723 83.8642C361.598 84.4615 361.536 85.1628 361.536 85.9684V87.0413C361.536 87.826 361.595 88.517 361.713 89.1142C361.831 89.7045 362.012 90.2045 362.255 90.6142C362.505 91.017 362.824 91.3226 363.213 91.5309C363.609 91.7323 364.084 91.833 364.64 91.833C365.293 91.833 365.831 91.7288 366.255 91.5205C366.678 91.3121 367.001 91.0031 367.223 90.5934C367.452 90.1837 367.588 89.6733 367.63 89.0621ZM372.13 88.5726V88.3538C372.13 87.5274 372.248 86.767 372.484 86.0726C372.72 85.3712 373.064 84.7635 373.515 84.2496C373.966 83.7358 374.522 83.3365 375.182 83.0517C375.841 82.7601 376.598 82.6142 377.452 82.6142C378.307 82.6142 379.067 82.7601 379.734 83.0517C380.4 83.3365 380.959 83.7358 381.411 84.2496C381.869 84.7635 382.216 85.3712 382.452 86.0726C382.689 86.767 382.807 87.5274 382.807 88.3538V88.5726C382.807 89.392 382.689 90.1524 382.452 90.8538C382.216 91.5482 381.869 92.1559 381.411 92.6767C380.959 93.1906 380.404 93.5899 379.744 93.8746C379.084 94.1594 378.327 94.3017 377.473 94.3017C376.619 94.3017 375.859 94.1594 375.192 93.8746C374.532 93.5899 373.973 93.1906 373.515 92.6767C373.064 92.1559 372.72 91.5482 372.484 90.8538C372.248 90.1524 372.13 89.392 372.13 88.5726ZM375.13 88.3538V88.5726C375.13 89.0448 375.171 89.4858 375.255 89.8955C375.338 90.3052 375.47 90.6663 375.65 90.9788C375.838 91.2844 376.081 91.5239 376.38 91.6976C376.678 91.8712 377.043 91.958 377.473 91.958C377.89 91.958 378.248 91.8712 378.546 91.6976C378.845 91.5239 379.084 91.2844 379.265 90.9788C379.446 90.6663 379.577 90.3052 379.661 89.8955C379.751 89.4858 379.796 89.0448 379.796 88.5726V88.3538C379.796 87.8955 379.751 87.4649 379.661 87.0621C379.577 86.6524 379.442 86.2913 379.255 85.9788C379.074 85.6594 378.834 85.4094 378.536 85.2288C378.237 85.0483 377.876 84.958 377.452 84.958C377.029 84.958 376.668 85.0483 376.369 85.2288C376.077 85.4094 375.838 85.6594 375.65 85.9788C375.47 86.2913 375.338 86.6524 375.255 87.0621C375.171 87.4649 375.13 87.8955 375.13 88.3538ZM387.817 78.0934V94.0934H384.807V78.0934H387.817ZM393.463 78.0934V94.0934H390.452V78.0934H393.463ZM402.025 91.5517V86.5309C402.025 86.1698 401.966 85.8608 401.848 85.6038C401.73 85.3399 401.546 85.1351 401.296 84.9892C401.053 84.8434 400.737 84.7705 400.348 84.7705C400.015 84.7705 399.727 84.8295 399.484 84.9476C399.241 85.0587 399.053 85.2219 398.921 85.4371C398.789 85.6455 398.723 85.892 398.723 86.1767H395.723C395.723 85.6976 395.834 85.2427 396.057 84.8121C396.279 84.3816 396.602 84.0031 397.025 83.6767C397.449 83.3434 397.952 83.083 398.536 82.8955C399.126 82.708 399.786 82.6142 400.515 82.6142C401.39 82.6142 402.168 82.7601 402.848 83.0517C403.529 83.3434 404.064 83.7809 404.452 84.3642C404.848 84.9476 405.046 85.6767 405.046 86.5517V91.3746C405.046 91.9927 405.084 92.4996 405.161 92.8955C405.237 93.2844 405.348 93.6246 405.494 93.9163V94.0934H402.463C402.317 93.7878 402.206 93.4059 402.13 92.9476C402.06 92.4823 402.025 92.017 402.025 91.5517ZM402.421 87.2288L402.442 88.9267H400.765C400.369 88.9267 400.025 88.9719 399.734 89.0621C399.442 89.1524 399.202 89.2809 399.015 89.4476C398.827 89.6073 398.689 89.7948 398.598 90.0101C398.515 90.2253 398.473 90.4614 398.473 90.7184C398.473 90.9753 398.532 91.208 398.65 91.4163C398.768 91.6177 398.939 91.7774 399.161 91.8955C399.383 92.0066 399.643 92.0621 399.942 92.0621C400.393 92.0621 400.786 91.9719 401.119 91.7913C401.452 91.6107 401.709 91.3885 401.89 91.1246C402.077 90.8608 402.175 90.6108 402.182 90.3746L402.973 91.6455C402.862 91.9302 402.709 92.2253 402.515 92.5309C402.327 92.8364 402.088 93.1246 401.796 93.3955C401.505 93.6594 401.154 93.8781 400.744 94.0517C400.334 94.2184 399.848 94.3017 399.286 94.3017C398.57 94.3017 397.921 94.1594 397.338 93.8746C396.761 93.583 396.303 93.1837 395.963 92.6767C395.63 92.1628 395.463 91.5795 395.463 90.9267C395.463 90.3364 395.574 89.8121 395.796 89.3538C396.018 88.8955 396.345 88.5101 396.775 88.1976C397.213 87.8781 397.758 87.6385 398.411 87.4788C399.064 87.3121 399.82 87.2288 400.682 87.2288H402.421ZM407.359 78.0934H410.359V91.5101L410.057 94.0934H407.359V78.0934ZM417.494 88.3434V88.5621C417.494 89.4024 417.404 90.1733 417.223 90.8746C417.05 91.576 416.779 92.1837 416.411 92.6976C416.043 93.2045 415.584 93.6003 415.036 93.8851C414.494 94.1628 413.855 94.3017 413.119 94.3017C412.432 94.3017 411.834 94.1628 411.327 93.8851C410.827 93.6073 410.407 93.2149 410.067 92.708C409.727 92.201 409.452 91.6073 409.244 90.9267C409.036 90.2462 408.879 89.5031 408.775 88.6976V88.2184C408.879 87.4128 409.036 86.6698 409.244 85.9892C409.452 85.3087 409.727 84.7149 410.067 84.208C410.407 83.701 410.827 83.3087 411.327 83.0309C411.827 82.7531 412.418 82.6142 413.098 82.6142C413.841 82.6142 414.487 82.7566 415.036 83.0413C415.591 83.3191 416.05 83.7149 416.411 84.2288C416.779 84.7358 417.05 85.3399 417.223 86.0413C417.404 86.7358 417.494 87.5031 417.494 88.3434ZM414.494 88.5621V88.3434C414.494 87.8851 414.459 87.4545 414.39 87.0517C414.327 86.642 414.216 86.2844 414.057 85.9788C413.897 85.6663 413.678 85.4198 413.4 85.2392C413.129 85.0587 412.779 84.9684 412.348 84.9684C411.939 84.9684 411.591 85.0378 411.307 85.1767C411.022 85.3156 410.786 85.5101 410.598 85.7601C410.418 86.0101 410.282 86.3087 410.192 86.6559C410.102 86.9962 410.046 87.3712 410.025 87.7809V89.1455C410.046 89.6941 410.136 90.1802 410.296 90.6038C410.463 91.0205 410.713 91.3503 411.046 91.5934C411.386 91.8295 411.827 91.9476 412.369 91.9476C412.793 91.9476 413.143 91.8642 413.421 91.6976C413.699 91.5309 413.914 91.2948 414.067 90.9892C414.227 90.6837 414.338 90.326 414.4 89.9163C414.463 89.4996 414.494 89.0483 414.494 88.5621ZM418.879 88.5726V88.3538C418.879 87.5274 418.998 86.767 419.234 86.0726C419.47 85.3712 419.814 84.7635 420.265 84.2496C420.716 83.7358 421.272 83.3365 421.932 83.0517C422.591 82.7601 423.348 82.6142 424.202 82.6142C425.057 82.6142 425.817 82.7601 426.484 83.0517C427.15 83.3365 427.709 83.7358 428.161 84.2496C428.619 84.7635 428.966 85.3712 429.202 86.0726C429.438 86.767 429.557 87.5274 429.557 88.3538V88.5726C429.557 89.392 429.438 90.1524 429.202 90.8538C428.966 91.5482 428.619 92.1559 428.161 92.6767C427.709 93.1906 427.154 93.5899 426.494 93.8746C425.834 94.1594 425.077 94.3017 424.223 94.3017C423.369 94.3017 422.609 94.1594 421.942 93.8746C421.282 93.5899 420.723 93.1906 420.265 92.6767C419.814 92.1559 419.47 91.5482 419.234 90.8538C418.998 90.1524 418.879 89.392 418.879 88.5726ZM421.879 88.3538V88.5726C421.879 89.0448 421.921 89.4858 422.004 89.8955C422.088 90.3052 422.22 90.6663 422.4 90.9788C422.588 91.2844 422.831 91.5239 423.129 91.6976C423.428 91.8712 423.793 91.958 424.223 91.958C424.64 91.958 424.998 91.8712 425.296 91.6976C425.595 91.5239 425.834 91.2844 426.015 90.9788C426.195 90.6663 426.327 90.3052 426.411 89.8955C426.501 89.4858 426.546 89.0448 426.546 88.5726V88.3538C426.546 87.8955 426.501 87.4649 426.411 87.0621C426.327 86.6524 426.192 86.2913 426.004 85.9788C425.824 85.6594 425.584 85.4094 425.286 85.2288C424.987 85.0483 424.626 84.958 424.202 84.958C423.779 84.958 423.418 85.0483 423.119 85.2288C422.827 85.4094 422.588 85.6594 422.4 85.9788C422.22 86.2913 422.088 86.6524 422.004 87.0621C421.921 87.4649 421.879 87.8955 421.879 88.3538ZM434.4 85.2809V94.0934H431.4V82.8226H434.223L434.4 85.2809ZM437.796 82.7497L437.744 85.5309C437.598 85.5101 437.421 85.4927 437.213 85.4788C437.011 85.458 436.827 85.4476 436.661 85.4476C436.237 85.4476 435.869 85.5031 435.557 85.6142C435.251 85.7184 434.994 85.8746 434.786 86.083C434.584 86.2913 434.432 86.5448 434.327 86.8434C434.23 87.142 434.175 87.4823 434.161 87.8642L433.557 87.6767C433.557 86.9476 433.629 86.2774 433.775 85.6663C433.921 85.0483 434.133 84.5101 434.411 84.0517C434.695 83.5934 435.043 83.2392 435.452 82.9892C435.862 82.7392 436.331 82.6142 436.859 82.6142C437.025 82.6142 437.195 82.6281 437.369 82.6559C437.543 82.6767 437.685 82.708 437.796 82.7497ZM444.942 91.5517V86.5309C444.942 86.1698 444.883 85.8608 444.765 85.6038C444.647 85.3399 444.463 85.1351 444.213 84.9892C443.97 84.8434 443.654 84.7705 443.265 84.7705C442.932 84.7705 442.643 84.8295 442.4 84.9476C442.157 85.0587 441.97 85.2219 441.838 85.4371C441.706 85.6455 441.64 85.892 441.64 86.1767H438.64C438.64 85.6976 438.751 85.2427 438.973 84.8121C439.195 84.3816 439.518 84.0031 439.942 83.6767C440.366 83.3434 440.869 83.083 441.452 82.8955C442.043 82.708 442.702 82.6142 443.432 82.6142C444.307 82.6142 445.084 82.7601 445.765 83.0517C446.445 83.3434 446.98 83.7809 447.369 84.3642C447.765 84.9476 447.963 85.6767 447.963 86.5517V91.3746C447.963 91.9927 448.001 92.4996 448.077 92.8955C448.154 93.2844 448.265 93.6246 448.411 93.9163V94.0934H445.379C445.234 93.7878 445.122 93.4059 445.046 92.9476C444.977 92.4823 444.942 92.017 444.942 91.5517ZM445.338 87.2288L445.359 88.9267H443.682C443.286 88.9267 442.942 88.9719 442.65 89.0621C442.359 89.1524 442.119 89.2809 441.932 89.4476C441.744 89.6073 441.605 89.7948 441.515 90.0101C441.432 90.2253 441.39 90.4614 441.39 90.7184C441.39 90.9753 441.449 91.208 441.567 91.4163C441.685 91.6177 441.855 91.7774 442.077 91.8955C442.3 92.0066 442.56 92.0621 442.859 92.0621C443.31 92.0621 443.702 91.9719 444.036 91.7913C444.369 91.6107 444.626 91.3885 444.807 91.1246C444.994 90.8608 445.091 90.6108 445.098 90.3746L445.89 91.6455C445.779 91.9302 445.626 92.2253 445.432 92.5309C445.244 92.8364 445.004 93.1246 444.713 93.3955C444.421 93.6594 444.07 93.8781 443.661 94.0517C443.251 94.2184 442.765 94.3017 442.202 94.3017C441.487 94.3017 440.838 94.1594 440.254 93.8746C439.678 93.583 439.22 93.1837 438.879 92.6767C438.546 92.1628 438.379 91.5795 438.379 90.9267C438.379 90.3364 438.491 89.8121 438.713 89.3538C438.935 88.8955 439.261 88.5101 439.692 88.1976C440.129 87.8781 440.675 87.6385 441.327 87.4788C441.98 87.3121 442.737 87.2288 443.598 87.2288H445.338ZM455.796 82.8226V84.9476H449.234V82.8226H455.796ZM450.859 80.0413H453.859V90.6976C453.859 91.0239 453.9 91.2739 453.984 91.4476C454.074 91.6212 454.206 91.7427 454.379 91.8121C454.553 91.8746 454.772 91.9059 455.036 91.9059C455.223 91.9059 455.39 91.8989 455.536 91.8851C455.688 91.8642 455.817 91.8434 455.921 91.8226L455.932 94.0309C455.675 94.1142 455.397 94.1802 455.098 94.2288C454.8 94.2774 454.47 94.3017 454.109 94.3017C453.449 94.3017 452.872 94.1941 452.379 93.9788C451.893 93.7566 451.518 93.4024 451.254 92.9163C450.991 92.4302 450.859 91.7913 450.859 90.9996V80.0413ZM460.671 82.8226V94.0934H457.661V82.8226H460.671ZM457.473 79.8851C457.473 79.4476 457.626 79.0865 457.932 78.8017C458.237 78.517 458.647 78.3747 459.161 78.3747C459.668 78.3747 460.074 78.517 460.379 78.8017C460.692 79.0865 460.848 79.4476 460.848 79.8851C460.848 80.3226 460.692 80.6837 460.379 80.9684C460.074 81.2531 459.668 81.3955 459.161 81.3955C458.647 81.3955 458.237 81.2531 457.932 80.9684C457.626 80.6837 457.473 80.3226 457.473 79.8851ZM462.671 88.5726V88.3538C462.671 87.5274 462.789 86.767 463.025 86.0726C463.261 85.3712 463.605 84.7635 464.056 84.2496C464.508 83.7358 465.063 83.3365 465.723 83.0517C466.383 82.7601 467.14 82.6142 467.994 82.6142C468.848 82.6142 469.609 82.7601 470.275 83.0517C470.942 83.3365 471.501 83.7358 471.952 84.2496C472.411 84.7635 472.758 85.3712 472.994 86.0726C473.23 86.767 473.348 87.5274 473.348 88.3538V88.5726C473.348 89.392 473.23 90.1524 472.994 90.8538C472.758 91.5482 472.411 92.1559 471.952 92.6767C471.501 93.1906 470.945 93.5899 470.286 93.8746C469.626 94.1594 468.869 94.3017 468.015 94.3017C467.161 94.3017 466.4 94.1594 465.734 93.8746C465.074 93.5899 464.515 93.1906 464.056 92.6767C463.605 92.1559 463.261 91.5482 463.025 90.8538C462.789 90.1524 462.671 89.392 462.671 88.5726ZM465.671 88.3538V88.5726C465.671 89.0448 465.713 89.4858 465.796 89.8955C465.879 90.3052 466.011 90.6663 466.192 90.9788C466.379 91.2844 466.622 91.5239 466.921 91.6976C467.22 91.8712 467.584 91.958 468.015 91.958C468.431 91.958 468.789 91.8712 469.088 91.6976C469.386 91.5239 469.626 91.2844 469.806 90.9788C469.987 90.6663 470.119 90.3052 470.202 89.8955C470.293 89.4858 470.338 89.0448 470.338 88.5726V88.3538C470.338 87.8955 470.293 87.4649 470.202 87.0621C470.119 86.6524 469.984 86.2913 469.796 85.9788C469.616 85.6594 469.376 85.4094 469.077 85.2288C468.779 85.0483 468.418 84.958 467.994 84.958C467.57 84.958 467.209 85.0483 466.911 85.2288C466.619 85.4094 466.379 85.6594 466.192 85.9788C466.011 86.2913 465.879 86.6524 465.796 87.0621C465.713 87.4649 465.671 87.8955 465.671 88.3538ZM478.129 85.2288V94.0934H475.129V82.8226H477.942L478.129 85.2288ZM477.692 88.0621H476.879C476.879 87.2288 476.987 86.4788 477.202 85.8121C477.418 85.1385 477.72 84.5656 478.109 84.0934C478.497 83.6142 478.959 83.2497 479.494 82.9997C480.036 82.7427 480.64 82.6142 481.306 82.6142C481.834 82.6142 482.317 82.6906 482.754 82.8434C483.192 82.9962 483.567 83.2392 483.879 83.5726C484.199 83.9059 484.442 84.3469 484.609 84.8955C484.782 85.4441 484.869 86.1142 484.869 86.9059V94.0934H481.848V86.8955C481.848 86.3955 481.779 86.0066 481.64 85.7288C481.501 85.451 481.296 85.2566 481.025 85.1455C480.761 85.0274 480.435 84.9684 480.046 84.9684C479.643 84.9684 479.293 85.0483 478.994 85.208C478.702 85.3677 478.459 85.5899 478.265 85.8746C478.077 86.1524 477.935 86.4788 477.838 86.8538C477.74 87.2288 477.692 87.6316 477.692 88.0621Z" fill="white"/>
<path d="M269.292 383.031C269.292 382.76 269.25 382.517 269.167 382.302C269.09 382.08 268.945 381.878 268.729 381.698C268.514 381.51 268.212 381.326 267.823 381.146C267.434 380.965 266.931 380.778 266.313 380.583C265.625 380.361 264.972 380.111 264.354 379.833C263.743 379.556 263.201 379.233 262.729 378.865C262.264 378.49 261.896 378.056 261.625 377.563C261.361 377.069 261.229 376.497 261.229 375.844C261.229 375.212 261.368 374.639 261.646 374.125C261.924 373.604 262.313 373.16 262.813 372.792C263.313 372.417 263.903 372.128 264.583 371.927C265.271 371.726 266.024 371.625 266.844 371.625C267.962 371.625 268.938 371.826 269.771 372.229C270.604 372.632 271.25 373.184 271.708 373.885C272.174 374.587 272.406 375.389 272.406 376.292H269.302C269.302 375.847 269.208 375.458 269.021 375.125C268.84 374.785 268.563 374.517 268.188 374.323C267.82 374.128 267.354 374.031 266.792 374.031C266.25 374.031 265.799 374.115 265.438 374.281C265.076 374.441 264.806 374.66 264.625 374.938C264.445 375.208 264.354 375.514 264.354 375.854C264.354 376.111 264.417 376.344 264.542 376.552C264.674 376.76 264.868 376.955 265.125 377.135C265.382 377.316 265.698 377.486 266.073 377.646C266.448 377.806 266.882 377.962 267.375 378.115C268.201 378.365 268.927 378.646 269.552 378.958C270.184 379.271 270.712 379.622 271.135 380.01C271.559 380.399 271.879 380.84 272.094 381.333C272.309 381.826 272.417 382.385 272.417 383.01C272.417 383.67 272.288 384.26 272.031 384.781C271.774 385.302 271.403 385.743 270.917 386.104C270.431 386.465 269.851 386.74 269.177 386.927C268.504 387.115 267.75 387.208 266.917 387.208C266.167 387.208 265.427 387.111 264.698 386.917C263.969 386.715 263.306 386.413 262.708 386.01C262.118 385.608 261.646 385.094 261.292 384.469C260.938 383.844 260.76 383.104 260.76 382.25H263.896C263.896 382.722 263.969 383.122 264.115 383.448C264.26 383.774 264.465 384.038 264.729 384.24C265 384.441 265.32 384.587 265.688 384.677C266.063 384.767 266.472 384.813 266.917 384.813C267.458 384.813 267.903 384.736 268.25 384.583C268.604 384.431 268.865 384.219 269.031 383.948C269.205 383.677 269.292 383.372 269.292 383.031ZM277.354 377.896V391.333H274.354V375.729H277.135L277.354 377.896ZM284.49 381.24V381.458C284.49 382.278 284.392 383.038 284.198 383.74C284.01 384.441 283.733 385.052 283.365 385.573C282.997 386.087 282.538 386.49 281.99 386.781C281.448 387.066 280.823 387.208 280.115 387.208C279.427 387.208 278.83 387.069 278.323 386.792C277.816 386.514 277.389 386.125 277.042 385.625C276.701 385.118 276.427 384.531 276.219 383.865C276.01 383.198 275.851 382.483 275.74 381.719V381.146C275.851 380.326 276.01 379.576 276.219 378.896C276.427 378.208 276.701 377.615 277.042 377.115C277.389 376.608 277.813 376.215 278.313 375.938C278.819 375.66 279.413 375.521 280.094 375.521C280.809 375.521 281.438 375.656 281.979 375.927C282.528 376.198 282.986 376.587 283.354 377.094C283.729 377.601 284.01 378.205 284.198 378.906C284.392 379.608 284.49 380.385 284.49 381.24ZM281.479 381.458V381.24C281.479 380.76 281.438 380.319 281.354 379.917C281.278 379.507 281.153 379.149 280.979 378.844C280.813 378.538 280.59 378.302 280.313 378.135C280.042 377.962 279.712 377.875 279.323 377.875C278.913 377.875 278.563 377.941 278.271 378.073C277.986 378.205 277.754 378.396 277.573 378.646C277.392 378.896 277.257 379.194 277.167 379.542C277.076 379.889 277.021 380.281 277 380.719V382.167C277.035 382.681 277.132 383.142 277.292 383.552C277.451 383.955 277.698 384.274 278.031 384.51C278.365 384.747 278.802 384.865 279.344 384.865C279.74 384.865 280.073 384.778 280.344 384.604C280.615 384.424 280.833 384.177 281 383.865C281.174 383.552 281.295 383.191 281.365 382.781C281.441 382.372 281.479 381.931 281.479 381.458ZM285.875 381.479V381.26C285.875 380.434 285.993 379.674 286.229 378.979C286.465 378.278 286.809 377.67 287.26 377.156C287.712 376.642 288.267 376.243 288.927 375.958C289.587 375.667 290.344 375.521 291.198 375.521C292.052 375.521 292.813 375.667 293.479 375.958C294.146 376.243 294.705 376.642 295.156 377.156C295.615 377.67 295.962 378.278 296.198 378.979C296.434 379.674 296.552 380.434 296.552 381.26V381.479C296.552 382.299 296.434 383.059 296.198 383.76C295.962 384.455 295.615 385.063 295.156 385.583C294.705 386.097 294.149 386.497 293.49 386.781C292.83 387.066 292.073 387.208 291.219 387.208C290.365 387.208 289.604 387.066 288.938 386.781C288.278 386.497 287.719 386.097 287.26 385.583C286.809 385.063 286.465 384.455 286.229 383.76C285.993 383.059 285.875 382.299 285.875 381.479ZM288.875 381.26V381.479C288.875 381.951 288.917 382.392 289 382.802C289.083 383.212 289.215 383.573 289.396 383.885C289.583 384.191 289.826 384.431 290.125 384.604C290.424 384.778 290.788 384.865 291.219 384.865C291.635 384.865 291.993 384.778 292.292 384.604C292.59 384.431 292.83 384.191 293.01 383.885C293.191 383.573 293.323 383.212 293.406 382.802C293.497 382.392 293.542 381.951 293.542 381.479V381.26C293.542 380.802 293.497 380.372 293.406 379.969C293.323 379.559 293.188 379.198 293 378.885C292.819 378.566 292.58 378.316 292.281 378.135C291.983 377.955 291.622 377.865 291.198 377.865C290.774 377.865 290.413 377.955 290.115 378.135C289.823 378.316 289.583 378.566 289.396 378.885C289.215 379.198 289.083 379.559 289 379.969C288.917 380.372 288.875 380.802 288.875 381.26ZM301.333 378.135V387H298.333V375.729H301.146L301.333 378.135ZM300.896 380.969H300.083C300.083 380.135 300.191 379.385 300.406 378.719C300.622 378.045 300.924 377.472 301.313 377C301.701 376.521 302.163 376.156 302.698 375.906C303.24 375.649 303.844 375.521 304.51 375.521C305.038 375.521 305.521 375.597 305.958 375.75C306.396 375.903 306.771 376.146 307.083 376.479C307.403 376.813 307.646 377.253 307.812 377.802C307.986 378.351 308.073 379.021 308.073 379.813V387H305.052V379.802C305.052 379.302 304.983 378.913 304.844 378.635C304.705 378.358 304.5 378.163 304.229 378.052C303.965 377.934 303.639 377.875 303.25 377.875C302.847 377.875 302.497 377.955 302.198 378.115C301.906 378.274 301.663 378.497 301.469 378.781C301.281 379.059 301.139 379.385 301.042 379.76C300.944 380.135 300.896 380.538 300.896 380.969ZM316.448 383.885C316.448 383.67 316.385 383.476 316.26 383.302C316.135 383.128 315.903 382.969 315.562 382.823C315.229 382.67 314.747 382.531 314.115 382.406C313.545 382.281 313.014 382.125 312.521 381.938C312.035 381.743 311.611 381.51 311.25 381.24C310.896 380.969 310.618 380.649 310.417 380.281C310.215 379.906 310.115 379.479 310.115 379C310.115 378.528 310.215 378.083 310.417 377.667C310.625 377.25 310.92 376.882 311.302 376.563C311.691 376.236 312.163 375.983 312.719 375.802C313.281 375.615 313.913 375.521 314.615 375.521C315.594 375.521 316.434 375.677 317.135 375.99C317.844 376.302 318.385 376.733 318.76 377.281C319.142 377.823 319.333 378.441 319.333 379.135H316.333C316.333 378.844 316.271 378.583 316.146 378.354C316.028 378.118 315.84 377.934 315.583 377.802C315.333 377.663 315.007 377.594 314.604 377.594C314.271 377.594 313.983 377.653 313.74 377.771C313.497 377.882 313.309 378.035 313.177 378.229C313.052 378.417 312.99 378.625 312.99 378.854C312.99 379.028 313.024 379.184 313.094 379.323C313.17 379.455 313.292 379.576 313.458 379.688C313.625 379.799 313.84 379.903 314.104 380C314.375 380.09 314.708 380.174 315.104 380.25C315.917 380.417 316.642 380.635 317.281 380.906C317.92 381.17 318.427 381.531 318.802 381.99C319.177 382.441 319.365 383.035 319.365 383.771C319.365 384.271 319.253 384.729 319.031 385.146C318.809 385.563 318.49 385.927 318.073 386.24C317.656 386.545 317.156 386.785 316.573 386.958C315.997 387.125 315.347 387.208 314.625 387.208C313.576 387.208 312.687 387.021 311.958 386.646C311.236 386.271 310.687 385.795 310.312 385.219C309.944 384.635 309.76 384.038 309.76 383.427H312.604C312.618 383.837 312.722 384.167 312.917 384.417C313.118 384.667 313.372 384.847 313.677 384.958C313.99 385.069 314.326 385.125 314.687 385.125C315.076 385.125 315.399 385.073 315.656 384.969C315.913 384.858 316.108 384.712 316.24 384.531C316.378 384.344 316.448 384.128 316.448 383.885ZM320.833 381.479V381.26C320.833 380.434 320.951 379.674 321.187 378.979C321.424 378.278 321.767 377.67 322.219 377.156C322.67 376.642 323.226 376.243 323.885 375.958C324.545 375.667 325.302 375.521 326.156 375.521C327.01 375.521 327.771 375.667 328.437 375.958C329.104 376.243 329.663 376.642 330.115 377.156C330.573 377.67 330.92 378.278 331.156 378.979C331.392 379.674 331.51 380.434 331.51 381.26V381.479C331.51 382.299 331.392 383.059 331.156 383.76C330.92 384.455 330.573 385.063 330.115 385.583C329.663 386.097 329.108 386.497 328.448 386.781C327.788 387.066 327.031 387.208 326.177 387.208C325.323 387.208 324.562 387.066 323.896 386.781C323.236 386.497 322.677 386.097 322.219 385.583C321.767 385.063 321.424 384.455 321.187 383.76C320.951 383.059 320.833 382.299 320.833 381.479ZM323.833 381.26V381.479C323.833 381.951 323.875 382.392 323.958 382.802C324.042 383.212 324.174 383.573 324.354 383.885C324.542 384.191 324.785 384.431 325.083 384.604C325.382 384.778 325.746 384.865 326.177 384.865C326.594 384.865 326.951 384.778 327.25 384.604C327.549 384.431 327.788 384.191 327.969 383.885C328.149 383.573 328.281 383.212 328.365 382.802C328.455 382.392 328.5 381.951 328.5 381.479V381.26C328.5 380.802 328.455 380.372 328.365 379.969C328.281 379.559 328.146 379.198 327.958 378.885C327.778 378.566 327.538 378.316 327.24 378.135C326.941 377.955 326.58 377.865 326.156 377.865C325.733 377.865 325.371 377.955 325.073 378.135C324.781 378.316 324.542 378.566 324.354 378.885C324.174 379.198 324.042 379.559 323.958 379.969C323.875 380.372 323.833 380.802 323.833 381.26ZM336.354 378.188V387H333.354V375.729H336.177L336.354 378.188ZM339.75 375.656L339.698 378.438C339.552 378.417 339.375 378.399 339.167 378.385C338.965 378.365 338.781 378.354 338.615 378.354C338.191 378.354 337.823 378.41 337.51 378.521C337.205 378.625 336.948 378.781 336.74 378.99C336.538 379.198 336.385 379.451 336.281 379.75C336.184 380.049 336.128 380.389 336.115 380.771L335.51 380.583C335.51 379.854 335.583 379.184 335.729 378.573C335.875 377.955 336.087 377.417 336.365 376.958C336.649 376.5 336.996 376.146 337.406 375.896C337.816 375.646 338.285 375.521 338.812 375.521C338.979 375.521 339.149 375.535 339.323 375.563C339.496 375.583 339.639 375.615 339.75 375.656ZM347.26 383.885C347.26 383.67 347.198 383.476 347.073 383.302C346.948 383.128 346.715 382.969 346.375 382.823C346.042 382.67 345.559 382.531 344.927 382.406C344.358 382.281 343.826 382.125 343.333 381.938C342.847 381.743 342.424 381.51 342.062 381.24C341.708 380.969 341.43 380.649 341.229 380.281C341.028 379.906 340.927 379.479 340.927 379C340.927 378.528 341.028 378.083 341.229 377.667C341.437 377.25 341.733 376.882 342.115 376.563C342.503 376.236 342.976 375.983 343.531 375.802C344.094 375.615 344.726 375.521 345.427 375.521C346.406 375.521 347.246 375.677 347.948 375.99C348.656 376.302 349.198 376.733 349.573 377.281C349.955 377.823 350.146 378.441 350.146 379.135H347.146C347.146 378.844 347.083 378.583 346.958 378.354C346.84 378.118 346.653 377.934 346.396 377.802C346.146 377.663 345.819 377.594 345.417 377.594C345.083 377.594 344.795 377.653 344.552 377.771C344.309 377.882 344.121 378.035 343.99 378.229C343.865 378.417 343.802 378.625 343.802 378.854C343.802 379.028 343.837 379.184 343.906 379.323C343.983 379.455 344.104 379.576 344.271 379.688C344.437 379.799 344.653 379.903 344.917 380C345.187 380.09 345.521 380.174 345.917 380.25C346.729 380.417 347.455 380.635 348.094 380.906C348.733 381.17 349.24 381.531 349.615 381.99C349.99 382.441 350.177 383.035 350.177 383.771C350.177 384.271 350.066 384.729 349.844 385.146C349.621 385.563 349.302 385.927 348.885 386.24C348.469 386.545 347.969 386.785 347.385 386.958C346.809 387.125 346.16 387.208 345.437 387.208C344.389 387.208 343.5 387.021 342.771 386.646C342.049 386.271 341.5 385.795 341.125 385.219C340.757 384.635 340.573 384.038 340.573 383.427H343.417C343.43 383.837 343.535 384.167 343.729 384.417C343.93 384.667 344.184 384.847 344.49 384.958C344.802 385.069 345.139 385.125 345.5 385.125C345.889 385.125 346.212 385.073 346.469 384.969C346.726 384.858 346.92 384.712 347.052 384.531C347.191 384.344 347.26 384.128 347.26 383.885Z" fill="#005B6A"/>
<path d="M148.073 366.833H151.188V376.854C151.188 378.021 150.938 379.003 150.438 379.802C149.944 380.601 149.26 381.201 148.385 381.604C147.517 382.007 146.517 382.208 145.385 382.208C144.254 382.208 143.247 382.007 142.365 381.604C141.49 381.201 140.802 380.601 140.302 379.802C139.809 379.003 139.563 378.021 139.563 376.854V366.833H142.688V376.854C142.688 377.535 142.795 378.09 143.01 378.521C143.226 378.951 143.535 379.267 143.938 379.469C144.347 379.67 144.83 379.771 145.385 379.771C145.955 379.771 146.438 379.67 146.833 379.469C147.236 379.267 147.542 378.951 147.75 378.521C147.965 378.09 148.073 377.535 148.073 376.854V366.833ZM159.667 378.885C159.667 378.67 159.604 378.476 159.479 378.302C159.354 378.128 159.122 377.969 158.781 377.823C158.448 377.67 157.965 377.531 157.333 377.406C156.764 377.281 156.233 377.125 155.74 376.938C155.253 376.743 154.83 376.51 154.469 376.24C154.115 375.969 153.837 375.649 153.635 375.281C153.434 374.906 153.333 374.479 153.333 374C153.333 373.528 153.434 373.083 153.635 372.667C153.844 372.25 154.139 371.882 154.521 371.563C154.91 371.236 155.382 370.983 155.938 370.802C156.5 370.615 157.132 370.521 157.833 370.521C158.813 370.521 159.653 370.677 160.354 370.99C161.063 371.302 161.604 371.733 161.979 372.281C162.361 372.823 162.552 373.441 162.552 374.135H159.552C159.552 373.844 159.49 373.583 159.365 373.354C159.247 373.118 159.059 372.934 158.802 372.802C158.552 372.663 158.226 372.594 157.823 372.594C157.49 372.594 157.201 372.653 156.958 372.771C156.715 372.882 156.528 373.035 156.396 373.229C156.271 373.417 156.208 373.625 156.208 373.854C156.208 374.028 156.243 374.184 156.313 374.323C156.389 374.455 156.51 374.576 156.677 374.688C156.844 374.799 157.059 374.903 157.323 375C157.594 375.09 157.927 375.174 158.323 375.25C159.135 375.417 159.861 375.635 160.5 375.906C161.139 376.17 161.646 376.531 162.021 376.99C162.396 377.441 162.583 378.035 162.583 378.771C162.583 379.271 162.472 379.729 162.25 380.146C162.028 380.563 161.708 380.927 161.292 381.24C160.875 381.545 160.375 381.785 159.792 381.958C159.215 382.125 158.566 382.208 157.844 382.208C156.795 382.208 155.906 382.021 155.177 381.646C154.455 381.271 153.906 380.795 153.531 380.219C153.163 379.635 152.979 379.038 152.979 378.427H155.823C155.837 378.837 155.941 379.167 156.135 379.417C156.337 379.667 156.59 379.847 156.896 379.958C157.208 380.069 157.545 380.125 157.906 380.125C158.295 380.125 158.618 380.073 158.875 379.969C159.132 379.858 159.326 379.712 159.458 379.531C159.597 379.344 159.667 379.128 159.667 378.885ZM169.719 382.208C168.844 382.208 168.059 382.069 167.365 381.792C166.67 381.507 166.08 381.115 165.594 380.615C165.115 380.115 164.747 379.535 164.49 378.875C164.233 378.208 164.104 377.5 164.104 376.75V376.333C164.104 375.479 164.226 374.698 164.469 373.99C164.712 373.281 165.059 372.667 165.51 372.146C165.969 371.625 166.524 371.226 167.177 370.948C167.83 370.663 168.566 370.521 169.385 370.521C170.184 370.521 170.892 370.653 171.51 370.917C172.128 371.181 172.646 371.556 173.062 372.042C173.486 372.528 173.806 373.111 174.021 373.792C174.236 374.465 174.344 375.215 174.344 376.042V377.292H165.385V375.292H171.396V375.063C171.396 374.646 171.319 374.274 171.167 373.948C171.021 373.615 170.799 373.351 170.5 373.156C170.201 372.962 169.819 372.865 169.354 372.865C168.958 372.865 168.618 372.951 168.333 373.125C168.049 373.299 167.816 373.542 167.635 373.854C167.462 374.167 167.33 374.535 167.24 374.958C167.156 375.375 167.115 375.833 167.115 376.333V376.75C167.115 377.201 167.177 377.618 167.302 378C167.434 378.382 167.618 378.712 167.854 378.99C168.097 379.267 168.389 379.483 168.729 379.635C169.076 379.788 169.469 379.865 169.906 379.865C170.448 379.865 170.951 379.76 171.417 379.552C171.889 379.337 172.295 379.014 172.635 378.583L174.094 380.167C173.858 380.507 173.535 380.833 173.125 381.146C172.722 381.458 172.236 381.715 171.667 381.917C171.097 382.111 170.448 382.208 169.719 382.208ZM179.052 373.188V382H176.052V370.729H178.875L179.052 373.188ZM182.448 370.656L182.396 373.438C182.25 373.417 182.073 373.399 181.865 373.385C181.663 373.365 181.479 373.354 181.312 373.354C180.889 373.354 180.521 373.41 180.208 373.521C179.903 373.625 179.646 373.781 179.437 373.99C179.236 374.198 179.083 374.451 178.979 374.75C178.882 375.049 178.826 375.389 178.812 375.771L178.208 375.583C178.208 374.854 178.281 374.184 178.427 373.573C178.573 372.955 178.785 372.417 179.062 371.958C179.347 371.5 179.694 371.146 180.104 370.896C180.514 370.646 180.983 370.521 181.51 370.521C181.677 370.521 181.847 370.535 182.021 370.563C182.194 370.583 182.337 370.615 182.448 370.656ZM189.958 378.885C189.958 378.67 189.896 378.476 189.771 378.302C189.646 378.128 189.413 377.969 189.073 377.823C188.74 377.67 188.257 377.531 187.625 377.406C187.056 377.281 186.524 377.125 186.031 376.938C185.545 376.743 185.121 376.51 184.76 376.24C184.406 375.969 184.128 375.649 183.927 375.281C183.726 374.906 183.625 374.479 183.625 374C183.625 373.528 183.726 373.083 183.927 372.667C184.135 372.25 184.431 371.882 184.812 371.563C185.201 371.236 185.674 370.983 186.229 370.802C186.792 370.615 187.424 370.521 188.125 370.521C189.104 370.521 189.944 370.677 190.646 370.99C191.354 371.302 191.896 371.733 192.271 372.281C192.653 372.823 192.844 373.441 192.844 374.135H189.844C189.844 373.844 189.781 373.583 189.656 373.354C189.538 373.118 189.351 372.934 189.094 372.802C188.844 372.663 188.517 372.594 188.115 372.594C187.781 372.594 187.493 372.653 187.25 372.771C187.007 372.882 186.819 373.035 186.687 373.229C186.562 373.417 186.5 373.625 186.5 373.854C186.5 374.028 186.535 374.184 186.604 374.323C186.681 374.455 186.802 374.576 186.969 374.688C187.135 374.799 187.351 374.903 187.615 375C187.885 375.09 188.219 375.174 188.615 375.25C189.427 375.417 190.153 375.635 190.792 375.906C191.431 376.17 191.937 376.531 192.312 376.99C192.687 377.441 192.875 378.035 192.875 378.771C192.875 379.271 192.764 379.729 192.542 380.146C192.319 380.563 192 380.927 191.583 381.24C191.167 381.545 190.667 381.785 190.083 381.958C189.507 382.125 188.858 382.208 188.135 382.208C187.087 382.208 186.198 382.021 185.469 381.646C184.746 381.271 184.198 380.795 183.823 380.219C183.455 379.635 183.271 379.038 183.271 378.427H186.115C186.128 378.837 186.233 379.167 186.427 379.417C186.628 379.667 186.882 379.847 187.187 379.958C187.5 380.069 187.837 380.125 188.198 380.125C188.587 380.125 188.91 380.073 189.167 379.969C189.424 379.858 189.618 379.712 189.75 379.531C189.889 379.344 189.958 379.128 189.958 378.885Z" fill="#005B6A"/>
<path d="M177.448 271.969H180.563C180.5 272.99 180.219 273.896 179.719 274.688C179.226 275.479 178.535 276.097 177.646 276.542C176.764 276.986 175.701 277.208 174.458 277.208C173.486 277.208 172.615 277.042 171.844 276.708C171.073 276.368 170.413 275.882 169.865 275.25C169.323 274.618 168.91 273.854 168.625 272.958C168.34 272.063 168.198 271.059 168.198 269.948V268.896C168.198 267.785 168.344 266.781 168.636 265.885C168.934 264.983 169.358 264.215 169.906 263.583C170.462 262.951 171.125 262.465 171.896 262.125C172.667 261.785 173.528 261.615 174.479 261.615C175.743 261.615 176.809 261.844 177.677 262.302C178.552 262.76 179.229 263.392 179.708 264.198C180.195 265.003 180.486 265.92 180.583 266.948H177.458C177.424 266.337 177.302 265.819 177.094 265.396C176.886 264.965 176.57 264.642 176.146 264.427C175.729 264.205 175.174 264.094 174.479 264.094C173.958 264.094 173.504 264.191 173.115 264.385C172.726 264.58 172.399 264.875 172.136 265.271C171.872 265.667 171.674 266.167 171.542 266.771C171.417 267.368 171.354 268.069 171.354 268.875V269.948C171.354 270.733 171.413 271.424 171.531 272.021C171.649 272.611 171.83 273.111 172.073 273.521C172.323 273.924 172.642 274.229 173.031 274.438C173.427 274.639 173.903 274.74 174.458 274.74C175.111 274.74 175.649 274.635 176.073 274.427C176.497 274.219 176.82 273.91 177.042 273.5C177.271 273.09 177.406 272.58 177.448 271.969ZM181.948 271.479V271.26C181.948 270.434 182.066 269.674 182.302 268.979C182.538 268.278 182.882 267.67 183.333 267.156C183.785 266.642 184.34 266.243 185 265.958C185.66 265.667 186.417 265.521 187.271 265.521C188.125 265.521 188.885 265.667 189.552 265.958C190.219 266.243 190.778 266.642 191.229 267.156C191.688 267.67 192.035 268.278 192.271 268.979C192.507 269.674 192.625 270.434 192.625 271.26V271.479C192.625 272.299 192.507 273.059 192.271 273.76C192.035 274.455 191.688 275.063 191.229 275.583C190.778 276.097 190.222 276.497 189.563 276.781C188.903 277.066 188.146 277.208 187.292 277.208C186.438 277.208 185.677 277.066 185.01 276.781C184.351 276.497 183.792 276.097 183.333 275.583C182.882 275.063 182.538 274.455 182.302 273.76C182.066 273.059 181.948 272.299 181.948 271.479ZM184.948 271.26V271.479C184.948 271.951 184.99 272.392 185.073 272.802C185.156 273.212 185.288 273.573 185.469 273.885C185.656 274.191 185.899 274.431 186.198 274.604C186.497 274.778 186.861 274.865 187.292 274.865C187.708 274.865 188.066 274.778 188.365 274.604C188.663 274.431 188.903 274.191 189.083 273.885C189.264 273.573 189.396 273.212 189.479 272.802C189.57 272.392 189.615 271.951 189.615 271.479V271.26C189.615 270.802 189.57 270.372 189.479 269.969C189.396 269.559 189.26 269.198 189.073 268.885C188.892 268.566 188.653 268.316 188.354 268.135C188.056 267.955 187.695 267.865 187.271 267.865C186.847 267.865 186.486 267.955 186.188 268.135C185.896 268.316 185.656 268.566 185.469 268.885C185.288 269.198 185.156 269.559 185.073 269.969C184.99 270.372 184.948 270.802 184.948 271.26ZM197.635 261V277H194.625V261H197.635ZM203.281 261V277H200.271V261H203.281ZM211.844 274.458V269.438C211.844 269.076 211.785 268.767 211.667 268.51C211.549 268.247 211.365 268.042 211.115 267.896C210.872 267.75 210.556 267.677 210.167 267.677C209.833 267.677 209.545 267.736 209.302 267.854C209.059 267.965 208.872 268.128 208.74 268.344C208.608 268.552 208.542 268.799 208.542 269.083H205.542C205.542 268.604 205.653 268.149 205.875 267.719C206.097 267.288 206.42 266.91 206.844 266.583C207.267 266.25 207.771 265.99 208.354 265.802C208.944 265.615 209.604 265.521 210.333 265.521C211.208 265.521 211.986 265.667 212.667 265.958C213.347 266.25 213.882 266.688 214.271 267.271C214.667 267.854 214.865 268.583 214.865 269.458V274.281C214.865 274.899 214.903 275.406 214.979 275.802C215.056 276.191 215.167 276.531 215.313 276.823V277H212.281C212.135 276.694 212.024 276.313 211.948 275.854C211.879 275.389 211.844 274.924 211.844 274.458ZM212.24 270.135L212.26 271.833H210.583C210.188 271.833 209.844 271.878 209.552 271.969C209.26 272.059 209.021 272.188 208.833 272.354C208.646 272.514 208.507 272.701 208.417 272.917C208.333 273.132 208.292 273.368 208.292 273.625C208.292 273.882 208.351 274.115 208.469 274.323C208.587 274.524 208.757 274.684 208.979 274.802C209.201 274.913 209.462 274.969 209.76 274.969C210.212 274.969 210.604 274.878 210.938 274.698C211.271 274.517 211.528 274.295 211.708 274.031C211.896 273.767 211.993 273.517 212 273.281L212.792 274.552C212.681 274.837 212.528 275.132 212.333 275.438C212.146 275.743 211.906 276.031 211.615 276.302C211.323 276.566 210.972 276.785 210.563 276.958C210.153 277.125 209.667 277.208 209.104 277.208C208.389 277.208 207.74 277.066 207.156 276.781C206.58 276.49 206.122 276.09 205.781 275.583C205.448 275.069 205.281 274.486 205.281 273.833C205.281 273.243 205.392 272.719 205.615 272.26C205.837 271.802 206.163 271.417 206.594 271.104C207.031 270.785 207.576 270.545 208.229 270.385C208.882 270.219 209.639 270.135 210.5 270.135H212.24ZM217.177 261H220.177V274.417L219.875 277H217.177V261ZM227.313 271.25V271.469C227.313 272.309 227.222 273.08 227.042 273.781C226.868 274.483 226.597 275.09 226.229 275.604C225.861 276.111 225.403 276.507 224.854 276.792C224.313 277.069 223.674 277.208 222.938 277.208C222.25 277.208 221.653 277.069 221.146 276.792C220.646 276.514 220.226 276.122 219.885 275.615C219.545 275.108 219.271 274.514 219.063 273.833C218.854 273.153 218.698 272.41 218.594 271.604V271.125C218.698 270.319 218.854 269.576 219.063 268.896C219.271 268.215 219.545 267.622 219.885 267.115C220.226 266.608 220.646 266.215 221.146 265.938C221.646 265.66 222.236 265.521 222.917 265.521C223.66 265.521 224.306 265.663 224.854 265.948C225.41 266.226 225.868 266.622 226.229 267.135C226.597 267.642 226.868 268.247 227.042 268.948C227.222 269.642 227.313 270.41 227.313 271.25ZM224.313 271.469V271.25C224.313 270.792 224.278 270.361 224.208 269.958C224.146 269.549 224.035 269.191 223.875 268.885C223.715 268.573 223.497 268.326 223.219 268.146C222.948 267.965 222.597 267.875 222.167 267.875C221.757 267.875 221.41 267.944 221.125 268.083C220.84 268.222 220.604 268.417 220.417 268.667C220.236 268.917 220.101 269.215 220.01 269.563C219.92 269.903 219.865 270.278 219.844 270.688V272.052C219.865 272.601 219.955 273.087 220.115 273.51C220.281 273.927 220.531 274.257 220.865 274.5C221.205 274.736 221.646 274.854 222.188 274.854C222.611 274.854 222.962 274.771 223.24 274.604C223.517 274.438 223.733 274.201 223.885 273.896C224.045 273.59 224.156 273.233 224.219 272.823C224.281 272.406 224.313 271.955 224.313 271.469ZM228.698 271.479V271.26C228.698 270.434 228.816 269.674 229.052 268.979C229.288 268.278 229.632 267.67 230.083 267.156C230.535 266.642 231.09 266.243 231.75 265.958C232.41 265.667 233.167 265.521 234.021 265.521C234.875 265.521 235.635 265.667 236.302 265.958C236.969 266.243 237.528 266.642 237.979 267.156C238.437 267.67 238.785 268.278 239.021 268.979C239.257 269.674 239.375 270.434 239.375 271.26V271.479C239.375 272.299 239.257 273.059 239.021 273.76C238.785 274.455 238.437 275.063 237.979 275.583C237.528 276.097 236.972 276.497 236.312 276.781C235.653 277.066 234.896 277.208 234.042 277.208C233.187 277.208 232.427 277.066 231.76 276.781C231.101 276.497 230.542 276.097 230.083 275.583C229.632 275.063 229.288 274.455 229.052 273.76C228.816 273.059 228.698 272.299 228.698 271.479ZM231.698 271.26V271.479C231.698 271.951 231.74 272.392 231.823 272.802C231.906 273.212 232.038 273.573 232.219 273.885C232.406 274.191 232.649 274.431 232.948 274.604C233.247 274.778 233.611 274.865 234.042 274.865C234.458 274.865 234.816 274.778 235.115 274.604C235.413 274.431 235.653 274.191 235.833 273.885C236.014 273.573 236.146 273.212 236.229 272.802C236.319 272.392 236.365 271.951 236.365 271.479V271.26C236.365 270.802 236.319 270.372 236.229 269.969C236.146 269.559 236.01 269.198 235.823 268.885C235.642 268.566 235.403 268.316 235.104 268.135C234.806 267.955 234.444 267.865 234.021 267.865C233.597 267.865 233.236 267.955 232.937 268.135C232.646 268.316 232.406 268.566 232.219 268.885C232.038 269.198 231.906 269.559 231.823 269.969C231.74 270.372 231.698 270.802 231.698 271.26ZM244.219 268.188V277H241.219V265.729H244.042L244.219 268.188ZM247.615 265.656L247.562 268.438C247.417 268.417 247.24 268.399 247.031 268.385C246.83 268.365 246.646 268.354 246.479 268.354C246.056 268.354 245.687 268.41 245.375 268.521C245.069 268.625 244.812 268.781 244.604 268.99C244.403 269.198 244.25 269.451 244.146 269.75C244.049 270.049 243.993 270.389 243.979 270.771L243.375 270.583C243.375 269.854 243.448 269.184 243.594 268.573C243.74 267.955 243.951 267.417 244.229 266.958C244.514 266.5 244.861 266.146 245.271 265.896C245.681 265.646 246.149 265.521 246.677 265.521C246.844 265.521 247.014 265.535 247.187 265.563C247.361 265.583 247.503 265.615 247.615 265.656ZM254.76 274.458V269.438C254.76 269.076 254.701 268.767 254.583 268.51C254.465 268.247 254.281 268.042 254.031 267.896C253.788 267.75 253.472 267.677 253.083 267.677C252.75 267.677 252.462 267.736 252.219 267.854C251.976 267.965 251.788 268.128 251.656 268.344C251.524 268.552 251.458 268.799 251.458 269.083H248.458C248.458 268.604 248.569 268.149 248.792 267.719C249.014 267.288 249.337 266.91 249.76 266.583C250.184 266.25 250.687 265.99 251.271 265.802C251.861 265.615 252.521 265.521 253.25 265.521C254.125 265.521 254.903 265.667 255.583 265.958C256.264 266.25 256.799 266.688 257.187 267.271C257.583 267.854 257.781 268.583 257.781 269.458V274.281C257.781 274.899 257.819 275.406 257.896 275.802C257.972 276.191 258.083 276.531 258.229 276.823V277H255.198C255.052 276.694 254.941 276.313 254.865 275.854C254.795 275.389 254.76 274.924 254.76 274.458ZM255.156 270.135L255.177 271.833H253.5C253.104 271.833 252.76 271.878 252.469 271.969C252.177 272.059 251.937 272.188 251.75 272.354C251.562 272.514 251.424 272.701 251.333 272.917C251.25 273.132 251.208 273.368 251.208 273.625C251.208 273.882 251.267 274.115 251.385 274.323C251.503 274.524 251.674 274.684 251.896 274.802C252.118 274.913 252.378 274.969 252.677 274.969C253.128 274.969 253.521 274.878 253.854 274.698C254.187 274.517 254.444 274.295 254.625 274.031C254.812 273.767 254.91 273.517 254.917 273.281L255.708 274.552C255.597 274.837 255.444 275.132 255.25 275.438C255.062 275.743 254.823 276.031 254.531 276.302C254.24 276.566 253.889 276.785 253.479 276.958C253.069 277.125 252.583 277.208 252.021 277.208C251.306 277.208 250.656 277.066 250.073 276.781C249.496 276.49 249.038 276.09 248.698 275.583C248.365 275.069 248.198 274.486 248.198 273.833C248.198 273.243 248.309 272.719 248.531 272.26C248.753 271.802 249.08 271.417 249.51 271.104C249.948 270.785 250.493 270.545 251.146 270.385C251.799 270.219 252.556 270.135 253.417 270.135H255.156ZM265.615 265.729V267.854H259.052V265.729H265.615ZM260.677 262.948H263.677V273.604C263.677 273.931 263.719 274.181 263.802 274.354C263.892 274.528 264.024 274.649 264.198 274.719C264.371 274.781 264.59 274.813 264.854 274.813C265.042 274.813 265.208 274.806 265.354 274.792C265.507 274.771 265.635 274.75 265.74 274.729L265.75 276.938C265.493 277.021 265.215 277.087 264.917 277.135C264.618 277.184 264.288 277.208 263.927 277.208C263.267 277.208 262.691 277.101 262.198 276.885C261.712 276.663 261.337 276.309 261.073 275.823C260.809 275.337 260.677 274.698 260.677 273.906V262.948ZM266.573 271.479V271.26C266.573 270.434 266.691 269.674 266.927 268.979C267.163 268.278 267.507 267.67 267.958 267.156C268.41 266.642 268.965 266.243 269.625 265.958C270.285 265.667 271.042 265.521 271.896 265.521C272.75 265.521 273.51 265.667 274.177 265.958C274.844 266.243 275.403 266.642 275.854 267.156C276.312 267.67 276.66 268.278 276.896 268.979C277.132 269.674 277.25 270.434 277.25 271.26V271.479C277.25 272.299 277.132 273.059 276.896 273.76C276.66 274.455 276.312 275.063 275.854 275.583C275.403 276.097 274.847 276.497 274.187 276.781C273.528 277.066 272.771 277.208 271.917 277.208C271.062 277.208 270.302 277.066 269.635 276.781C268.976 276.497 268.417 276.097 267.958 275.583C267.507 275.063 267.163 274.455 266.927 273.76C266.691 273.059 266.573 272.299 266.573 271.479ZM269.573 271.26V271.479C269.573 271.951 269.615 272.392 269.698 272.802C269.781 273.212 269.913 273.573 270.094 273.885C270.281 274.191 270.524 274.431 270.823 274.604C271.121 274.778 271.486 274.865 271.917 274.865C272.333 274.865 272.691 274.778 272.99 274.604C273.288 274.431 273.528 274.191 273.708 273.885C273.889 273.573 274.021 273.212 274.104 272.802C274.194 272.392 274.24 271.951 274.24 271.479V271.26C274.24 270.802 274.194 270.372 274.104 269.969C274.021 269.559 273.885 269.198 273.698 268.885C273.517 268.566 273.278 268.316 272.979 268.135C272.68 267.955 272.319 267.865 271.896 267.865C271.472 267.865 271.111 267.955 270.812 268.135C270.521 268.316 270.281 268.566 270.094 268.885C269.913 269.198 269.781 269.559 269.698 269.969C269.615 270.372 269.573 270.802 269.573 271.26ZM282.094 268.188V277H279.094V265.729H281.917L282.094 268.188ZM285.489 265.656L285.437 268.438C285.292 268.417 285.114 268.399 284.906 268.385C284.705 268.365 284.521 268.354 284.354 268.354C283.93 268.354 283.562 268.41 283.25 268.521C282.944 268.625 282.687 268.781 282.479 268.99C282.278 269.198 282.125 269.451 282.021 269.75C281.924 270.049 281.868 270.389 281.854 270.771L281.25 270.583C281.25 269.854 281.323 269.184 281.469 268.573C281.615 267.955 281.826 267.417 282.104 266.958C282.389 266.5 282.736 266.146 283.146 265.896C283.555 265.646 284.024 265.521 284.552 265.521C284.719 265.521 284.889 265.535 285.062 265.563C285.236 265.583 285.378 265.615 285.489 265.656ZM293 273.885C293 273.67 292.937 273.476 292.812 273.302C292.687 273.128 292.455 272.969 292.114 272.823C291.781 272.67 291.299 272.531 290.667 272.406C290.097 272.281 289.566 272.125 289.073 271.938C288.587 271.743 288.163 271.51 287.802 271.24C287.448 270.969 287.17 270.649 286.969 270.281C286.767 269.906 286.667 269.479 286.667 269C286.667 268.528 286.767 268.083 286.969 267.667C287.177 267.25 287.472 266.882 287.854 266.563C288.243 266.236 288.715 265.983 289.271 265.802C289.833 265.615 290.465 265.521 291.167 265.521C292.146 265.521 292.986 265.677 293.687 265.99C294.396 266.302 294.937 266.733 295.312 267.281C295.694 267.823 295.885 268.441 295.885 269.135H292.885C292.885 268.844 292.823 268.583 292.698 268.354C292.58 268.118 292.392 267.934 292.135 267.802C291.885 267.663 291.559 267.594 291.156 267.594C290.823 267.594 290.535 267.653 290.292 267.771C290.049 267.882 289.861 268.035 289.729 268.229C289.604 268.417 289.542 268.625 289.542 268.854C289.542 269.028 289.576 269.184 289.646 269.323C289.722 269.455 289.844 269.576 290.01 269.688C290.177 269.799 290.392 269.903 290.656 270C290.927 270.09 291.26 270.174 291.656 270.25C292.469 270.417 293.194 270.635 293.833 270.906C294.472 271.17 294.979 271.531 295.354 271.99C295.729 272.441 295.917 273.035 295.917 273.771C295.917 274.271 295.805 274.729 295.583 275.146C295.361 275.563 295.042 275.927 294.625 276.24C294.208 276.545 293.708 276.785 293.125 276.958C292.549 277.125 291.899 277.208 291.177 277.208C290.128 277.208 289.239 277.021 288.51 276.646C287.788 276.271 287.239 275.795 286.865 275.219C286.496 274.635 286.312 274.038 286.312 273.427H289.156C289.17 273.837 289.274 274.167 289.469 274.417C289.67 274.667 289.924 274.847 290.229 274.958C290.542 275.069 290.878 275.125 291.239 275.125C291.628 275.125 291.951 275.073 292.208 274.969C292.465 274.858 292.66 274.712 292.792 274.531C292.93 274.344 293 274.128 293 273.885Z" fill="#005B6A"/>
</svg>
