<svg width="279" height="358" viewBox="0 0 279 358" fill="none" xmlns="http://www.w3.org/2000/svg">
<path fill-rule="evenodd" clip-rule="evenodd" d="M278.999 0.598755H118.886C117.1 0.598755 115.449 1.55176 114.556 3.09875L14.4429 176.5C13.5497 178.047 13.5497 179.953 14.4429 181.5L114.556 354.901C115.449 356.448 117.1 357.401 118.886 357.401H278.999V350.401H120.041L21.0824 179L120.041 7.59875H278.999V0.598755Z" fill="#D9BD59"/>
<g clip-path="url(#clip0_313_10418)">
<path d="M31.3908 322.294L30.5189 322.544L29.8619 321.919L30.0767 321.045L30.9486 320.795L31.6056 321.42L31.3908 322.294Z" fill="black" stroke="black" stroke-width="2"/>
<path d="M26.3984 319.455C25.7075 319.285 25.1587 318.761 24.9574 318.079L22.2802 309.004C22.0763 308.313 22.26 307.566 22.7609 307.048L29.3389 300.247C29.8336 299.736 30.5627 299.526 31.2537 299.695L40.5414 301.977C41.2324 302.147 41.7811 302.671 41.9825 303.354L44.6596 312.429C44.8635 313.12 44.6799 313.867 44.1789 314.385L37.6009 321.186C37.1063 321.697 36.3771 321.907 35.6862 321.737L26.3984 319.455Z" fill="#D9BD59" stroke="black" stroke-width="2"/>
<path d="M31.5288 298.575C30.8378 298.405 30.2891 297.881 30.0877 297.198L27.4106 288.123C27.2067 287.432 27.3903 286.685 27.8913 286.167L34.4693 279.366C34.964 278.855 35.6931 278.645 36.3841 278.815L45.6718 281.097C46.3628 281.267 46.9115 281.791 47.1128 282.473L49.79 291.548C49.9939 292.239 49.8103 292.986 49.3093 293.504L42.7313 300.305C42.2366 300.816 41.5075 301.026 40.8165 300.857L31.5288 298.575Z" fill="black" stroke="black" stroke-width="2"/>
<path d="M11.3241 304.51C10.6332 304.341 10.0844 303.816 9.88311 303.134L7.20598 294.059C7.0021 293.368 7.18574 292.621 7.6867 292.103L14.2646 285.302C14.7593 284.791 15.4885 284.581 16.1794 284.751L25.4673 287.033C26.1582 287.202 26.707 287.727 26.9083 288.409L29.5854 297.484C29.7892 298.175 29.6056 298.922 29.1046 299.44L22.5268 306.241C22.0321 306.752 21.303 306.962 20.612 306.793L11.3241 304.51Z" fill="white" stroke="black" stroke-width="2"/>
<path d="M46.8694 313.2C46.1784 313.03 45.6297 312.506 45.4284 311.823L42.7514 302.749C42.5475 302.058 42.7311 301.31 43.2321 300.792L49.8099 293.992C50.3046 293.48 51.0337 293.27 51.7247 293.44L61.0126 295.722C61.7036 295.892 62.2523 296.416 62.4537 297.098L65.1308 306.173C65.3347 306.864 65.1511 307.612 64.6501 308.13L58.0721 314.93C57.5775 315.442 56.8483 315.652 56.1574 315.482L46.8694 313.2Z" fill="white" stroke="black" stroke-width="2"/>
<path fill-rule="evenodd" clip-rule="evenodd" d="M31.0742 267.122L34.636 279.196L47.0435 282.245L55.7955 273.197L54.0199 272.76L46.53 280.504L35.8982 277.891L32.8498 267.559L31.0742 267.122Z" fill="black"/>
<path d="M26.042 302.739L43.5725 307.046" stroke="black" stroke-width="2"/>
<path d="M23.2056 312.858L41.3901 317.326" stroke="black" stroke-width="2"/>
<path d="M22.2188 307.161L45.9819 313" stroke="black" stroke-width="2"/>
<path d="M54.6347 274.274C55.4856 274.483 56.3433 273.969 56.5504 273.127C56.7575 272.284 56.2355 271.431 55.3845 271.222C54.5336 271.013 53.6759 271.527 53.4688 272.369C53.2617 273.212 53.7837 274.065 54.6347 274.274Z" fill="black"/>
<path d="M31.6039 268.615C32.4549 268.824 33.3126 268.31 33.5196 267.468C33.7267 266.625 33.2047 265.772 32.3538 265.563C31.5028 265.354 30.6451 265.868 30.4381 266.71C30.231 267.553 30.753 268.406 31.6039 268.615Z" fill="black"/>
</g>
<defs>
<clipPath id="clip0_313_10418">
<rect width="62.2075" height="56.678" fill="white" transform="translate(13.7832 261) rotate(13.8049)"/>
</clipPath>
</defs>
</svg>
