<svg width="266" height="358" viewBox="0 0 266 358" fill="none" xmlns="http://www.w3.org/2000/svg">
<path fill-rule="evenodd" clip-rule="evenodd" d="M265.999 0.598755H105.886C104.1 0.598755 102.449 1.55176 101.556 3.09875L1.44282 176.5C0.549658 178.047 0.549658 179.953 1.44282 181.5L101.556 354.901C102.449 356.448 104.1 357.401 105.886 357.401H265.999V350.401H107.041L8.08235 179L107.041 7.59875H265.999V0.598755Z" fill="#D9BD59"/>
<g clip-path="url(#clip0_323_10397)">
<path d="M104.132 122.294L103.26 122.544L102.603 121.919L102.818 121.045L103.69 120.795L104.347 121.42L104.132 122.294Z" fill="black" stroke="black" stroke-width="2"/>
<path d="M99.1396 119.455C98.4487 119.285 97.8999 118.761 97.6986 118.079L95.0214 109.004C94.8175 108.313 95.0012 107.566 95.5021 107.048L102.08 100.247C102.575 99.7357 103.304 99.5256 103.995 99.6953L113.283 101.977C113.974 102.147 114.522 102.671 114.724 103.354L117.401 112.429C117.605 113.12 117.421 113.867 116.92 114.385L110.342 121.186C109.847 121.697 109.118 121.907 108.427 121.737L99.1396 119.455Z" fill="#D9BD59" stroke="black" stroke-width="2"/>
<path d="M104.27 98.5745C103.579 98.4047 103.03 97.8806 102.829 97.1982L100.152 88.1233C99.9479 87.4322 100.132 86.6849 100.633 86.167L107.21 79.3663C107.705 78.8549 108.434 78.6448 109.125 78.8146L118.413 81.0967C119.104 81.2665 119.653 81.7906 119.854 82.473L122.531 91.5478C122.735 92.2389 122.551 92.9863 122.051 93.5042L115.473 100.305C114.978 100.816 114.249 101.026 113.558 100.857L104.27 98.5745Z" fill="black" stroke="black" stroke-width="2"/>
<path d="M84.0654 104.51C83.3744 104.341 82.8257 103.816 82.6243 103.134L79.9472 94.0593C79.7433 93.3682 79.9269 92.6208 80.4279 92.1029L87.0058 85.3022C87.5005 84.7908 88.2297 84.5807 88.9206 84.7505L98.2085 87.0327C98.8994 87.2024 99.4482 87.7265 99.6495 88.409L102.327 97.4837C102.53 98.1748 102.347 98.9222 101.846 99.4401L95.268 106.241C94.7733 106.752 94.0442 106.962 93.3532 106.792L84.0654 104.51Z" fill="white" stroke="black" stroke-width="2"/>
<path d="M119.611 113.2C118.92 113.03 118.371 112.506 118.17 111.823L115.493 102.749C115.289 102.058 115.472 101.31 115.973 100.792L122.551 93.9917C123.046 93.4802 123.775 93.2701 124.466 93.4399L133.754 95.7221C134.445 95.8919 134.994 96.416 135.195 97.0984L137.872 106.173C138.076 106.864 137.892 107.612 137.391 108.13L130.813 114.93C130.319 115.442 129.59 115.652 128.899 115.482L119.611 113.2Z" fill="white" stroke="black" stroke-width="2"/>
<path fill-rule="evenodd" clip-rule="evenodd" d="M103.815 67.1223L107.377 79.1961L119.785 82.2448L128.537 73.1966L126.761 72.7603L119.271 80.5038L108.639 77.8914L105.591 67.5585L103.815 67.1223Z" fill="black"/>
<path d="M98.7832 102.739L116.314 107.046" stroke="black" stroke-width="2"/>
<path d="M95.9468 112.858L114.131 117.326" stroke="black" stroke-width="2"/>
<path d="M94.96 107.161L118.723 113" stroke="black" stroke-width="2"/>
<path d="M127.376 74.2739C128.227 74.4829 129.085 73.9693 129.292 73.1265C129.499 72.2838 128.977 71.4311 128.126 71.222C127.275 71.0129 126.417 71.5266 126.21 72.3694C126.003 73.2121 126.525 74.0648 127.376 74.2739Z" fill="black"/>
<path d="M104.345 68.6149C105.196 68.824 106.054 68.3103 106.261 67.4676C106.468 66.6249 105.946 65.7722 105.095 65.5631C104.244 65.354 103.386 65.8677 103.179 66.7104C102.972 67.5531 103.494 68.4058 104.345 68.6149Z" fill="black"/>
</g>
<defs>
<clipPath id="clip0_323_10397">
<rect width="62.2075" height="56.678" fill="white" transform="translate(86.5244 61) rotate(13.8049)"/>
</clipPath>
</defs>
</svg>
