<?xml version="1.0" encoding="UTF-8" standalone="no"?>
<!-- Created with Inkscape (http://www.inkscape.org/) -->

<svg
   width="1602.714"
   height="741.71301"
   id="svg2"
   version="1.1"
   xml:space="preserve"
   sodipodi:docname="map_line.svg"
   inkscape:version="1.2.2 (732a01da63, 2022-12-09)"
   viewBox="0 0 1602.714 741.71301"
   xmlns:inkscape="http://www.inkscape.org/namespaces/inkscape"
   xmlns:sodipodi="http://sodipodi.sourceforge.net/DTD/sodipodi-0.dtd"
   xmlns="http://www.w3.org/2000/svg"
   xmlns:svg="http://www.w3.org/2000/svg"><sodipodi:namedview
     id="namedview168"
     pagecolor="#ffffff"
     bordercolor="#666666"
     borderopacity="1.0"
     inkscape:showpageshadow="2"
     inkscape:pageopacity="0.0"
     inkscape:pagecheckerboard="0"
     inkscape:deskcolor="#d1d1d1"
     showgrid="false"
     inkscape:zoom="4.2445251"
     inkscape:cx="543.64151"
     inkscape:cy="544.7017"
     inkscape:window-width="1920"
     inkscape:window-height="1057"
     inkscape:window-x="-8"
     inkscape:window-y="-8"
     inkscape:window-maximized="1"
     inkscape:current-layer="mx" /><defs
     id="defs4"><rect
       x="512.18922"
       y="546.11528"
       width="184.70853"
       height="71.150481"
       id="rect2260" /><rect
       x="510.77564"
       y="557.42397"
       width="104.60534"
       height="16.020638"
       id="rect2137" /><rect
       x="376.95619"
       y="633.2864"
       width="753.91238"
       height="108.42661"
       id="rect1590" /><rect
       x="273.89093"
       y="630.27692"
       width="937.53145"
       height="84.055057"
       id="rect1582" /><style
       id="style366">
.cls-1 { 
    fill-rule:evenodd;
}
</style><clipPath
       clipPathUnits="userSpaceOnUse"
       id="clipPath657"><rect
         style="opacity:1;fill:#eeffff;fill-opacity:1;stroke:none;stroke-width:1.95218;stroke-linecap:square;stroke-opacity:0.812775;paint-order:markers fill stroke"
         id="rect659"
         width="1564.4103"
         height="723.96899"
         x="27.430704"
         y="-0.30370146" /></clipPath><rect
       x="376.95619"
       y="633.2864"
       width="753.91238"
       height="108.42661"
       id="rect1688" /></defs><g
     id="map"
     style="display:inline;stroke-width:0.976089"
     transform="matrix(1.0244845,0,0,1.0245094,-28.102331,0.31114479)"><rect
       style="opacity:1;fill:#eeffff;fill-opacity:1;stroke:none;stroke-width:1.95218;stroke-linecap:square;stroke-opacity:0.812775;paint-order:markers fill stroke"
       id="water"
       width="1564.4103"
       height="723.96899"
       x="27.430704"
       y="-0.30370146" /><path
       id="world-outline"
       style="opacity:1;fill:#fbf8ee;fill-opacity:1;stroke:#d9b059;stroke-width:1.95219;stroke-linecap:square;stroke-opacity:1;paint-order:markers fill stroke"
       d="m 1019.6842,82.94761 -8.3358,1.033883 c -4.5846,0.569115 -18.7856,1.695679 -31.55761,2.502981 -24.62312,1.556405 -62.12369,5.030428 -62.92215,5.829128 -1.11731,1.11761 25.35289,2.68853 29.16687,1.731016 5.51849,-1.38547 7.4117,1.905399 2.58369,4.49 -2.52021,1.349172 -8.6861,1.705152 -18.49737,1.069334 -15.85512,-1.027511 -20.75373,0.121195 -16.2977,3.820438 4.17898,3.46925 1.19668,5.52524 -6.47299,4.46245 -5.87499,-0.81412 -6.37342,-0.68203 -2.94602,0.78377 7.21464,3.08553 1.36244,5.93901 -11.95939,5.83109 -10.65363,-0.0863 -11.50549,0.14196 -8.01493,2.13868 2.53186,1.44831 7.20575,1.93021 13.28667,1.37062 6.50577,-0.59868 10.68987,-0.096 13.64705,1.64042 2.34547,1.37724 4.26544,2.521 4.26544,2.54238 0,0.0213 4.52039,-2.25366 10.04722,-5.05717 5.52682,-2.8035 11.10769,-5.09852 12.4005,-5.09852 1.2928,0 6.6653,-2.30282 11.9397,-5.11821 5.27441,-2.8154 11.30648,-5.11821 13.40483,-5.11821 8.61909,0 29.59948,-6.044352 42.50079,-12.243138 z m 151.8269,0.864524 c -3.7227,-0.0061 -6.9771,0.275517 -9.3028,0.901938 -4.0088,1.07976 -11.1101,1.469051 -16.0141,0.878309 -5.7716,-0.695271 -16.4605,0.227321 -30.9865,2.67431 -15.5985,2.627612 -27.7405,3.604948 -40.9392,3.29464 -41.7976,-0.982713 -43.1319,-0.837867 -60.6496,6.634576 -11.3144,4.826323 -20.41414,7.402153 -30.56503,8.651123 -7.95004,0.9782 -14.85872,1.7796 -15.35243,1.78025 -0.4937,6.6e-4 -1.00677,1.89601 -1.14021,4.21037 -0.32106,5.57152 3.29575,6.64924 22.70767,6.77636 14.2551,0.0934 16.0455,0.48218 20.2086,4.36988 5.6564,5.2822 11.335,16.06178 10.124,19.21841 -0.5317,1.386 0.7777,3.12138 3.1844,4.21824 4.7551,2.16719 7.1888,10.91911 4.4564,16.02616 -0.9862,1.84331 -5.4545,5.60447 -9.931,8.35969 -9.4249,5.80086 -13.1121,11.98925 -10.2875,17.26878 1.3573,2.53686 1.3129,4.7849 -0.1674,8.35969 -3.1278,7.55332 2.0333,16.59916 12.8278,22.48743 4.691,2.55886 9.6798,4.6434 11.087,4.63181 5.1973,-0.0419 10.2233,-4.46696 18.5584,-16.33929 10.3776,-14.78125 16.1978,-18.59256 33.4206,-21.88878 8.2404,-1.5771 15.2821,-4.07392 18.5957,-6.59322 10.1621,-7.72578 17.0703,-10.47907 26.6561,-10.6224 5.1601,-0.0771 16.0936,-1.55021 24.2969,-3.27495 12.4239,-2.61213 14.5837,-3.5364 12.9282,-5.53177 -1.3914,-1.67699 -3.8942,-2.07336 -8.3437,-1.32139 -6.9911,1.18145 -11.475,-2.09729 -5.1359,-3.75546 2.8358,-0.7418 3.201,-1.45254 1.6857,-3.27889 -3.8855,-4.68313 3.398,-4.65903 10.1674,0.0335 4.9883,3.45793 7.4195,4.17352 10.4174,3.06424 l 3.911,-1.44744 -4.3265,-3.29071 c -2.3791,-1.80956 -6.8083,-4.65772 -9.8424,-6.32932 -6.4227,-3.5386 -5.5538,-5.30432 2.751,-5.59282 7.4776,-0.25973 22.5579,-7.22596 23.7455,-10.969 0.4944,-1.55804 3.1602,-4.99844 5.9236,-7.64679 3.8032,-3.6447 4.6462,-5.52293 3.4698,-7.72162 -2.727,-5.09703 7.5622,-13.078409 18.7593,-14.553142 5.1601,-0.679633 10.918,-2.365123 12.7944,-3.743636 3.079,-2.261979 2.3035,-2.394689 -7.9401,-1.374572 -9.4834,0.944389 -12.4558,0.563936 -18.0759,-2.304081 -7.1298,-3.638428 -22.5086,-6.242381 -33.6766,-6.260405 z M 893.00107,94.070219 c -4.37917,-0.640398 -10.75306,0.881366 -17.39457,4.324581 -6.07518,3.14959 -5.77211,3.83781 2.49506,5.66765 6.78746,1.50235 9.29242,1.08779 15.46666,-2.55615 5.92409,-3.49631 6.10017,-3.838704 3.08387,-6.065449 -0.95245,-0.703132 -2.1913,-1.157166 -3.65102,-1.370632 z m 496.41583,6.195421 c -0.3128,0 -0.4273,0.39711 -0.4273,1.1934 0,1.12616 -1.0979,2.04807 -2.4399,2.04806 -1.3421,0 -2.779,1.72861 -3.1941,3.84014 l -0.7563,3.83817 -1.2682,-3.83817 c -1.2551,-3.7987 -5.9866,-5.45817 -5.9866,-2.09927 0,1.14125 -5.5809,1.34767 -16.2051,0.60063 -13.9502,-0.98088 -16.2052,-0.77218 -16.2052,1.49077 0,2.67158 2.0053,3.86716 11.0003,6.56171 3.5413,1.06074 5.4135,0.88532 6.3253,-0.5908 0.9853,-1.59425 1.7718,-1.61976 3.2808,-0.11027 1.0916,1.09149 3.2341,1.58919 4.7618,1.10477 2.4008,-0.76141 2.4305,-0.63258 0.2186,0.95905 -1.4074,1.01261 -4.6708,1.85237 -7.2509,1.8669 -6.5817,0.0367 -5.7722,1.9831 2.6073,6.27418 l 7.2016,3.6885 5.5435,-6.13043 c 3.0492,-3.37202 5.5436,-6.76064 5.5436,-7.52863 0,-2.35522 6.2805,-1.54734 8.4678,1.08902 1.1338,1.3666 1.5362,3.33441 0.8941,4.37382 -0.8176,1.32323 0.6725,1.545 4.9703,0.73849 3.9686,-0.74474 6.1383,-0.50012 6.1383,0.69123 0,1.01342 1.1316,1.40923 2.5149,0.8783 2.1579,-0.82837 2.1755,-1.30552 0.1221,-3.35962 -1.3162,-1.31654 -3.1531,-2.39467 -4.0824,-2.39467 -2.5934,0 -12.1787,-5.7925 -12.1898,-7.36716 -0.01,-0.76708 1.3318,-0.99838 2.9736,-0.51595 8.0565,2.36734 15.4087,2.82057 19.6356,1.21308 8.1336,-3.09327 5.2677,-5.27378 -6.9279,-5.27379 -6.7476,0 -12.4544,-0.85703 -13.6451,-2.04806 -0.796,-0.79628 -1.308,-1.1934 -1.6207,-1.1934 z m -525.85645,19.33262 c -1.65583,-0.19756 -3.12708,0.1645 -5.13979,0.99843 -4.09431,1.69643 -7.89786,6.30399 -6.37256,7.71966 0.25663,0.2382 9.67699,1.16608 20.93532,2.06186 11.25831,0.89578 21.62138,1.71163 23.02866,1.81176 1.40728,0.10002 5.24524,-1.25393 8.52891,-3.00909 l 5.97084,-3.19224 -4.82867,-1.22294 c -2.65553,-0.67237 -10.3314,-0.82559 -17.05781,-0.34068 -9.97896,0.7194 -13.4409,0.26513 -18.81246,-2.46951 -2.75554,-1.40283 -4.5966,-2.15969 -6.25244,-2.35725 z m 745.77875,3.44234 c -0.3381,0.0413 -0.5614,-0.003 -0.9118,0.0512 -3.8852,0.60016 -12.0545,1.48896 -18.1528,1.97324 -6.0982,0.48428 -13.3905,1.92925 -16.205,3.21194 -4.9075,2.23653 -11.8527,8.8923 -11.9122,11.41604 -0.016,0.66346 -1.5638,2.36673 -3.4403,3.78498 -1.8769,1.41824 -2.7406,2.60301 -1.922,2.63296 0.8185,0.0298 0.5173,1.22423 -0.6695,2.65461 -2.5376,3.05846 -2.7169,2.86976 6.0043,6.31556 3.7528,1.48275 9.125,2.73093 11.9397,2.77277 l 5.1181,0.0769 -3.8381,-2.67825 c -5.032,-3.51121 -4.849,-7.62404 0.6302,-14.13761 5.2013,-6.18309 13.0988,-9.86251 26.2366,-12.22344 3.7459,-0.67318 4.9591,-1.06576 7.1228,-1.55183 z m -901.91045,9.01348 c -8.76219,-1.06903 -16.03254,1.14988 -27.63085,7.50107 -13.19861,7.2275 -13.82621,7.82726 -11.07518,10.57908 1.60945,1.60993 4.07516,2.43356 5.50411,1.83932 14.00796,-5.82529 31.74759,-11.7586 40.118,-13.4188 l 10.23429,-2.02839 -7.67621,-2.33952 c -3.4677,-1.05611 -6.55344,-1.77641 -9.47416,-2.13276 z m -714.0538538,0.20087 v 386.55201 c 5.8724528,2.73424 15.602437,20.14269 13.9956115,25.20704 -0.8949377,2.8204 2.8346283,8.59992 5.5494073,8.59992 0.585359,0 3.092466,-1.94329 5.571068,-4.31867 5.995226,-5.74538 9.387124,-4.10109 11.788057,5.71491 1.074612,4.39391 3.927456,12.08799 6.341055,17.09747 3.39791,7.05215 4.130971,10.51852 3.245359,15.35661 -0.629108,3.43672 -1.39871,10.08726 -1.709328,14.77959 -0.546783,8.25977 -0.340437,8.69643 6.443457,13.6886 5.531574,4.07065 7.481657,6.94385 9.259513,13.64923 4.094401,15.4428 9.003701,24.18034 16.691544,29.70296 7.436534,5.34207 11.00035,6.51571 11.00035,3.62153 0,-0.89 -1.913537,-7.67526 -4.251657,-15.07892 -3.957549,-12.53151 -4.949274,-14.0219 -14.352049,-21.5658 -5.641678,-4.5264 -10.574597,-9.99714 -11.175615,-12.39282 -0.591893,-2.35891 -2.671104,-6.44579 -4.61991,-9.0824 -3.175104,-4.29584 -3.347021,-5.65164 -1.662065,-13.05254 1.034279,-4.54232 1.703586,-10.94554 1.486798,-14.23016 -0.268834,-4.07645 0.3371,-5.97288 1.912164,-5.97289 4.473448,0 20.608519,12.9757 26.175554,21.04986 2.265233,3.28528 3.348783,3.66602 6.153973,2.16426 2.693837,-1.44207 3.623726,-1.24572 4.464338,0.94526 0.583867,1.52272 0.611884,4.18929 0.06105,5.92563 -0.55141,1.73632 -0.529292,3.92379 0.04924,4.86023 1.388646,2.24757 8.963648,-2.71525 10.228398,-6.70154 0.526679,-1.65991 3.954655,-4.3712 7.619111,-6.02409 8.04387,-3.62834 11.04242,-9.72617 9.3501,-19.01752 -1.9458,-10.68259 -10.23002,-25.36261 -17.615136,-31.21341 -8.994896,-7.12616 -14.427239,-15.98316 -12.892818,-21.01835 1.714709,-5.62695 5.96445,-9.97906 12.412318,-12.70788 7.036136,-2.97773 11.938646,-1.56356 14.076356,4.06068 l 1.63843,4.3108 3.51317,-4.46834 c 4.42639,-5.62874 9.49926,-8.39915 16.04169,-8.76141 2.81462,-0.15582 9.85156,-2.01489 15.63601,-4.1316 14.6879,-5.37465 20.30164,-12.76784 26.52019,-34.92554 5.13479,-18.29623 5.10386,-21.46537 -0.20876,-21.46537 -4.4358,0 -6.04179,-2.81305 -2.68017,-4.69481 3.60588,-2.01851 1.7964,-5.93703 -4.44662,-9.62594 -2.83856,-1.67718 -6.77236,-6.36703 -8.7416,-10.42154 -1.96934,-4.05455 -5.45988,-8.22936 -7.75497,-9.27541 -3.43887,-1.56729 -3.97832,-2.71834 -3.07208,-6.54989 1.10458,-4.66876 3.54435,-7.385 11.28197,-12.55823 l 4.1709,-2.78853 -7.48519,-2.03232 c -6.22528,-1.69018 -7.90394,-1.61592 -9.96648,0.44703 -2.16924,2.17005 -3.40046,1.9664 -9.83455,-1.63057 -4.04516,-2.26156 -8.38312,-5.35072 -9.63957,-6.86499 -1.94912,-2.34947 -1.79755,-3.02924 1.02992,-4.6377 1.82233,-1.03664 5.9482,-4.73792 9.16893,-8.2238 4.79007,-5.18461 6.43667,-6.02708 9.04289,-4.63179 1.75255,0.93816 3.18629,2.88033 3.18629,4.3167 0,1.43637 0.81218,4.13121 1.80582,5.98865 1.79122,3.34769 1.859,3.34606 7.69197,-0.25996 5.82789,-3.60289 5.93561,-3.60736 11.41193,-0.39779 3.7589,2.20302 5.52971,4.52991 5.52971,7.26869 0,2.98783 1.25905,4.3675 4.87395,5.34074 7.1789,1.93265 11.25346,6.32106 16.00427,17.2294 l 4.24574,9.74608 7.05393,-3.55852 c 3.88021,-1.95667 7.36766,-3.8385 7.74908,-4.1828 0.38133,-0.34431 -0.61475,-3.52765 -2.21345,-7.07373 -2.03363,-4.51135 -6.4672,-8.89951 -14.7656,-14.61221 -6.52293,-4.49039 -11.86091,-8.90633 -11.86091,-9.81499 0,-0.90863 1.87695,-2.50912 4.17091,-3.5546 4.96996,-2.26512 6.81027,-6.16105 4.32451,-9.15724 -1.29938,-1.56599 -0.78528,-4.11349 1.84915,-9.16907 2.00615,-3.85005 3.9028,-6.99888 4.21621,-6.99888 0.3132,0 2.6418,0.78734 5.17525,1.7507 6.62971,2.52142 11.14507,-1.10032 15.17914,-12.17815 5.82643,-15.99981 4.41129,-40.47294 -2.55611,-44.20291 -1.84151,-0.98579 -4.82543,-4.68698 -6.63054,-8.22578 -4.40607,-8.63927 -18.51703,-19.64617 -23.14287,-18.0506 -5.99721,2.0686 -13.9099,1.09342 -21.16574,-2.60932 -6.68477,-3.41135 -6.90921,-3.77631 -4.57068,-7.38684 1.35298,-2.08898 3.35137,-7.3821 4.44268,-11.76264 1.0913,-4.38051 3.88965,-9.75505 6.21897,-11.9438 3.68994,-3.46722 6.02927,-3.99703 18.17045,-4.11781 7.66433,-0.0762 15.93824,-0.70822 18.38513,-1.40411 2.84924,-0.81042 6.80734,-0.2796 11.01019,1.47698 3.82662,1.59932 8.52053,2.31173 11.26226,1.70934 4.02909,-0.88517 4.57082,-1.68508 3.79086,-5.60265 -0.50066,-2.5143 -0.0684,-6.77894 0.95902,-9.47629 1.76417,-4.63101 2.27071,-4.84065 9.08031,-3.75347 3.96616,0.63323 8.99882,2.32189 11.18547,3.75347 5.04398,3.30212 9.43065,1.84273 8.00115,-2.66248 -1.55153,-4.89024 4.60208,-7.86373 8.06023,-3.89527 5.26698,6.04408 6.21493,9.59725 3.75146,14.04898 -1.28985,2.33073 -2.3692,6.0046 -2.40449,8.16274 -0.0332,2.15815 -1.20042,6.12778 -2.59352,8.82248 -2.45725,4.75335 -2.30461,5.20184 5.1004,15.0553 4.19788,5.58602 10.51858,12.25458 14.04681,14.81898 3.52792,2.56445 9.19258,7.73661 12.58956,11.49285 4.92185,5.44258 6.94006,6.58633 9.93301,5.63613 2.68875,-0.85375 3.40918,-1.9956 2.53642,-4.02328 -0.67016,-1.55754 -1.42289,-4.7512 -1.67191,-7.09737 -0.24905,-2.34615 -0.98735,-5.60278 -1.64041,-7.23717 -0.78038,-1.95245 -0.25115,-3.33175 1.53998,-4.01934 2.44396,-0.93809 2.46196,-1.51369 0.18707,-5.55934 -1.3956,-2.48234 -3.25442,-6.52938 -4.13152,-8.99379 -0.99945,-2.80779 -4.36243,-5.81988 -9.00548,-8.06822 -8.52525,-4.12815 -14.57706,-12.42395 -11.14411,-15.2739 1.16791,-0.96968 4.42195,-2.31693 7.23116,-2.99333 2.80924,-0.67638 7.21921,-2.2939 9.7991,-3.59397 4.03344,-2.03242 5.37454,-2.00905 9.57065,0.16148 4.48391,2.31938 5.17652,2.2477 8.52892,-0.87635 2.00677,-1.87013 3.64906,-4.1183 3.64906,-4.99611 0,-2.6434 10.39141,-7.1711 14.60805,-6.36478 3.84081,0.73442 9.11924,-1.18713 7.51868,-2.73733 -0.44176,-0.42805 -7.71194,-3.47219 -16.1559,-6.76651 -15.52914,-6.05876 -18.43741,-9.18434 -7.85937,-8.44632 5.65278,0.39439 5.71675,0.32599 2.75305,-2.95002 -4.33981,-4.79667 -0.10794,-6.03105 9.421,-2.74718 4.06838,1.40213 8.05801,2.14176 8.86565,1.6424 0.80786,-0.49937 2.39347,-0.17421 3.525,0.72273 3.8488,3.0505 15.01826,5.81571 19.22403,4.7598 l 4.19061,-1.05161 -5.56123,-4.83265 c -8.95021,-7.77619 -12.75104,-9.24736 -18.61158,-7.20371 -4.28569,1.49445 -6.45503,1.12033 -13.12913,-2.26273 -4.39735,-2.22887 -12.58726,-4.6145 -18.20002,-5.30135 -5.61275,-0.68685 -13.661,-2.58583 -17.88294,-4.22022 -8.10836,-3.13889 -32.05904,-7.50983 -52.02618,-9.49398 -11.91579,-1.18408 -11.93367,-1.17956 -8.844,2.28044 4.29554,4.81006 1.13893,6.05524 -6.75263,2.6625 -4.88868,-2.10179 -12.27266,-2.88383 -28.75332,-3.04454 -17.91423,-0.1747 -23.29964,-0.81514 -28.0247,-3.33403 -4.6549,-2.48161 -10.79807,-3.25484 -30.09441,-3.78499 -20.33654,-0.55872 -25.58207,-1.2661 -32.53237,-4.39548 -4.55753,-2.052 -10.972,-3.92538 -14.255554,-4.16113 -3.283755,-0.23575 -10.86496,-1.30355 -16.845144,-2.37498 -13.056955,-2.33928 -23.682313,-0.9986 -20.687196,2.61129 1.54883,1.86672 0.895263,2.89903 -3.162648,4.99808 -4.14791,2.14553 -6.829512,2.31626 -14.194508,0.90785 -7.409582,-1.41696 -10.210523,-1.22689 -15.234283,1.02601 -6.001952,2.69154 -6.380139,2.63809 -15.033418,-2.08351 C 8.5700034,139.30982 1.3917321,135.40234 -2.5014386,133.29081 -3.5796778,132.706 -5.3533558,132.71 -6.6250978,132.25495 Z m 819.5240938,1.97522 c -4.32893,0.0312 -15.18563,4.14559 -16.36465,6.20132 -0.99134,1.72853 -3.21342,2.14553 -7.67622,1.4435 l -6.28198,-0.98663 4.69081,2.69205 c 2.58003,1.48129 4.69081,3.43776 4.69081,4.34624 0,5.12399 16.19569,-1.96857 19.61984,-8.59206 1.45387,-2.81218 2.04911,-5.11047 1.32139,-5.10442 z m 20.28743,0.6026 c -7.57111,0.95781 -16.50204,5.14494 -14.66911,8.11155 0.59387,0.96122 2.34433,1.20668 3.89129,0.54747 1.54693,-0.65925 6.11251,-1.74574 10.14568,-2.41634 9.01343,-1.49872 12.46756,-4.31854 7.30009,-5.95911 -1.77258,-0.56275 -4.14425,-0.60284 -6.66795,-0.28357 z m 36.38622,0.65971 -6.82353,1.21309 c -8.58162,1.52744 -23.02865,11.81912 -23.02865,16.40428 0,2.49598 10.06802,5.18505 15.56316,4.15718 3.16763,-0.5925 9.42736,-0.25278 13.91092,0.75425 6.66161,1.49624 9.09422,1.3428 13.30439,-0.83498 4.81572,-2.49104 5.5277,-2.43244 10.91174,0.89603 3.16804,1.95853 7.76996,6.98825 10.22446,11.17775 2.45448,4.18948 5.05064,7.61725 5.76997,7.61725 0.71933,0 2.79679,1.0945 4.61793,2.43209 3.18381,2.33841 3.11748,2.50702 -1.75659,4.3679 -3.62277,1.38318 -6.20237,1.41885 -9.03895,0.12603 -4.60787,-2.10009 -12.89384,1.28248 -14.70456,6.00244 -0.90117,2.34909 -2.61837,2.62401 -10.34653,1.65814 -10.16163,-1.26996 -19.28516,1.5127 -14.2339,4.34034 1.45984,0.81722 5.1101,0.72656 8.36349,-0.20677 9.61042,-2.75703 12.89141,-2.04189 16.4513,3.58215 1.82346,2.8808 6.31304,7.07907 9.97633,9.33055 6.60993,4.0625 15.04924,5.48025 16.70138,2.80625 0.47346,-0.76626 -1.41247,-2.73699 -4.19257,-4.37972 -8.8736,-5.24328 -2.46822,-8.48093 7.04407,-3.56049 4.83869,2.50289 5.12223,2.44315 6.90428,-1.46911 1.44615,-3.17493 1.25177,-5.25343 -0.87633,-9.36992 -2.59308,-5.01587 -2.55963,-5.38469 0.66167,-7.10919 2.63241,-1.40923 4.91844,-1.04385 10.14766,1.62469 7.51673,3.83586 10.19756,3.44307 13.59389,-1.99688 2.477,-3.96751 2.72774,-3.63045 -8.71995,-11.81973 -2.73592,-1.9572 -3.89916,-4.50022 -3.89916,-8.53101 0,-5.37521 -0.5329,-5.91147 -8.32411,-8.37742 -4.8886,-1.54722 -9.90163,-4.61408 -12.14645,-7.43016 -3.24543,-4.07134 -4.35291,-4.51052 -7.34144,-2.91063 -4.96292,2.65683 -5.64237,2.50068 -14.44265,-3.33008 -6.61418,-4.38233 -8.86985,-5.02753 -14.1374,-4.03904 -3.44738,0.64692 -8.80315,3.40266 -11.90227,6.12453 -7.30595,6.41655 -9.83753,3.11741 -3.10949,-4.05283 z m -104.27685,3.81256 c -2.00246,-0.49677 -6.37166,1.33098 -9.19059,4.33247 -4.06003,4.32294 -7.46145,4.8013 -7.8574,1.10478 -0.11727,-1.09488 -0.31012,-2.84691 -0.42732,-3.89331 -0.13632,-1.21635 -1.702,-0.92569 -4.34027,0.80348 -3.73059,2.44515 -4.96629,2.45489 -12.87905,0.10437 -9.63755,-2.86288 -20.51592,-2.0206 -30.72851,2.38088 -5.89279,2.5397 -5.92221,2.60461 -1.73295,3.6629 5.81751,1.46963 5.36939,4.16539 -0.85271,5.12806 -3.71612,0.57495 -2.31611,1.04128 5.11617,1.70542 5.62916,0.50301 10.23628,1.68268 10.23628,2.62114 0,0.93846 -5.33093,2.09087 -11.84517,2.56009 l -11.84319,0.85269 8.43242,3.78697 c 4.63786,2.08218 10.3504,4.08771 12.69588,4.4585 8.34667,1.31953 10.04853,1.09766 18.11534,-2.36119 7.14208,-3.06235 9.17591,-3.25669 16.26421,-1.55575 7.3104,1.75425 8.98276,1.54164 17.13857,-2.18198 l 9.03895,-4.12569 -5.50609,-2.87321 -5.50411,-2.87321 3.36549,-5.52191 c 1.85124,-3.0371 3.37033,-6.09812 3.37336,-6.80196 0.004,-0.72507 -0.40183,-1.14794 -1.06931,-1.31354 z m 48.76309,11.07142 c -1.82849,0.45236 -4.35923,1.50159 -7.84952,3.21389 -9.35981,4.59181 -9.51584,4.78375 -5.95507,7.27853 5.0352,3.52783 2.19114,8.50626 -6.19336,10.84298 -3.50227,0.97606 -8.25738,3.2414 -10.56908,5.03352 -4.14224,3.21118 -4.27216,3.20836 -8.94246,-0.11815 -3.69938,-2.63495 -6.33274,-3.14488 -12.00271,-2.32574 -4.45287,0.64334 -10.39872,0.09 -15.36622,-1.4317 -7.0371,-2.15576 -9.1632,-2.16438 -16.16969,-0.0551 -4.63588,1.39559 -9.62004,4.37598 -11.71716,7.00676 l -3.64905,4.57862 -2.81016,-5.43723 c -2.79251,-5.40168 -2.88035,-5.43265 -12.8948,-4.38563 -5.54519,0.57974 -11.4802,0.51315 -13.19018,-0.14966 -2.97036,-1.15139 -2.96261,-1.31437 0.20087,-3.64322 3.22604,-2.37496 3.21543,-2.43798 -0.47853,-2.43798 -2.0853,0 -8.56521,-1.61485 -14.39931,-3.58807 -7.66256,-2.5917 -12.91273,-3.31665 -18.90697,-2.61524 -5.68166,0.66485 -9.8528,0.16541 -13.2335,-1.58331 -3.74178,-1.93552 -5.77636,-2.10503 -8.39895,-0.70107 -1.90336,1.01894 -4.9045,1.39348 -6.66992,0.83301 -1.76544,-0.5605 -9.34823,0.54937 -16.85106,2.46557 -16.99097,4.33943 -26.89791,4.3905 -42.10695,0.21661 -6.54848,-1.79713 -16.51135,-3.77924 -22.14053,-4.40335 -5.62916,-0.6241 -16.96222,-2.25017 -25.18303,-3.61367 -13.3334,-2.21146 -17.09839,-2.18202 -34.87974,0.27767 -10.96322,1.51655 -24.86173,4.61451 -30.88604,6.88272 -6.02433,2.26821 -13.04954,4.12371 -15.6124,4.12371 -5.13467,0 -15.40363,3.16485 -15.40363,4.74797 0,0.55157 1.61285,2.72 3.58407,4.81889 l 3.58211,3.81651 -5.44307,2.8161 c -3.76781,1.94898 -7.44008,2.48056 -11.92196,1.72313 -7.08292,-1.19699 -17.86361,1.09507 -23.07593,4.9075 -3.11508,2.27848 -2.86628,2.5472 4.09805,4.42305 5.73072,1.54362 8.55055,1.52649 12.42019,-0.0769 8.17418,-3.38681 9.47585,0.51501 1.89445,5.6775 -4.29935,2.92758 -10.68607,5.03653 -19.08618,6.30374 -15.63345,2.35844 -22.88956,6.21175 -21.57337,11.45738 1.35901,5.41629 -0.50093,8.87826 -6.41589,11.9379 l -5.23431,2.70582 4.81092,2.52267 c 3.74006,1.96018 5.7368,2.09751 8.97792,0.62034 4.40215,-2.00634 8.06864,-1.02502 6.38042,1.70738 -1.37073,2.21853 -16.19053,9.66739 -30.61232,15.38811 -8.48588,3.36612 -10.64309,4.76572 -7.45369,4.83661 4.94192,0.10987 22.80946,-6.22665 35.28146,-12.51294 4.39702,-2.21624 10.68044,-4.60876 13.96411,-5.31711 3.2837,-0.70834 11.81055,-4.34335 18.94833,-8.07808 10.57598,-5.53368 13.60908,-6.45439 16.38827,-4.96657 3.7052,1.98353 12.79409,0.18429 21.37251,-4.23202 4.13939,-2.13107 6.24443,-2.01015 18.1941,1.04176 7.43263,1.89826 14.84933,3.45218 16.48083,3.45218 1.63153,0 5.39089,1.84947 8.35364,4.10993 2.96274,2.26046 8.18954,5.27982 11.61478,6.71137 6.35029,2.65408 8.21912,6.22785 7.72544,14.77172 -0.30911,5.34938 0.68682,9.02126 2.88695,10.63817 0.98069,0.72069 0.52596,1.26471 -1.07127,1.28004 -3.86717,0.0364 -7.43349,9.08348 -5.17329,13.12343 1.28614,2.29885 1.05813,3.8629 -0.87041,5.99454 -2.38039,2.63104 -1.9204,3.55464 5.23826,10.51409 4.31607,4.19597 7.84754,8.78385 7.84754,10.19704 0,1.41322 0.71205,2.82625 1.5833,3.13907 0.87127,0.31282 -0.50774,3.64086 -3.06616,7.39471 -4.34035,6.36843 -8.20547,7.87394 -7.66244,2.98547 0.13031,-1.17307 -1.40408,-2.11854 -3.41077,-2.10321 -2.78541,0.0223 -4.61715,2.26495 -7.74121,9.48218 -2.25069,5.19951 -7.44386,13.18228 -11.53992,17.73946 -4.09608,4.55712 -8.65918,11.23232 -10.13978,14.83277 -1.48059,3.60044 -4.62234,8.59444 -6.98304,11.09897 -2.3607,2.50452 -3.81508,5.32588 -3.23158,6.27026 0.58352,0.9444 0.17538,3.66378 -0.90783,6.04181 -1.59534,3.50241 -1.44197,5.13041 0.81135,8.57039 1.52995,2.33568 2.0868,4.67539 1.23669,5.20092 -0.88433,0.54667 -0.94375,3.32392 -0.13785,6.48885 0.77474,3.04263 1.8818,8.32607 2.45962,11.74097 0.81668,4.82665 2.19887,6.68316 6.20714,8.34392 6.9423,2.87643 10.66582,10.39175 9.26346,18.69456 -0.85787,5.07915 -0.13292,8.39294 3.33201,15.23256 3.4119,6.73504 4.02762,9.48786 2.68412,11.99894 -2.30387,4.30605 -0.97654,7.29955 5.29536,11.93789 4.13541,3.05896 4.96595,4.6778 4.12168,8.04263 -0.79069,3.1514 0.28465,5.90843 4.26348,10.93356 6.74609,8.5201 9.50834,8.66752 5.23039,0.27964 -1.8061,-3.54128 -3.84917,-10.21511 -4.54115,-14.83081 -0.69196,-4.6157 -3.41158,-13.04267 -6.04172,-18.72804 -6.47231,-13.99073 -7.30288,-18.21373 -4.37572,-22.21371 2.07836,-2.84006 3.09328,-3.05254 6.7231,-1.39821 3.42429,1.56066 4.5049,3.62655 5.43321,10.37821 0.72417,5.26689 3.64018,12.46434 7.77074,19.18296 3.63599,5.91413 6.19806,11.42206 5.69317,12.23921 -0.5049,0.81717 2.05638,4.71418 5.69316,8.66098 3.63678,3.9468 8.39393,10.85766 10.57106,15.35661 3.45856,7.14696 3.72878,9.08615 2.13862,15.35266 -1.73581,6.84053 -1.56755,7.4397 3.64906,12.95799 3.36448,3.55905 14.2273,10.0297 28.2236,16.81389 l 22.75296,11.03005 7.41627,-2.83382 c 6.73115,-2.57141 7.88796,-2.58914 12.50881,-0.19891 2.80014,1.44842 6.80582,5.04327 8.90308,7.98945 2.19698,3.08627 7.69801,7.07578 12.9775,9.4113 10.09886,4.46749 14.25939,5.0009 17.06964,2.18986 1.3466,-1.34699 2.40386,-0.2227 3.81645,4.05872 1.07479,3.25755 3.46021,7.28583 5.30128,8.95245 1.84106,1.66663 3.34776,4.8017 3.34776,6.96541 0,2.16372 0.95998,4.69398 2.13272,5.62235 1.17274,0.92836 5.29458,4.41352 9.16106,7.74526 3.86647,3.33171 7.87291,6.05757 8.90308,6.05757 1.0301,0 5.00014,1.63071 8.82233,3.62352 7.13663,3.72086 9.30224,3.35745 9.34025,-1.56561 0.0317,-4.10559 8.23169,-6.55173 13.6628,-4.07644 3.72642,1.69837 4.11859,2.52515 2.56793,5.42345 -1.00641,1.881 -1.16338,3.42068 -0.34856,3.42068 0.81482,0 1.56276,0.95965 1.66207,2.13274 0.0992,1.17307 1.039,5.57901 2.08939,9.79137 2.75629,11.05359 -0.15824,20.62128 -10.10827,33.18074 -14.97073,18.89685 -18.47812,30.04785 -10.13781,32.22958 3.3943,0.88789 3.33505,1.1853 -1.68766,8.48768 -4.63212,6.73441 -5.02251,8.23118 -3.54273,13.5921 0.91461,3.31334 3.56145,7.26987 5.88222,8.79097 2.22709,1.45958 4.96746,5.15419 7.61715,9.87209 h 313.63994 c 0.7112,-3.68832 1.1335,-7.37099 0.1988,-10.84297 -1.5634,-5.8078 -2.5,-6.57168 -11.1204,-9.07846 -6.4202,-1.86694 -11.53146,-4.85652 -16.07514,-9.40144 -6.12014,-6.12189 -7.7908,-6.81931 -20.54738,-8.56646 -11.99247,-1.64239 -14.45219,-1.53006 -18.03656,0.81923 -4.50976,2.95578 -6.0423,1.51446 -5.31309,-4.99219 0.26225,-2.34022 -1.82147,-4.55312 -7.02242,-7.4597 -8.00021,-4.47079 -10.1173,-4.12018 -19.12359,3.15876 -3.45811,2.79496 -5.19646,3.16838 -8.52892,1.83736 -2.42607,-0.96897 -3.05656,-1.71774 -1.49862,-1.78026 1.47826,-0.0595 4.39895,-1.9299 6.49071,-4.15719 3.51234,-3.73976 3.59058,-4.26226 1.02796,-6.82559 -4.21248,-4.2137 -7.01855,-3.42656 -15.42727,4.32655 -5.78155,5.33081 -8.18852,6.61506 -9.65337,5.14972 -1.46481,-1.46523 -0.22248,-3.59817 4.98423,-8.55267 8.14948,-7.75463 11.87821,-13.88253 9.38949,-15.4334 -0.93799,-0.58451 -2.61672,-4.51666 -3.7298,-8.73976 -3.73754,-14.18016 -19.71924,-25.86502 -31.3764,-22.93841 -5.66719,1.42278 -18.55529,-4.48064 -22.58951,-10.34867 -8.47241,-12.32366 -31.02043,-26.03988 -39.36573,-23.94473 -5.48016,1.3758 -24.60305,-3.79732 -28.18422,-7.62513 -4.88424,-5.22054 -9.26299,-5.6511 -14.92314,-1.46516 -5.45176,4.03182 -6.33287,6.46866 -3.40289,9.39947 1.22798,1.22834 0.7742,3.00785 -1.47302,5.78384 -3.15619,3.8989 -3.29508,3.91728 -5.02953,0.67547 -2.08314,-3.89352 -0.23472,-16.4219 2.99724,-20.31727 3.85123,-4.64181 -4.02845,-3.09076 -8.50331,1.67391 -2.20347,2.34613 -5.60084,4.28411 -7.54822,4.30488 -4.66144,0.0499 -10.20981,4.66197 -13.50329,11.22501 -1.46062,2.91066 -4.44591,6.46642 -6.63448,7.90084 -3.68731,2.41671 -4.35092,2.31166 -9.04289,-1.44349 -5.86784,-4.6963 -10.45631,-5.07111 -18.90501,-1.54 -5.3168,2.22201 -6.64271,2.22719 -10.86841,0.0414 -2.64702,-1.36921 -6.48925,-5.20404 -8.53876,-8.52115 -3.66645,-5.93415 -3.68512,-6.29399 -1.13824,-22.39687 1.42369,-9.00129 2.19956,-17.38169 1.72311,-18.62367 -1.22222,-3.18599 -11.68668,-4.45382 -23.13303,-2.80231 -12.56366,1.81272 -13.09142,0.39317 -5.75814,-15.48855 10.68748,-23.14594 11.52627,-25.63936 9.13939,-27.15468 -2.89264,-1.83635 -6.03718,-1.75949 -13.56828,0.33281 -5.00396,1.39022 -6.67588,2.9437 -8.22565,7.64088 -2.44026,7.39628 -9.07781,12.20146 -20.13186,14.57282 -14.66323,3.14559 -21.70223,-2.69971 -26.76043,-22.22551 l -2.75304,-10.62832 5.3899,-16.46334 c 2.96449,-9.05525 6.11115,-18.43363 6.99091,-20.83915 1.01103,-2.76446 4.8674,-6.05665 10.48046,-8.95047 4.88426,-2.5181 11.55367,-6.11705 14.82271,-7.99732 7.00879,-4.03129 10.50288,-4.25417 16.74273,-1.0654 2.53345,1.29466 6.965,2.86175 9.84637,3.48173 4.45455,0.95847 5.52177,0.50428 7.13466,-3.03667 1.08412,-2.38006 4.39536,-4.98905 7.72743,-6.08907 4.91494,-1.62255 7.11157,-1.37625 13.99561,1.57544 4.49312,1.92655 9.65918,3.02804 11.48676,2.44784 2.1891,-0.69499 4.76593,0.30046 7.55609,2.92244 3.46176,3.25312 4.03809,5.01453 3.1666,9.66139 -1.25472,6.69003 3.22248,21.75602 6.8826,23.16094 1.54367,0.59252 3.39995,-0.87838 4.99013,-3.95436 2.12947,-4.11909 2.22464,-7.26457 0.60653,-19.80328 -1.7345,-13.44052 -1.61595,-15.47806 1.19929,-20.7072 3.18879,-5.92294 18.92776,-18.20692 29.98807,-23.40513 10.78773,-5.07008 15.70627,-11.68993 15.89594,-21.39644 0.18514,-9.47366 3.40121,-14.90628 5.53564,-9.35024 1.13909,2.96512 1.35086,2.87425 2.26072,-0.97481 0.55209,-2.33562 3.65645,-5.92142 6.90032,-7.96779 3.24388,-2.04639 7.87895,-5.73846 10.2993,-8.20411 2.42033,-2.46566 7.79464,-5.51429 11.94165,-6.77635 13.00009,-3.9563 16.69678,-6.29113 17.78055,-11.22699 0.88176,-4.01565 3.52358,-5.77894 18.6687,-12.45189 9.70304,-4.27517 20.3213,-8.27493 23.5958,-8.88941 8.40653,-1.57754 9.65371,1.88552 1.85309,5.14577 -8.77069,3.66568 -11.62035,6.1709 -8.9208,7.83979 1.17344,0.72544 5.54193,-0.43596 9.88968,-2.62704 4.28308,-2.15847 10.1052,-4.42359 12.93812,-5.03551 2.83293,-0.61194 7.43807,-2.69223 10.23429,-4.62194 l 5.08467,-3.50733 -6.61282,1.11463 c -8.36634,1.41208 -15.36024,-1.41636 -18.03853,-7.29626 -1.78589,-3.92072 -1.62015,-4.8968 1.23277,-7.20764 1.81474,-1.46989 4.20811,-4.36892 5.31704,-6.44158 1.91472,-3.57876 1.69089,-3.76827 -4.44071,-3.76727 -3.58977,7.6e-4 -11.12775,2.21132 -16.97512,4.97839 -9.92414,4.69629 -12.51078,5.00367 -12.51078,1.48288 0,-0.8256 6.71789,-4.72257 14.92707,-8.65902 13.98667,-6.70682 15.89127,-7.16504 30.27754,-7.29231 19.48264,-0.17239 26.13493,-1.56362 41.06129,-8.58812 13.72282,-6.45811 18.02148,-12.0569 12.85147,-16.73708 -3.4975,-3.16612 -9.16757,-3.51272 -14.12165,-0.86059 -4.98835,2.67046 -7.90432,-0.70516 -3.35958,-3.88937 3.4539,-2.41988 3.45447,-2.42604 -0.47853,-9.35221 -2.74543,-4.83482 -3.46877,-7.76629 -2.38873,-9.69683 0.95796,-1.7122 0.87378,-4.03019 -0.22253,-6.07923 -0.97445,-1.82137 -1.3641,-4.37713 -0.86451,-5.67946 0.49962,-1.30233 0.28255,-4.05988 -0.48246,-6.12846 l -1.39031,-3.76137 -5.91962,4.43093 c -3.25622,2.43718 -8.6997,5.87237 -12.09528,7.63301 l -6.17366,3.20011 -3.781,-4.02525 c -3.14952,-3.35346 -3.45486,-4.63394 -1.83339,-7.66452 1.07051,-2.0009 1.51197,-5.00743 0.98069,-6.68183 -1.29424,-4.07898 -12.01065,-9.83192 -21.07119,-11.31363 -10.21662,-1.67079 -16.27472,1.22661 -20.04522,9.59049 -1.68683,3.7418 -5.30007,8.39528 -8.02873,10.33882 -4.32989,3.08407 -4.82256,4.27032 -3.87355,9.33055 1.45697,7.76852 -4.01065,14.68712 -17.15826,21.71153 -8.90856,4.75957 -10.32268,6.27857 -13.4265,14.42513 -3.25643,8.54713 -8.49682,13.70805 -14.08619,13.86979 -1.14865,0.0333 -3.26268,-2.20843 -4.69671,-4.98233 -2.3927,-4.62832 -2.32938,-5.74687 0.75817,-13.58227 3.60891,-9.15851 3.54046,-9.3368 -4.20834,-11.02611 -2.81457,-0.61359 -9.72327,-3.38514 -15.35243,-6.15801 -5.62915,-2.77284 -12.37225,-5.46954 -14.98419,-5.99258 -3.00775,-0.60231 -5.49515,-2.65269 -6.78611,-5.59477 -1.1211,-2.5549 -3.0139,-5.25985 -4.20636,-6.01031 -6.3642,-4.00521 11.2136,-19.28239 31.93567,-27.75531 6.39521,-2.61492 9.37354,-4.79538 9.38161,-6.86696 0.009,-2.42092 1.56558,-3.0858 7.68803,-3.28479 4.22187,-0.13723 11.02344,-1.19986 15.11416,-2.36119 l 7.43794,-2.1111 -3.72783,-3.96814 c -4.36731,-4.65013 -2.24824,-6.95956 3.84008,-4.18476 3.26563,1.48837 5.28451,1.3087 9.42494,-0.83301 2.99117,-1.54724 9.41068,-2.72552 14.8483,-2.72552 11.25069,0 15.08307,-1.67998 22.57376,-9.89573 6.28565,-6.8941 6.64126,-8.0863 2.8456,-9.54323 -5.87716,-2.25596 -12.14828,-0.94202 -16.19529,3.39507 -9.95433,10.66778 -24.6582,13.50615 -18.09958,3.49355 2.3741,-3.62439 2.40907,-4.32647 0.25404,-5.15367 -1.37203,-0.52655 -3.58786,-0.53814 -4.92319,-0.0256 -3.71452,1.42583 -6.6785,-5.30268 -4.29693,-9.75394 1.3973,-2.6116 1.41181,-4.10775 0.0512,-5.46875 -0.6803,-0.68051 -1.80679,-0.82654 -3.63527,-0.37416 z m 603.07752,5.09457 c -9.2146,0.23577 -16.4168,1.49113 -22.1759,3.86574 -4.6912,1.93415 -12.1762,4.81567 -16.6325,6.40417 -4.4564,1.58848 -8.1016,3.64911 -8.1016,4.57862 0,0.92953 -3.1476,4.51327 -6.9948,7.96385 -3.8474,3.45057 -7.9972,8.20694 -9.2222,10.57121 -2.7537,5.31508 -18.9118,16.64387 -26.8786,18.84422 -7.9377,2.19238 -15.5772,9.35877 -14.0488,13.18054 0.6426,1.60672 1.3395,5.11436 1.5479,7.79449 0.4195,5.39361 6.6862,11.24393 12.0993,11.29393 1.8763,0.0173 6.0735,-1.59343 9.3283,-3.57821 l 5.9178,-3.60776 4.6671,5.59281 c 2.5669,3.07579 5.129,7.693 5.6932,10.26202 0.5641,2.56902 2.5809,6.07945 4.482,7.8004 3.3584,3.04012 3.6351,3.02528 9.7124,-0.48444 4.311,-2.4896 7.0752,-5.79968 8.8933,-10.65195 1.4507,-3.87232 4.5214,-8.33005 6.8235,-9.90558 7.4846,-5.12262 8.5192,-8.24039 3.2867,-9.90164 -1.9015,-0.60364 -4.6377,-2.90096 -6.081,-5.10443 -2.3509,-3.58853 -2.3548,-4.52722 -0.035,-9.01349 1.4241,-2.75472 4.8642,-5.95243 7.6466,-7.10523 2.7824,-1.15281 8.4815,-5.8685 12.6625,-10.47865 7.9122,-8.7246 11.314,-10.08432 14.7774,-5.90987 2.3392,2.81924 0.8382,6.46711 -7.3729,17.91472 -6.3795,8.89372 -5.2837,13.8021 4.0172,17.99743 5.9885,2.70122 8.0393,2.84206 15.8527,1.09297 8.8101,-1.97219 19.2087,-1.1656 20.9314,1.6227 1.9673,3.18398 -9.3232,6.72407 -18.3832,5.76415 -4.9506,-0.52451 -10.1335,-0.19076 -11.5163,0.74242 -2.1318,1.43873 -1.8858,2.36391 1.6108,6.08711 3.6345,3.86989 3.8246,4.69 1.607,6.90831 -2.0947,2.09521 -3.4494,2.16339 -8.0838,0.41356 -6.8109,-2.57159 -9.3954,0.0937 -7.9835,8.2297 0.9524,5.48898 -1.1734,8.48023 -8.8459,12.44597 -2.7027,1.39689 -4.8579,1.42423 -7.7669,0.0985 -3.162,-1.44113 -5.9787,-1.09274 -13.1232,1.62271 -8.1544,3.09931 -9.5858,3.20285 -13.8282,1.00829 -3.7581,-1.94392 -5.8774,-2.04727 -10.2914,-0.50808 -5.1539,1.79719 -5.8441,1.58065 -9.4605,-2.95592 -2.1452,-2.69123 -3.5093,-5.2854 -3.0306,-5.76415 0.4786,-0.47872 1.5006,0.15016 2.2705,1.39624 1.0263,1.661 1.7242,1.73867 2.6171,0.29342 0.8658,-1.40097 1.8495,-1.44601 3.3991,-0.15951 2.8056,2.3291 6.8695,-2.15249 5.4075,-5.96304 -0.8529,-2.22328 -1.6465,-2.3097 -4.8817,-0.53172 -2.1249,1.16764 -5.2147,2.34888 -6.8668,2.62509 -2.6075,0.43584 -2.8568,-0.42469 -1.8826,-6.51839 l 1.1224,-7.02055 -4.3718,2.86532 c -2.4044,1.57597 -4.8193,4.03098 -5.3662,5.45694 -1.1547,3.0097 0.5776,11.27306 2.6506,12.64488 3.3353,2.20713 -3.7682,8.01824 -10.8331,8.86184 -5.7024,0.68094 -9.1923,2.62394 -15.8427,8.82051 -4.691,4.37087 -10.2169,8.3775 -12.2784,8.9032 -2.0615,0.52569 -4.9464,2.78639 -6.412,5.02369 -3.0324,4.62949 -12.1631,9.89374 -14.5745,8.403 -0.8842,-0.54659 -3.665,0.35461 -6.1796,2.00278 -2.5149,1.64821 -7.2681,3.02329 -10.5631,3.05636 -8.6485,0.0869 -8.4623,3.35563 0.3839,6.735 6.0148,2.29774 8.0301,4.1142 9.4959,8.55662 2.2472,6.81115 0.5864,18.95979 -3.0957,22.64301 -2.6799,2.68072 -14.1132,2.51484 -33.6588,-0.48839 -8.4646,-1.30062 -13.5245,2.49668 -11.9082,8.93866 0.5563,2.21668 -0.126,8.93808 -1.5163,14.93517 -3.2527,14.02871 -2.5195,23.8764 1.8295,24.54929 8.277,1.28072 10.6385,2.30755 14.7399,6.41007 4.3716,4.37298 4.4287,4.37946 6.2978,0.88619 1.4271,-2.66744 3.5585,-3.52504 8.7612,-3.52504 3.7814,0 8.5513,-0.86102 10.6006,-1.91416 6.4368,-3.30788 13.1053,-10.52394 13.1155,-14.18684 0.01,-3.82986 5.9598,-14.61216 8.07,-14.61417 0.7174,-10e-4 3.5363,-1.92051 6.2623,-4.26552 2.726,-2.34503 6.0011,-4.26353 7.2803,-4.26353 1.608,0 2.0077,-1.27336 1.2919,-4.12569 -1.3709,-5.46353 4.0419,-8.46458 12.6447,-7.0107 6.4757,1.09435 12.6653,-0.79857 20.9216,-6.39826 5.4805,-3.71722 9.349,-2.41848 12.8258,4.30686 3.2537,6.29407 15.6741,18.34599 18.9069,18.34599 8.8195,0 19.4563,11.5911 18.0405,19.65953 l -0.8921,5.08277 3.919,-3.76727 c 3.3735,-3.24235 3.6481,-4.36298 1.9711,-8.0446 -2.3873,-5.24202 -0.4871,-6.77576 6.4927,-5.24227 7.8293,1.72005 6.0696,-0.31251 -5.1989,-6.00242 -10.6275,-5.36631 -32.3689,-25.40862 -32.3689,-29.83885 0,-1.34221 1.4897,-3.23757 3.3104,-4.21234 2.6135,-1.39908 3.7861,-1.0918 5.571,1.45729 1.2436,1.77603 5.0266,4.38486 8.4068,5.79763 3.3803,1.41275 7.2195,4.1019 8.5309,5.97486 1.3116,1.8729 5.6496,4.38325 9.6397,5.57902 7.6779,2.30105 14.0093,9.83206 14.0093,16.66421 0,8.75522 5.6364,14.32599 16.2052,16.01632 4.6324,0.74093 4.3249,3.78235 -0.451,4.46048 -3.7843,0.53731 -3.8033,0.64915 -0.9433,5.49236 4.1027,6.94719 6.8022,7.3792 9.7065,1.55575 2.3178,-4.64754 2.2036,-5.60291 -1.5123,-12.59366 -3.4303,-6.45347 -3.6651,-7.86221 -1.5951,-9.58065 1.3346,-1.10791 3.5886,-1.56879 5.0079,-1.02404 1.4191,0.54478 2.5797,0.27338 2.5797,-0.60261 0,-2.9805 6.3133,-5.03219 11.2957,-3.67077 2.6998,0.73774 8.3237,0.638 12.4951,-0.22253 l 7.5836,-1.56363 -4.1334,-3.11937 c -3.9839,-3.00585 -4.054,-3.41869 -1.9379,-11.35105 4.5083,-16.89973 20.0094,-34.03715 24.8956,-27.52293 1.0061,1.34149 3.2582,2.97655 5.0059,3.63335 2.5259,0.94941 2.7655,1.69159 1.1657,3.61958 -1.6114,1.94227 -1.1672,2.97821 2.2332,5.20682 3.9766,2.60635 4.6598,2.56425 10.7759,-0.66365 5.0372,-2.65852 5.7005,-3.46283 2.9008,-3.52111 -1.9961,-0.0415 -4.5668,-1.20456 -5.711,-2.58372 -1.7471,-2.10551 -0.577,-3.17249 7.2981,-6.65623 13.5655,-6.00105 16.317,-6.71414 15.9255,-4.12963 -0.1837,1.21177 -0.9638,3.2151 -1.7349,4.45061 -0.7713,1.23552 -0.9726,2.67633 -0.447,3.20209 0.5257,0.52578 -0.1197,3.03552 -1.4336,5.57707 l -2.3887,4.61997 12.7509,7.25687 c 7.0128,3.99118 13.9285,9.05472 15.3682,11.25259 2.3629,3.60733 2.3482,4.40678 -0.1417,8.20803 -4.7861,7.30649 -16.6775,7.70033 -30.0668,0.99648 -9.9291,-4.97132 -22.7249,-6.00383 -28.3615,-2.28834 -2.5965,1.71147 -7.4785,3.25749 -10.8487,3.43643 -4.0456,0.21477 -7.6571,1.85492 -10.6262,4.82479 -3.1548,3.15587 -5.6538,4.22566 -8.3714,3.58609 -2.1307,-0.50141 -5.0263,-0.15726 -6.4335,0.7641 -2.1781,1.42594 -1.9871,2.07775 1.28,4.37972 2.1107,1.48736 3.838,4.15984 3.838,5.93941 0,4.64003 3.1749,10.95903 6.5735,13.08206 4.7306,2.95517 13.4526,4.3548 14.6868,2.35725 1.6598,-2.6864 7.4158,-2.1877 13.0247,1.12645 4.3254,2.5559 5.6695,2.63984 10.4982,0.65774 10.1816,-4.17944 14.4363,-4.26959 16.5341,-0.34857 1.2562,2.34799 1.3122,3.58414 0.1633,3.58414 -0.9643,0 -1.7957,2.879 -1.8471,6.39825 -0.1596,10.83013 -0.7368,15.78395 -1.8394,15.78395 -0.5807,0 -1.4938,2.69442 -2.0283,5.98863 -1.6089,9.91828 -7.6439,12.75532 -19.4308,9.13165 -3.6082,-1.10928 -7.5715,-1.09514 -11.6934,0.0434 -8.5698,2.36689 -32.7416,-2.18716 -45.4883,-8.5704 -11.7001,-5.85907 -19.1941,-6.34274 -21.8332,-1.41002 -1.0232,1.91239 -1.426,4.84278 -0.8961,6.51248 0.6049,1.90621 -0.5646,4.47157 -3.143,6.89452 -3.8353,3.60412 -4.432,3.69048 -9.031,1.31155 -2.7082,-1.40088 -7.7846,-3.08375 -11.28,-3.7397 -4.4948,-0.8435 -7.2134,-2.64633 -9.2871,-6.15801 -2.831,-4.79388 -6.7301,-6.56821 -20.4391,-9.31084 -2.9198,-0.58413 -7.3186,-3.16158 -9.7754,-5.72673 -3.8841,-4.05527 -4.2322,-5.283 -2.6644,-9.40735 1.2479,-3.28303 1.2578,-5.40062 0.031,-6.87876 -0.9744,-1.1746 -1.3142,-3.3268 -0.7561,-4.78147 1.857,-4.84068 -5.0038,-6.72036 -12.9382,-3.54474 -5.3879,2.15647 -10.3911,2.59995 -21.5064,1.90629 -16.853,-1.05171 -25.9542,0.91738 -40.6831,8.79686 -8.5599,4.57921 -11.3085,5.2736 -17.0579,4.30884 -3.7697,-0.63256 -8.3679,-2.20545 -10.2186,-3.49552 -4.7155,-3.28736 -5.2891,-3.0736 -9.3382,3.47976 -1.9795,3.20389 -7.3461,8.2301 -11.9259,11.16987 -8.5234,5.47102 -13.7534,14.19184 -13.7534,22.93842 0,3.87422 -11.6218,16.37275 -15.2244,16.37275 -3.2555,0 -15.2834,14.18097 -20.6794,24.37993 -3.0848,5.83043 -7.4301,13.01741 -9.6553,15.97104 -5.9103,7.84494 -7.6908,15.39026 -4.9212,20.85292 5.8015,11.44286 4.1284,29.60565 -3.5033,38.04096 -2.4998,2.76298 -2.431,3.49403 0.8408,9.04107 2.3247,3.94131 2.8396,6.04643 1.4849,6.06347 -1.3067,0.0164 -1.1272,0.63806 0.4844,1.67982 2.1866,1.41356 2.1257,1.65742 -0.4254,1.67981 -4.1691,0.0365 -3.7419,3.56125 0.5692,4.68891 2.7146,0.71015 3.0181,1.27656 1.28,2.3986 -1.7281,1.11564 -1.3807,1.71637 1.4415,2.49117 4.441,1.21919 17.4901,18.14274 19.5884,25.40397 2.7113,9.38333 21.7722,26.56771 32.8671,29.63207 5.3171,1.46854 8.8849,1.18026 18.7258,-1.5203 9.5235,-2.61349 13.4439,-2.96293 18.0975,-1.61286 4.9128,1.42521 8.3009,0.94453 19.5864,-2.77475 7.5056,-2.47354 15.1816,-5.12181 17.0578,-5.88623 8.2617,-3.36577 11.1414,-3.3526 17.8692,0.0807 5.1779,2.64231 7.2404,4.87921 8.0012,8.68462 0.9917,4.96016 1.2603,5.09181 8.2787,4.03904 18.0266,-2.70405 25.4047,11.00366 18.5743,34.50608 -3.3554,11.54518 -1.9493,15.72156 8.8617,26.33151 5.6203,5.5157 8.3611,9.99834 10.3269,16.89266 1.4716,5.1616 4.1514,11.82457 5.957,14.80718 0.5744,0.94854 0.2142,1.68478 0.5888,2.59946 h 183.2446 c -3.1537,-15.00343 1.372,-28.00846 14.2122,-42.26905 5.9342,-6.59064 12.4569,-14.32771 14.4959,-17.19201 2.0389,-2.86428 9.6869,-9.9283 16.9948,-15.69926 9.5342,-7.52909 13.5377,-12.89608 19.5568,-23.5863 v -45.3904 c -3.0671,0.81471 -4.4526,1.49488 -7.7412,2.20759 -15.0335,3.25805 -16.708,3.32525 -21.4651,0.86451 -3.122,-1.61493 -5.5848,-4.51121 -6.2346,-7.3317 -1.7302,-7.50799 -8.6989,-16.51521 -19.4565,-25.146 -7.0785,-5.67919 -10.3733,-9.62835 -11.1795,-13.40503 -0.6284,-2.94465 -3.6204,-8.42625 -6.6502,-12.18012 -7.5331,-9.33324 -9.4506,-13.34595 -9.4506,-19.77572 0,-3.11274 -1.7273,-7.78595 -3.9818,-10.776 -2.1895,-2.90398 -7.0456,-11.42316 -10.7916,-18.93089 -3.746,-7.50771 -10.0435,-18.95767 -13.9936,-25.44533 -8.3476,-13.70989 -7.226,-18.81394 1.6659,-7.58378 l 5.77,7.28641 0.8567,-4.94687 c 1.207,-6.971 3.823,-5.43957 6.916,4.05085 2.3335,7.16035 6.97,14.01772 22.625,33.46431 2.2664,2.81541 5.3664,9.43357 6.8904,14.70674 1.898,6.56735 4.9262,11.80894 9.6121,16.63862 3.7621,3.87793 6.8412,7.79169 6.8412,8.69643 0,0.90472 2.2071,4.16635 4.9054,7.249 3.5098,4.00933 5.2677,8.27717 6.1738,14.99031 0.6964,5.16155 2.7411,12.29216 4.543,15.84696 3.112,6.13829 3.5868,6.40553 9.4604,5.30333 3.2893,-0.61723 15.059,-6.18148 24.6848,-10.38019 v -98.50637 c -1.3368,-2.67616 -2.2371,-5.27616 -3.8106,-7.41638 -4.1832,-5.68915 -5.0637,-8.24891 -4.1984,-12.18997 0.6027,-2.74394 2.2474,-5.4319 3.6569,-5.97289 1.2157,-0.4666 2.8496,0.65642 4.3521,1.12841 v -51.36723 c -1.2593,-0.63954 -1.2469,-0.60213 -2.6369,-1.31549 l -11.719,-6.01425 0.8507,-8.83231 c 1.0565,-10.96924 -0.5097,-15.20387 -9.0507,-24.47249 -3.7087,-4.02434 -6.7429,-8.45876 -6.7429,-9.85438 2e-4,-1.39566 -1.5364,-3.35948 -3.4127,-4.36398 -5.0421,-2.69927 -4.2679,-4.87483 4.6474,-13.06237 6.9077,-6.34383 13.147,-9.70103 18.6588,-10.06705 3.4636,-0.23001 6.5303,1.14985 9.4053,3.28282 V 163.64166 c -11.8785,-2.72387 -23.6915,-4.99915 -24.5371,-4.15325 -1.755,1.75546 6.3125,4.47669 8.7692,2.95788 2.0351,-1.25814 5.7534,3.67714 4.4092,5.85276 -0.6147,0.99488 -1.8621,1.3488 -2.7728,0.78576 -0.9108,-0.56302 -7.0238,-0.11823 -13.584,0.98859 -9.2757,1.56499 -12.4804,1.55324 -14.4131,-0.0512 -3.4661,-2.87741 -12.76,-0.83646 -24.6986,5.42344 -8.1418,4.26902 -10.4794,4.83451 -13.4402,3.24936 -1.9712,-1.05525 -3.3997,-2.85459 -3.1745,-3.99965 0.2279,-1.15872 -1.7741,-2.33168 -4.5156,-2.64478 -5.1372,-0.58672 -5.0885,-0.8364 -1.5576,7.79843 0.9333,2.2828 0.1101,2.69642 -11.1442,5.581 -5.259,1.34795 -7.1222,2.59633 -6.4592,4.32459 1.4155,3.68984 -4.6644,6.22716 -10.0295,4.18672 -6.7197,-2.55552 -9.1886,-1.92677 -3.8381,0.97678 5.7849,3.13924 5.8235,3.79519 0.3407,5.88033 -5.7064,2.17023 -16.7671,-3.27491 -20.2205,-9.95481 -1.3564,-2.62349 -4.5604,-5.72252 -7.1189,-6.88862 -3.4444,-1.5698 -4.1534,-2.61855 -2.7334,-4.03903 1.42,-1.42044 4.4772,-1.37199 11.7744,0.18905 5.4206,1.15959 12.7592,2.52747 16.3075,3.03864 7.7472,1.11611 16.7499,-2.1203 15.4351,-5.54753 -1.308,-3.40983 -32.7022,-13.1437 -38.5917,-11.96546 -3.2919,0.65855 -6.7317,-0.27085 -11.0911,-2.99925 -8.688,-5.43761 -19.2181,-7.57236 -35.3188,-7.16038 z m -164.2235,2.74126 c -0.8659,0 -2.1452,0.5341 -3.7987,1.60303 -2.069,1.33752 -1.8236,1.65863 1.28,1.6798 2.111,0.0144 3.8381,-0.74134 3.8381,-1.6798 0,-1.06893 -0.4534,-1.60303 -1.3194,-1.60303 z m -466.66406,3.96814 c -1.60663,0.15471 -3.29325,0.53652 -4.679,1.1107 -3.98161,1.64972 -4.61674,2.56405 -3.076,4.42108 2.42595,2.92391 2.78182,2.89139 9.9468,-0.92558 5.61591,-2.99174 5.70119,-3.17726 2.00668,-4.35018 -1.06516,-0.33818 -2.59186,-0.4107 -4.19848,-0.25602 z m 414.55906,23.62768 c -1.6241,-0.13894 -3.4867,0.26948 -6.4316,1.15203 -3.7517,1.12426 -8.267,1.58485 -10.0335,1.02405 -5.0664,-1.60852 -20.0544,3.99525 -21.0692,7.8772 -0.6612,2.52931 -0.1829,3.12158 1.9713,2.43996 1.5641,-0.49489 5.1472,0.61438 7.9618,2.46556 2.8145,1.85117 6.2689,3.0513 7.6762,2.66841 15.5329,-4.2261 21.9624,-6.57088 25.4292,-9.27344 l 4.1079,-3.20208 -4.6121,-3.0209 c -1.9907,-1.3048 -3.3757,-1.99185 -5,-2.13079 z m -373.07637,5.4786 c -3.88274,-0.28625 -6.84119,1.42851 -10.74237,5.74051 -4.06311,4.49099 -1.2643,6.10873 6.74279,3.89723 4.7094,-1.30071 7.32235,-1.15016 10.68525,0.61836 3.82242,2.01019 4.65011,1.98859 5.8645,-0.15951 1.90492,-3.36957 -1.22939,-6.83401 -8.29064,-9.16511 -1.56845,-0.5178 -2.96527,-0.83608 -4.25953,-0.93148 z m 423.94077,18.01121 c -1.4073,0 -2.5581,0.63979 -2.5581,1.42184 0,0.78205 1.1508,1.42183 2.5581,1.42183 1.4073,0 2.56,-0.63978 2.56,-1.42183 0,-0.78205 -1.1527,-1.42184 -2.56,-1.42184 z m 143.8572,15.84696 c -3.5851,0.27016 -4.1435,2.22921 -0.9964,3.49945 3.5312,1.42528 4.1237,1.23685 4.1237,-1.30368 0,-1.33759 -1.4072,-2.32536 -3.1273,-2.19577 z m -137.4591,16.59924 c -4.6901,0.0958 -9.736,8.92782 -7.5402,13.19824 0.8443,1.64231 1.1903,3.94512 0.7698,5.11821 -0.7341,2.04833 1.3759,2.85101 5.9296,2.25682 1.9755,-0.25779 5.5317,6.37204 5.5317,10.31323 0,0.92621 -2.3029,2.48689 -5.1162,3.46794 -2.8741,1.00223 -4.628,2.57139 -4.0035,3.58216 0.6114,0.9894 -0.2941,2.82679 -2.0106,4.08236 -2.8839,2.10934 -2.7065,2.3651 2.3335,3.37341 7.3474,1.46988 8.3103,3.70295 2.501,5.79959 -2.6364,0.95155 -6.3275,2.48901 -8.204,3.41477 -2.6096,1.28761 -2.009,1.423 2.5581,0.577 3.2837,-0.60824 11.9435,-1.96902 19.2437,-3.02288 9.9223,-1.4324 12.7825,-2.40621 11.3312,-3.85785 -1.4511,-1.45167 -0.8222,-2.67485 2.4912,-4.84645 4.8905,-3.20536 4.2734,-6.73979 -0.9394,-5.3762 -2.5407,0.66459 -3.9715,-0.59062 -6.1481,-5.39588 -4.5428,-10.02953 -9.0047,-15.7645 -13.6333,-17.52481 l -4.3126,-1.64042 3.8262,-4.07251 3.8244,-4.07448 -4.0035,-0.60655 c -2.2022,-0.33409 -3.8108,-1.54912 -3.5763,-2.69991 0.2346,-1.1508 -0.149,-2.0788 -0.8527,-2.06579 z m -861.51476,0.61048 c -0.68977,-0.0682 -1.79548,0.0608 -3.18629,0.3978 -7.33764,1.77812 -12.51078,3.87665 -12.51078,5.07685 0,0.5929 1.3436,0.55858 2.98542,-0.0769 1.64187,-0.63535 5.11214,-1.58439 7.71167,-2.10911 2.59955,-0.52473 5.15906,-1.65406 5.68726,-2.5089 0.2763,-0.44721 0.002,-0.71166 -0.68728,-0.77984 z m 98.47735,2.10911 c -0.20006,-0.62368 -1.03742,-0.49938 -2.42418,0.65185 -1.39696,1.15972 -2.06873,2.87037 -1.4927,3.80272 0.63619,1.02968 1.62199,0.7859 2.51278,-0.62033 1.16571,-1.84028 1.60416,-3.21055 1.4041,-3.83424 z m 1.52421,11.30576 c -0.61717,0.15101 -1.37436,0.56846 -2.24103,1.28793 -2.09681,1.74071 -2.20469,2.67876 -0.53367,4.69283 1.80305,2.17316 2.31083,2.02423 3.70223,-1.09493 1.51325,-3.3923 0.92398,-5.33884 -0.92753,-4.88583 z m 741.3715,6.48687 c -3.1082,0.1491 -6.3035,0.96019 -7.4399,2.32968 -1.0914,1.3156 -3.8725,2.86512 -6.1795,3.44431 -4.3427,1.09028 -5.4513,3.42265 -2.495,5.25015 1.0725,0.66305 0.7622,2.864 -0.841,5.96503 -1.3977,2.70269 -2.0624,6.15722 -1.4789,7.67829 0.6842,1.78363 2.0431,2.34265 3.8263,1.57151 1.5207,-0.65765 6.0281,-2.32968 10.0157,-3.71411 6.0802,-2.11121 7.2489,-3.24881 7.2489,-7.05402 0,-2.49534 1.1948,-6.24472 2.6565,-8.33212 1.4617,-2.08738 2.1838,-4.56148 1.6049,-5.49829 -0.789,-1.27716 -3.8097,-1.78952 -6.918,-1.64043 z m -1026.56728,3.92679 c -1.33453,0.44494 2.23344,5.63871 9.25361,13.47001 6.28365,7.0096 13.72789,17.35309 16.54385,22.98568 2.81586,5.63257 6.30382,11.58351 7.75105,13.22582 2.33325,2.64759 8.9267,4.26501 8.9267,2.18986 0,-0.43791 -3.47262,-4.70526 -7.7156,-9.48415 -7.27832,-8.1972 -8.68233,-13.32075 -3.05829,-11.16199 4.87728,1.87215 1.14082,-3.28607 -6.41785,-8.85791 -9.11921,-6.72211 -14.89913,-12.14978 -19.59227,-18.40115 -1.93597,-2.57895 -4.49673,-4.36441 -5.6912,-3.96617 z m 1042.36878,1.76843 c -0.3092,-0.13638 -0.7361,-0.0753 -1.2052,0.21466 -0.9382,0.58 -1.7054,1.39199 -1.7054,1.80584 0,0.41385 0.7672,0.75227 1.7054,0.75228 0.9383,0 1.7073,-0.812 1.7073,-1.80585 0,-0.49693 -0.1929,-0.83055 -0.5021,-0.96693 z m -321.57214,24.95498 c -1.05086,0 -7.29062,5.32939 -13.86761,11.84337 l -11.95939,11.84337 6.35485,0.6676 c 12.73169,1.33593 20.13304,1.18482 26.33308,-0.53763 5.90993,-1.64182 6.20794,-2.03319 4.45647,-5.87835 -1.09126,-2.39575 -3.91568,-4.56868 -6.74869,-5.19109 -6.48961,-1.42575 -8.91157,-5.83465 -5.36036,-9.75984 1.56833,-1.73348 1.90046,-2.98743 0.79165,-2.98743 z m -434.69499,2.75308 c -1.13905,-0.30647 -2.20075,-0.32884 -3.07798,0.008 -3.91829,1.50403 -3.26022,3.83087 2.64869,9.3522 2.91378,2.72269 6.75173,4.95082 8.5289,4.95082 3.79293,0 3.84038,-0.21294 1.26428,-5.86851 -1.84129,-4.04238 -5.94676,-7.523 -9.36389,-8.44239 z m 236.24757,14.00566 c 3.24921,0.29692 5.47024,1.58358 7.23313,3.91104 1.7106,2.25841 2.69957,5.62395 2.21938,7.55817 -1.29555,5.21849 4.77305,10.16743 9.41902,7.68028 6.4932,-3.47608 15.31516,4.44685 11.84911,10.64208 -1.14402,2.04486 -2.88535,2.64172 -5.66561,1.94371 -3.00334,-0.75402 -4.2759,-0.17589 -5.05904,2.29226 -0.57559,1.81403 -2.91024,4.14552 -5.18707,5.1832 -3.33546,1.52019 -4.84477,1.3164 -7.77075,-1.05357 l -3.63133,-2.94214 3.53879,-4.49985 c 4.50124,-5.7241 4.44362,-6.52232 -0.47262,-6.52232 -6.83013,0 -15.31224,7.09397 -19.86996,16.62089 v 0.002 c -2.34547,4.90275 -5.89446,10.05362 -7.88693,11.44754 -3.2449,2.27009 -3.89695,2.22832 -6.26228,-0.39779 -2.41076,-2.67656 -2.06425,-3.89827 3.98383,-14.02339 7.24095,-12.12206 12.42721,-16.27881 22.41031,-17.96593 3.67289,-0.62069 6.0765,-1.84651 5.48836,-2.79838 -0.57542,-0.93135 -2.84557,-1.24102 -5.04331,-0.68924 -2.21115,0.55511 -6.57552,-0.22923 -9.77349,-1.75466 -5.30899,-2.53251 -6.21061,-2.53401 -11.07518,-0.0177 -4.13914,2.14105 -6.33679,2.34466 -10.06298,0.92753 l -4.76563,-1.81371 4.24378,-3.26314 c 2.3346,-1.79421 4.86523,-3.27781 5.62424,-3.29858 0.75901,-0.0208 0.93467,-0.76072 0.38991,-1.64238 -0.54472,-0.88166 0.37016,-1.54919 2.03229,-1.48486 1.6621,0.0643 6.47522,-0.84228 10.69708,-2.01461 5.86996,-1.62994 10.14776,-2.32331 13.39695,-2.0264 z m 189.5404,10.54167 c -0.90875,0 -1.65222,1.15242 -1.65222,2.56009 0,1.40771 0.30281,2.56009 0.67152,2.56009 0.36875,0 1.11218,-1.15238 1.65223,-2.56009 0.54001,-1.40767 0.23721,-2.56009 -0.67153,-2.56009 z m -670.75154,6.33721 c -0.48694,0.4055 0.33601,2.37364 2.25482,6.08513 2.33336,4.51289 2.34173,5.48324 0.0768,8.71809 -2.30588,3.29295 -2.21855,4.10115 0.90388,8.48769 4.1643,5.85009 5.31187,6.10296 4.60416,1.01025 -0.57778,-4.15626 1.98059,-4.71996 10.98067,-2.41633 3.51424,0.89954 4.6908,0.5796 4.6908,-1.2761 0,-1.36235 1.54646,-2.96834 3.43638,-3.56838 5.00367,-1.58852 2.6872,-3.82688 -6.91017,-6.67789 -4.64463,-1.37969 -11.13535,-4.56183 -14.42491,-7.07176 -3.32742,-2.53857 -5.1255,-3.69621 -5.61243,-3.2907 z m 1356.8397,9.8721 c -3.3144,0.0539 -7.3604,1.52167 -8.84,4.28717 -2.5685,4.80078 0.3629,9.45668 8.5978,13.65907 0.1331,0.068 0.111,0.11615 0.2422,0.18511 z m -830.45347,6.73501 c 1.5467,-0.0942 2.92376,0.0706 3.84599,0.58685 2.50562,1.40261 2.3736,1.8922 -1.1796,4.38169 -4.99546,3.49995 -13.47572,3.73523 -13.47572,0.37416 0,-2.44654 6.16921,-5.06026 10.80933,-5.3427 z m -26.48276,10.42547 c 1.47576,-0.15238 2.35065,0.34762 3.42062,1.4179 2.13996,2.14058 1.55473,2.91946 -4.5175,6.01818 -3.8359,1.9575 -8.53914,3.55853 -10.4529,3.55853 -6.25177,0 -3.6587,-4.88063 4.51553,-8.49753 3.48091,-1.54022 5.55849,-2.3447 7.03425,-2.49708 z m 581.14773,1.84524 c -2.6545,1.01891 -3.3984,4.32664 -1.4198,6.30569 2.3103,2.31107 3.9798,1.02175 3.9798,-3.07407 0,-3.04315 -0.7115,-3.94118 -2.56,-3.23162 z m -1067.66803,3.3163 c -3.4602,-0.51695 -3.29832,3.31903 0.6538,11.12064 5.49061,10.83796 4.27071,14.03626 -9.22407,24.17907 -6.93174,5.20988 -10.22769,6.67635 -13.28077,5.90987 -2.88097,-0.72335 -5.55172,0.23721 -9.19845,3.30645 -2.82645,2.37911 -6.03997,4.34736 -7.1406,4.37579 -1.10084,0.0285 -0.66175,0.83325 0.97676,1.78812 2.02709,1.18108 5.02864,1.16842 9.38359,-0.0414 10.71044,-2.97532 15.38824,-2.28122 18.7002,2.77474 l 2.99525,4.57272 1.55573,-5.42543 c 1.26974,-4.42836 2.4285,-5.42541 6.31348,-5.42541 6.93226,0 13.02949,-2.7382 15.2205,-6.83348 1.49201,-2.78838 1.28121,-5.24977 -0.95509,-11.10685 -1.58015,-4.1391 -2.41491,-8.71965 -1.85506,-10.17931 1.55579,-4.05542 -3.80095,-13.67451 -9.48401,-17.03248 -1.95208,-1.15344 -3.50786,-1.81077 -4.66126,-1.98309 z m 1066.49033,9.7441 c -0.7403,0.15604 -1.5591,0.65501 -2.4261,1.52227 -1.9183,1.91893 -2.0337,3.54056 -0.5574,7.77677 2.441,7.00427 6.7212,5.60184 6.7212,-2.20168 0,-4.95516 -1.5167,-7.56546 -3.7377,-7.09736 z m -39.4602,8.082 c -1.3183,0.13551 -2.918,1.05777 -3.5231,2.63493 -0.7178,1.87128 -0.1712,2.51667 1.8078,2.13275 1.5609,-0.30279 3.1581,-1.51108 3.5487,-2.68416 0.522,-1.56866 -0.5152,-2.21902 -1.8334,-2.08352 z m 75.5175,14.74415 c -2.8711,-0.42219 -6.3001,-0.48932 -8.4343,0.069 -3.5641,0.93227 -3.2429,1.36808 3.5841,4.86417 6.7807,3.4724 7.6105,3.56855 8.6589,1.01419 0.6377,-1.55383 1.2134,-3.30478 1.2799,-3.89133 0.097,-0.85787 -2.2172,-1.63374 -5.0886,-2.05596 z m 131.4904,17.67842 c -0.7462,-0.14217 -1.8185,0.371 -2.6114,1.6542 -0.5798,0.93847 -2.5448,1.70542 -4.3659,1.70542 -3.2406,0 -4.3241,1.8312 -2.2883,3.86771 1.4791,1.47938 8.865,-2.20762 9.9173,-4.95082 0.5128,-1.33656 0.094,-2.13435 -0.6517,-2.27651 z m -65.7265,1.81569 -6.8235,0.11618 5.1182,2.34347 c 5.8727,2.68985 13.86,3.20576 15.2323,0.98465 1.2319,-1.994 -5.0287,-3.58773 -13.527,-3.4443 z m -1187.60842,1.92204 c -3.91421,0.048 -6.52338,2.7729 -5.41746,5.65583 h -0.002 c 1.29514,3.37617 2.72495,3.58369 5.50609,0.8015 2.67623,-2.67657 2.62399,-6.4905 -0.0866,-6.45733 z m -20.07081,2.49314 c -2.9862,-0.26258 -3.0505,3.35628 1.00432,8.17652 2.27757,2.70746 4.14138,6.01572 4.14138,7.35141 0,3.27215 2.79278,3.08839 4.08034,-0.26783 1.6976,-4.42534 -0.70674,-10.58747 -5.30917,-13.60393 -1.60058,-1.04905 -2.92148,-1.56865 -3.91687,-1.65617 z m 609.29254,13.12537 c -0.30917,-0.13638 -0.73412,-0.0754 -1.20322,0.21466 -0.93819,0.58001 -1.70736,1.39201 -1.70736,1.80586 0,0.41382 0.76917,0.75226 1.70736,0.75226 0.93819,0 1.7054,-0.812 1.7054,-1.80584 0,-0.49692 -0.193,-0.83054 -0.50218,-0.96694 z m -106.55727,47.13718 c -1.78703,0 -3.2493,1.1524 -3.2493,2.56009 0,1.40771 0.30951,2.55813 0.68925,2.55813 0.37975,0 1.84201,-1.15042 3.24929,-2.55813 2.27441,-2.27505 2.19889,-2.56009 -0.68924,-2.56009 z m 7.18981,0.36432 c -0.46909,0.46924 -0.35698,2.14934 0.25009,3.73183 0.60708,1.58246 1.48838,2.49168 1.95746,2.02246 0.46911,-0.46924 0.35502,-2.14737 -0.25206,-3.72985 -0.60709,-1.58248 -1.48639,-2.49367 -1.95549,-2.02444 z m -551.48458,5.80944 c -1.33049,0.42104 -2.9969,2.33723 -4.98621,5.74445 -2.57605,4.41229 -2.75386,5.9929 -1.03977,9.24783 1.13723,2.15923 2.91215,4.48366 3.94445,5.16548 2.48431,1.64086 6.41163,-11.51798 5.05315,-16.93205 -0.64575,-2.57332 -1.64115,-3.64675 -2.97162,-3.22571 z m 542.5244,4.06464 c -3.02877,0 -3.42702,4.13089 -0.69909,7.26277 1.43549,1.64809 3.06254,2.50186 3.61559,1.89841 0.55302,-0.60345 0.12789,-1.41221 -0.94525,-1.79798 -1.07335,-0.38575 -1.56006,-2.20117 -1.08114,-4.03312 0.47893,-1.83191 0.0793,-3.33008 -0.89011,-3.33008 z m -23.04637,20.80368 c -9.77552,-0.74333 -23.35163,3.18522 -23.35163,6.75668 0,1.95271 0.59196,1.86348 8.3379,-1.23673 8.26053,-3.30615 15.12647,-1.74859 27.4221,6.22102 6.27129,4.06483 8.09078,6.09969 6.82352,7.6271 -1.31123,1.58039 -0.0282,2.10621 5.31703,2.18002 3.87454,0.0534 7.47464,0.52688 8.00115,1.05358 1.19769,1.19799 5.094,0.97857 10.62423,-0.59867 4.87008,-1.38896 4.85398,-1.40383 -10.23431,-9.47824 -18.35623,-9.82321 -23.59076,-11.81384 -32.93999,-12.52476 z m 60.28923,1.41199 c -1.7486,0.0567 -3.64087,0.56915 -4.21029,1.49076 -0.51826,0.8388 0.97171,1.41499 3.31033,1.28004 2.33861,-0.13494 4.25298,-0.82234 4.25363,-1.5262 8.5e-4,-0.90317 -1.60507,-1.30133 -3.35367,-1.2446 z m -11.61082,5.18713 c -0.86596,0 -2.14517,0.53409 -3.79873,1.60302 -2.06907,1.33749 -1.82357,1.66061 1.28003,1.68178 2.11094,0.0144 3.83811,-0.74334 3.83811,-1.68178 0,-1.06893 -0.45345,-1.60301 -1.31941,-1.60302 z m -639.10733,8.77915 c -8.25797,0 -12.72866,5.39928 -8.21186,9.9174 2.88812,2.8889 5.07486,1.7622 8.73569,-4.50773 3.14027,-5.37885 3.13671,-5.40967 -0.52383,-5.40967 z m 652.47474,9.88786 c -8.13777,0 -8.63208,0.23362 -6.98697,3.30842 2.31778,4.33208 -0.1037,5.81079 -9.17288,5.59872 -6.17026,-0.1443 -6.49589,0.0282 -2.81605,1.50061 2.28864,0.91572 6.29024,1.19768 8.89126,0.62624 2.60103,-0.57144 5.98095,-0.33847 7.5108,0.51793 3.05486,1.71007 25.00739,-2.75369 23.72775,-4.8248 -1.9249,-3.1154 -13.28209,-6.72712 -21.15391,-6.72712 z m -573.79447,0.66365 c -2.11875,-0.1279 -3.66875,2.09418 -3.66875,6.72516 0,2.82172 -0.80969,6.64489 -1.79992,8.49557 -2.56226,4.78892 -0.86515,8.57861 7.86921,17.56813 6.18288,6.3634 8.45994,7.69208 11.76247,6.86301 2.25257,-0.56552 5.49571,-0.23813 7.20556,0.72667 3.84847,2.17156 5.18881,-0.4706 2.11696,-4.17295 -1.29057,-1.55556 -3.65731,-2.23832 -5.8507,-1.68769 -2.59472,0.65142 -5.05839,-0.51231 -8.34183,-3.94057 -4.54593,-4.74615 -4.59445,-5.01774 -2.04608,-11.11867 2.36736,-5.66688 2.35124,-6.80229 -0.16738,-12.0856 -2.27318,-4.7682 -4.96079,-7.24516 -7.07954,-7.37306 z m 622.40396,7.04223 c -0.46377,-0.12155 -1.10415,-0.0613 -1.80779,0.20874 -1.4073,0.5402 -2.55809,1.2834 -2.55809,1.65224 0,0.36881 1.15079,0.67153 2.55809,0.67153 1.4073,0 2.55808,-0.74522 2.55808,-1.65421 0,-0.45452 -0.28653,-0.75677 -0.75029,-0.8783 z m -13.50526,0.82513 c -4.46668,0 -6.98012,2.07802 -4.95863,4.10008 1.79513,1.79565 7.77593,0.42139 8.5624,-1.96733 0.43737,-1.32853 -0.92167,-2.13275 -3.60377,-2.13275 z m -78.75313,0.0749 c -2.33975,-0.19681 -4.22211,0.25871 -4.22211,1.4888 0,0.86024 0.95998,1.95283 2.13271,2.42618 1.17275,0.47334 4.43433,0.89715 7.2489,0.94131 4.8616,0.0765 4.95346,-0.0461 1.80779,-2.42617 -1.82918,-1.38393 -4.62754,-2.23332 -6.96729,-2.43012 z m 108.26069,6.75077 c -0.99355,0 -1.3321,0.76694 -0.75226,1.70541 0.57984,0.93846 1.3921,1.70738 1.80583,1.70738 0.41372,0 0.75225,-0.76892 0.75225,-1.70738 0,-0.93847 -0.81224,-1.70541 -1.80582,-1.70541 z m 7.67623,0 c -0.41373,0 -0.75228,0.76694 -0.75228,1.70541 0,0.93846 0.81227,1.70738 1.80583,1.70738 0.99356,0 1.33209,-0.76892 0.75226,-1.70738 -0.57984,-0.93847 -1.39209,-1.70541 -1.80581,-1.70541 z m 256.72396,3.41279 c -0.9935,0 -1.3321,0.76697 -0.7522,1.70541 0.5798,0.93847 1.3921,1.70739 1.8058,1.70739 0.4137,0 0.7523,-0.76892 0.7523,-1.70739 0,-0.93844 -0.8123,-1.70541 -1.8059,-1.70541 z m -271.95431,0.80939 c -0.28624,0.11956 -0.30864,0.4321 -0.0101,0.91572 0.5732,0.92771 1.76585,1.68769 2.64867,1.68769 2.45369,0 1.91144,-1.22293 -1.04371,-2.35725 -0.75902,-0.29134 -1.30888,-0.36575 -1.59511,-0.24616 z m 17.38866,4.91931 c -0.30918,-0.11814 -0.73609,-0.0477 -1.20519,0.24222 -0.93818,0.58 -1.7054,1.82248 -1.7054,2.76096 0,0.93844 0.76722,1.23185 1.7054,0.65184 0.9382,-0.57999 1.70539,-1.8225 1.70539,-2.76096 0,-0.46923 -0.19102,-0.77593 -0.5002,-0.89406 z m 271.72405,7.92052 c -0.9383,0 -1.7055,0.76893 -1.7055,1.70738 2e-4,0.93848 0.7672,1.70542 1.7055,1.70542 0.938,0 1.7054,-0.76694 1.7054,-1.70542 0,-0.93845 -0.7674,-1.70738 -1.7054,-1.70738 z m -266.60592,5.75823 c -0.30917,-0.13638 -0.73609,-0.0754 -1.20519,0.21466 -0.93819,0.58 -1.70538,1.39396 -1.70538,1.80782 0,0.41383 0.76719,0.75227 1.70538,0.75227 0.9382,0 1.7054,-0.81398 1.7054,-1.80782 0,-0.49692 -0.19102,-0.83054 -0.50021,-0.96693 z m -650.8107,4.04297 c -0.67846,-0.32276 -1.10081,-0.25246 -1.10081,0.28753 0,1.07998 1.24392,3.2069 2.76288,4.72632 1.51898,1.51944 3.20374,2.32023 3.74358,1.78024 0.53996,-0.53999 -0.70386,-2.66692 -2.76288,-4.72632 -1.02936,-1.0297 -1.96428,-1.74499 -2.64277,-2.06777 z m 26.77817,6.45931 c -0.34795,0.34805 0.9687,2.67014 2.92633,5.15957 4.75462,6.04653 9.72989,6.39238 5.80738,0.4037 -2.55097,-3.89405 -7.34745,-6.94984 -8.73371,-5.56327 z m 632.10853,0.80348 c -0.41375,0 -0.75227,0.76695 -0.75227,1.70542 0,0.93844 0.81226,1.70737 1.80582,1.70737 0.99357,0 1.33211,-0.76893 0.75226,-1.70737 -0.57982,-0.93846 -1.39208,-1.70542 -1.80581,-1.70542 z m -80.17297,3.41279 c -0.41373,0 -0.75228,0.76696 -0.75228,1.70542 0,0.93847 0.81227,1.70738 1.80583,1.70738 0.99356,0 1.3321,-0.76891 0.75225,-1.70738 -0.57983,-0.93846 -1.39208,-1.70542 -1.8058,-1.70542 z m 8.32803,0.34857 c -0.35162,-0.0445 -0.55139,0.198 -0.55139,0.73258 0,0.96978 0.51277,2.27513 1.13824,2.90077 0.62544,0.62565 1.53376,0.7409 2.0185,0.25602 0.48475,-0.48487 -0.028,-1.79028 -1.13824,-2.90078 -0.612,-0.6122 -1.11547,-0.944 -1.46711,-0.98859 z m -573.98351,0.25995 c -3.58277,-0.79997 -5.91693,3.31152 -3.52106,6.19936 1.55805,1.87766 2.30975,1.57039 4.04881,-1.65028 1.80243,-3.33778 1.71903,-4.04736 -0.52775,-4.54908 z m 12.83572,4.86023 c -0.88593,0 -1.29746,0.57619 -0.91769,1.28004 0.37987,0.70385 1.21143,2.73308 1.84718,4.50971 0.63584,1.77664 1.4903,2.89516 1.90035,2.48525 1.26755,-1.26803 -1.1284,-8.275 -2.82984,-8.275 z m -32.55206,1.27808 c -0.7321,-0.5996 -2.71838,1.22451 -7.31191,6.35296 -4.17994,4.66664 -7.59942,9.08347 -7.59942,9.81303 0,3.08144 4.19367,0.90033 9.57854,-4.98037 3.17572,-3.46801 5.73961,-7.88288 5.6971,-9.81106 -0.0155,-0.70632 -0.12028,-1.1747 -0.36431,-1.37456 z m 23.8262,4.5097 c -0.48569,0.02 -0.90951,0.56235 -1.51042,1.63649 -0.77562,1.38634 -0.90315,3.84676 -0.28162,5.46677 1.05928,2.76122 1.27267,2.75265 3.38715,-0.13982 1.72135,-2.35509 1.78721,-3.64962 0.27964,-5.46678 -0.84175,-1.01445 -1.38904,-1.51674 -1.87475,-1.49666 z m 19.59032,4.17294 c -0.18118,0.002 -0.28667,0.24742 -0.29342,0.78576 -0.0206,1.6871 -2.10056,4.97863 -4.62188,7.31594 -3.4655,3.21354 -5.7259,3.99898 -9.26345,3.22178 -3.66975,-0.80621 -5.10566,-0.23192 -6.65417,2.66249 -1.87024,3.49552 -1.69475,3.63108 3.29656,2.53449 5.00666,-1.09996 5.44106,-0.75847 8.69432,6.83348 2.52724,5.8976 4.12649,7.71958 6.10673,6.9595 1.47573,-0.56646 3.4822,-1.02798 4.45842,-1.02798 1.05304,0 0.88791,-1.07159 -0.40764,-2.63295 -3.24643,-3.91316 0.56245,-7.31389 4.51948,-4.03509 2.66564,2.20889 2.80291,1.88904 1.70539,-3.97405 -1.2647,-6.75664 -6.2721,-18.65847 -7.54034,-18.64337 z m 600.46234,1.63256 c -1.94492,0 -3.03166,0.505 -2.41433,1.12249 0.61732,0.61751 0.26706,2.1534 -0.77787,3.41281 -1.48198,1.78619 -1.14666,2.29028 1.52226,2.29028 1.98693,0 3.7966,-1.43106 4.31468,-3.41278 0.68027,-2.60214 0.0516,-3.4128 -2.64474,-3.4128 z m -536.47284,12.9048 c -0.30919,-0.11813 -0.73606,-0.0457 -1.20519,0.24419 -0.93817,0.58001 -1.70539,1.82251 -1.70539,2.76097 0,0.93846 0.76722,1.23182 1.70539,0.65182 0.93829,-0.58001 1.70538,-1.82248 1.70538,-2.76094 0,-0.46923 -0.19099,-0.77791 -0.50019,-0.89604 z m 265.65274,1.09691 c -0.41387,0 -0.75226,0.76693 -0.75226,1.7054 0,0.93846 0.81239,1.70738 1.80581,1.70738 0.99354,0 1.33214,-0.76892 0.75226,-1.70738 -0.57975,-0.93847 -1.39225,-1.7054 -1.80581,-1.7054 z m -388.95473,8.53101 c -1.11182,0 -4.02455,2.62464 -6.47102,5.83305 -2.44635,3.20845 -7.06282,6.69767 -10.25991,7.75315 -3.90375,1.28867 -6.51226,3.60586 -7.9401,7.05402 -1.23853,2.99094 -4.73294,6.46458 -8.3694,8.3203 -3.43358,1.7522 -7.15786,5.19607 -8.27684,7.6527 -1.78937,3.92835 -2.48094,4.22632 -5.74437,2.47935 -3.09165,-1.65515 -4.10088,-1.45114 -6.05354,1.21703 -1.34252,1.83907 -1.91782,5.0176 -1.34305,7.46758 2.09055,8.91012 5.99686,21.41082 7.32569,23.44059 1.66981,2.55095 18.52927,5.98289 22.77266,4.63573 1.66443,-0.52834 5.13032,0.14208 7.70379,1.49076 3.27546,1.7167 5.49701,1.94189 7.40445,0.75031 2.73977,-1.71146 13.67256,-24.23684 13.65493,-28.14524 -0.004,-1.15146 1.90525,-3.34649 4.24182,-4.87797 l 4.24771,-2.78459 -3.4088,-4.78933 c -5.63133,-7.91089 -5.89168,-13.66142 -0.92162,-20.34681 l 4.37374,-5.88428 -5.45685,-5.63417 c -3.00165,-3.09796 -6.36736,-5.63218 -7.47929,-5.63218 z m -150.450359,8.56842 c -3.453163,-0.0595 1.613785,8.25916 9.852264,16.17386 3.907367,3.75387 8.28367,9.12841 9.724262,11.9438 1.440591,2.81538 5.544501,8.95691 9.119695,13.64922 3.575093,4.69234 8.123264,12.32321 10.10827,16.95568 3.680003,8.58816 14.983141,22.40374 21.250407,25.97508 6.740043,3.84064 14.022223,-4.12953 12.036189,-13.17462 -0.60683,-2.76341 -3.349943,-7.51838 -6.096867,-10.5653 -2.747022,-3.04697 -6.715001,-7.45898 -8.818396,-9.80516 -2.103285,-2.34615 -3.870771,-5.0344 -3.926727,-5.97287 -0.295171,-4.98569 -3.23562,-8.96867 -9.446595,-12.79652 -6.435637,-3.96631 -9.22797,-6.50036 -22.861271,-20.73674 -4.94197,-5.16056 -16.465708,-11.56931 -20.941231,-11.64643 z m 232.785599,23.85216 c -3.12659,0 -6.98133,6.04118 -5.44307,8.53101 0.55591,0.89965 0.24448,3.07025 -0.69319,4.82281 -1.1818,2.20893 -1.10173,3.7896 0.26192,5.15366 4.36171,4.36091 7.30553,-0.54784 4.59825,-7.67042 -1.33939,-3.52398 -1.08823,-5.1732 1.16581,-7.66451 2.60831,-2.88099 2.61811,-3.17255 0.11028,-3.17255 z m 1075.47814,0.28752 c -0.3092,-0.13638 -0.7362,-0.0753 -1.2052,0.21465 -0.9381,0.57999 -1.7054,1.39397 -1.7054,1.80782 0,0.41385 0.7673,0.75227 1.7054,0.75227 0.9382,0 1.7054,-0.81397 1.7054,-1.80782 0,-0.49693 -0.1911,-0.83054 -0.5002,-0.96692 z m -754.3589,6.53807 c -0.99365,0 -1.33205,0.76694 -0.75227,1.70542 0.57986,0.93844 1.39215,1.70542 1.80582,1.70542 0.41377,0 0.75225,-0.76698 0.75225,-1.70542 0,-0.93848 -0.81237,-1.70542 -1.8058,-1.70542 z m -345.56578,0.24616 c -0.66639,-0.21127 -2.422,0.59813 -5.69709,2.29227 -3.91152,2.02338 -6.73919,2.19023 -13.92472,0.82711 -8.36881,-1.58758 -9.30597,-1.42171 -13.02871,2.30211 -2.72183,2.72258 -4.41692,7.01161 -5.27567,13.34202 -0.69609,5.13075 -2.55336,11.1665 -4.12759,13.41487 -2.59369,3.70402 -2.6157,4.46516 -0.24026,8.09186 1.44423,2.20419 2.14741,5.49384 1.56754,7.32185 -0.57198,1.8258 -0.56743,4.09454 0.0178,5.04142 h -0.008 c 1.2855,2.08058 2.6856,2.13528 5.69908,0.22449 1.79143,-1.13583 1.88876,-2.85498 0.45293,-8.05641 -1.58874,-5.75557 -1.39263,-7.04692 1.51043,-9.95087 3.3102,-3.3112 3.35477,-3.28922 5.9413,2.90274 1.43342,3.43159 4.14195,7.06297 6.02005,8.06823 3.0058,1.60932 3.41472,1.29928 3.41472,-2.58372 0,-2.42572 -1.14579,-6.6271 -2.54627,-9.33646 -3.07858,-5.95462 -1.94617,-9.55599 4.02717,-12.80242 5.27694,-2.86816 1.92817,-3.31614 -6.56949,-0.87831 -4.95793,1.42234 -6.43934,1.17867 -9.11576,-1.49864 -7.28164,-7.28383 6.51964,-15.38701 16.92195,-9.93512 5.82581,3.05342 11.35046,1.11363 14.11574,-4.95673 1.08757,-2.38774 1.51121,-3.619 0.84481,-3.83029 z m 1089.68848,13.69255 c -0.3093,-0.13638 -0.7342,-0.0773 -1.2034,0.21269 -0.9381,0.58 -1.7074,1.39397 -1.7074,1.80782 0,0.41385 0.7693,0.75227 1.7074,0.75227 0.9384,0 1.7054,-0.81198 1.7054,-1.80585 0,-0.49692 -0.1929,-0.83055 -0.502,-0.96693 z m -790.57979,0.35054 c -0.3092,-0.13638 -0.73607,-0.0774 -1.2052,0.21269 -0.93807,0.58 -1.70538,1.39397 -1.70538,1.80782 0,0.41384 0.76731,0.75227 1.70538,0.75227 0.93827,0 1.7054,-0.81397 1.7054,-1.80782 0,-0.49693 -0.19101,-0.82858 -0.5002,-0.96496 z M 285.72307,680.648 c -2.05757,0.0333 -5.48015,1.02512 -7.60532,2.20561 -3.76109,2.08919 -3.64821,2.2526 4.22606,6.07923 7.41507,3.60361 7.83046,4.11841 4.98817,6.19739 -4.77829,3.49501 -2.15887,9.34433 4.18469,9.34433 2.77223,-10e-6 10.98243,2.98975 18.2453,6.64245 10.56116,5.31163 13.79125,7.87022 16.13228,12.78076 2.91477,6.11392 2.90898,6.15231 -1.43561,8.9997 -3.7504,2.45809 -3.98059,3.07345 -1.63647,4.38563 1.49969,0.8396 4.31877,1.02128 6.26426,0.40371 2.47301,-0.78515 4.90027,0.14789 8.06811,3.10164 1.35853,1.26679 3.78032,1.90812 5.96295,2.92441 h 12.97947 c 0.60396,-0.79222 1.12342,-1.03272 1.92792,-2.39663 1.93864,-3.28669 5.02512,-6.45206 6.85896,-7.03434 4.07472,-1.29358 11.3681,3.31956 16.38631,9.43097 h 14.04681 c -5.57391,-6.43093 -9.84382,-12.79139 -8.21383,-14.75596 3.02913,-3.65099 -2.252,-10.38451 -14.40916,-18.3716 -6.36596,-4.18236 -15.17989,-8.90399 -19.58637,-10.49244 -4.40626,-1.58844 -12.9159,-5.10099 -18.91091,-7.8063 l -10.89992,-4.91931 -7.8633,4.50772 c -4.32509,2.47915 -9.0841,6.03137 -10.57498,7.89297 -2.67144,3.33569 -2.76315,3.31606 -6.3962,-1.30369 -2.0275,-2.57817 -3.68647,-5.94771 -3.68647,-7.48925 0,-4.62374 -5.05631,-10.39173 -9.05275,-10.327 z m 125.58242,15.89815 c -0.46905,0.46915 1.51422,2.07592 4.40722,3.57231 2.89278,1.49639 6.57615,4.72925 8.18429,7.18401 1.66827,2.54692 3.21425,3.58913 3.6018,2.42618 1.26133,-3.78559 -13.54074,-15.83579 -16.19331,-13.1825 z m -156.82884,1.10478 c -3.38007,0 -2.89185,3.01986 0.63804,3.94254 4.37744,1.1442 6.02621,1.08115 9.73017,-0.36826 2.82146,-1.10396 2.4621,-1.47816 -2.3454,-2.43996 -3.12233,-0.62463 -6.73255,-1.13432 -8.02281,-1.13432 z m 166.64171,13.61772 c -1.00507,0.48262 -2.44635,1.51909 -4.17879,3.04059 -3.17386,2.78749 -8.72611,5.62173 -12.33945,6.29979 l -6.5695,1.23278 4.23787,2.34741 c 5.55761,3.07728 5.24239,3.12488 11.90228,-1.79009 6.37603,-4.70545 8.47374,-7.37918 8.51316,-10.84888 0.008,-0.69335 -0.5605,-0.76423 -1.56557,-0.2816 z m 13.84594,7.4341 c -0.13293,0.23629 0.0828,1.41542 0.56912,3.67865 0.60371,2.81009 1.89053,6.06515 2.85939,7.23324 0.96917,1.16719 2.49429,1.67257 3.38715,1.12054 0.94667,-0.5851 0.60975,-2.17857 -0.80741,-3.82045 -1.33692,-1.54913 -3.3553,-4.35198 -4.48403,-6.22889 -0.90909,-1.51167 -1.39127,-2.21938 -1.52422,-1.98309 z m -334.51815,5.25804 c -4.838825,0.13107 -8.660856,1.59753 -8.660856,4.32458 0,2.38832 16.612336,7.27371 20.517836,6.03393 1.94105,-0.61627 7.13718,0.0649 11.54781,1.51242 4.41061,1.44769 13.00957,3.32337 19.10784,4.16901 6.09827,0.84575 12.00197,1.64357 13.11929,1.77435 1.11743,0.13057 2.42826,-0.40365 2.91254,-1.1875 0.86405,-1.39828 -9.37459,-7.10522 -12.74709,-7.10522 -0.94429,0 -3.84189,-1.57258 -6.43951,-3.49355 -4.17486,-3.08766 -5.65517,-3.28254 -12.76088,-1.68966 -6.41437,1.43791 -8.80567,1.30615 -11.83926,-0.6479 -4.06304,-2.61705 -9.91891,-3.82154 -14.75772,-3.69046 z m 347.32236,4.40334 c -0.93796,0 -0.3156,1.53392 1.38243,3.41084 1.69822,1.87692 3.85493,3.41279 4.79321,3.41279 0.93817,0 0.31568,-1.53587 -1.38243,-3.41279 -1.69812,-1.87692 -3.85493,-3.41084 -4.79321,-3.41084 z m 12.83571,7.75117 c -0.62695,0.20358 -0.0963,1.66043 2.18392,4.18083 1.69923,1.87816 3.8629,3.40938 4.82275,3.41673 h 0.008 c 0.94727,-0.007 -0.0608,-1.91366 -2.25679,-4.25172 -2.34678,-2.49872 -4.13081,-3.54941 -4.75776,-3.34584 z m -8.97004,2.48526 c -0.9196,0 -0.70959,1.52237 0.47066,3.4128 0.58343,0.93472 1.10672,1.08153 1.7369,1.6995 h 1.51437 c -0.0867,-0.61797 0.26573,-0.76483 -0.23434,-1.6995 -1.00421,-1.87692 -2.57429,-3.4128 -3.48759,-3.4128 z m -255.56415,0.88422 c -1.51005,0.48071 -1.62863,1.69841 -0.0788,3.5664 0.2948,0.35528 0.84763,0.41822 1.23276,0.66168 h 9.34813 c 4.25391,-0.95693 4.49642,-1.60035 -2.07167,-3.36947 -4.0181,-1.08229 -6.9204,-1.33932 -8.43045,-0.85861 z m -19.8089,0.86452 c -3.06116,-0.0329 -6.12077,0.46382 -6.77233,1.51833 -0.39676,0.64225 0.26375,1.28329 0.88224,1.84523 h 11.51433 c 1.18434,-0.038 1.72982,-0.7769 1.15989,-1.6995 -0.66026,-1.06863 -3.72297,-1.63116 -6.78413,-1.66406 z m 57.40033,0.5199 c -2.91673,0.10327 -5.7174,1.18602 -8.31624,2.84366 h 14.35795 c 0.0821,-0.008 0.31794,-0.16435 0.39386,-0.16738 4.04952,-0.16184 3.96951,-0.29768 -1.13037,-1.93583 -1.74979,-0.56209 -3.53558,-0.80311 -5.3052,-0.74045 z m 240.82612,2.04413 c -0.21469,-0.15577 -0.28543,0.337 -0.36235,0.79953 h 0.7877 c -0.12815,-0.20342 -0.32627,-0.72764 -0.42535,-0.79953 z"
       clip-path="url(#clipPath657)" /></g><g
     id="pleasure"
     transform="matrix(0.78401047,0,0,0.78402952,18.617818,28.174636)"
     style="stroke-width:0.976089"><path
       class="cls-1"
       d="m 1742.3481,453.78232 a 1.27556,1.2759378 0 0 1 -1.4472,0.0464 50.883247,50.898317 0 0 1 -12.5145,-11.17722 c -4.5688,-5.73011 -7.4214,-12.0727 -8.428,-18.18327 -1.0017,-6.20338 -0.065,-12.16547 3.0198,-17.01405 a 20.937738,20.943939 0 0 1 4.6616,-5.1687 c 4.3507,-3.47056 9.323,-5.30328 14.2723,-5.26616 4.7728,0.037 9.4761,1.81881 13.5442,5.52598 a 19.945119,19.951028 0 0 1 3.6132,4.40314 c 3.3165,5.46103 4.0307,12.43462 2.5744,19.48705 a 42.914478,42.927188 0 0 1 -19.2958,27.33755 z m -1.3917,-45.7389 a 10.66832,10.671479 0 1 1 -10.6403,10.67149 10.66832,10.671479 0 0 1 10.6543,-10.67149 z"
       id="p-it"
       style="opacity:1;fill:#65c8d9;fill-opacity:0.611765;stroke:none;stroke-width:1.27547;stroke-opacity:0.812775" /><path
       class="cls-1"
       d="m 1596.08,378.532 a 1.27556,1.2759378 0 0 1 -1.4471,0.0464 50.883247,50.898317 0 0 1 -12.5144,-11.17723 c -4.5689,-5.73012 -7.4216,-12.07269 -8.4281,-18.18329 -1.0019,-6.20337 -0.065,-12.16545 3.0197,-17.01404 a 20.937738,20.943939 0 0 1 4.6615,-5.16869 c 4.3508,-3.47055 9.3232,-5.30328 14.2723,-5.26615 4.7729,0.037 9.4763,1.81879 13.5443,5.52597 a 19.945119,19.951028 0 0 1 3.6132,4.40314 c 3.3165,5.46102 4.0307,12.43461 2.5743,19.48704 a 42.914478,42.927188 0 0 1 -19.2957,27.33757 z m -1.3915,-45.73888 a 10.66832,10.671479 0 1 1 -10.6405,10.67148 10.66832,10.671479 0 0 1 10.6545,-10.67148 z"
       id="p-fr"
       style="opacity:1;fill:#65c8d9;fill-opacity:0.611765;stroke:none;stroke-width:1.27547;stroke-opacity:0.812775" /><path
       class="cls-1"
       d="m 1634.822,358.69135 a 1.27556,1.2759378 0 0 1 -1.4473,0.0464 50.883247,50.898317 0 0 1 -12.5144,-11.17721 c -4.5689,-5.73012 -7.4215,-12.07271 -8.4281,-18.18328 -1.0018,-6.2034 -0.065,-12.16549 3.0196,-17.01405 a 20.937738,20.943939 0 0 1 4.6616,-5.1687 c 4.3509,-3.47059 9.3232,-5.30328 14.2724,-5.26617 4.773,0.0371 9.4763,1.8188 13.5443,5.52597 a 19.945119,19.951028 0 0 1 3.6133,4.40315 c 3.3165,5.46102 4.0307,12.43461 2.5743,19.48705 a 42.914478,42.927188 0 0 1 -19.2957,27.33756 z m -1.3916,-45.7389 a 10.66832,10.671479 0 1 1 -10.6405,10.67148 10.66832,10.671479 0 0 1 10.6544,-10.67148 z"
       id="p-be"
       style="opacity:1;fill:#65c8d9;fill-opacity:0.611765;stroke:none;stroke-width:1.27547;stroke-opacity:0.812775" /><path
       class="cls-1"
       d="m 1680.6912,395.42421 a 1.27556,1.2759378 0 0 1 -1.4473,0.0463 50.883247,50.898317 0 0 1 -12.5145,-11.17722 c -4.5688,-5.73011 -7.4214,-12.07268 -8.4279,-18.18328 -1.0018,-6.20337 -0.065,-12.16546 3.0196,-17.01404 a 20.937738,20.943939 0 0 1 4.6616,-5.1687 c 4.3508,-3.47055 9.323,-5.30326 14.2724,-5.26615 4.7727,0.0371 9.476,1.8188 13.5441,5.52597 a 19.945119,19.951028 0 0 1 3.6133,4.40315 c 3.3164,5.461 4.0308,12.43458 2.5744,19.48705 a 42.914478,42.927188 0 0 1 -19.2957,27.33754 z m -1.3918,-45.73887 a 10.66832,10.671479 0 1 1 -10.6404,10.67148 10.66832,10.671479 0 0 1 10.6545,-10.67148 z"
       id="p-ch"
       style="opacity:1;fill:#65c8d9;fill-opacity:0.611765;stroke:none;stroke-width:1.27547;stroke-opacity:0.812775" /><path
       class="cls-1"
       d="m 1584.2943,289.76897 a 1.27556,1.2759378 0 0 1 -1.4471,0.0464 50.883247,50.898317 0 0 1 -12.5145,-11.17722 c -4.5689,-5.7301 -7.4215,-12.07268 -8.4281,-18.18327 -1.0018,-6.20337 -0.065,-12.16547 3.0196,-17.01405 a 20.937738,20.943939 0 0 1 4.6618,-5.1687 c 4.3509,-3.47057 9.3232,-5.30327 14.2722,-5.26616 4.7729,0.0371 9.4764,1.8188 13.5443,5.52597 a 19.945119,19.951028 0 0 1 3.6133,4.40316 c 3.3165,5.46101 4.0308,12.4346 2.5742,19.48705 a 42.914478,42.927188 0 0 1 -19.2957,27.33754 z m -1.3915,-45.73888 a 10.66832,10.671479 0 1 1 -10.6405,10.67149 10.66832,10.671479 0 0 1 10.6544,-10.67149 z"
       id="p-uk"
       style="opacity:1;fill:#65c8d9;fill-opacity:0.611765;stroke:none;stroke-width:1.27547;stroke-opacity:0.812775" /><path
       class="cls-1"
       d="m 1544.1884,320.81407 a 1.27556,1.2759378 0 0 1 -1.4471,0.0464 50.883247,50.898317 0 0 1 -12.5146,-11.17721 c -4.5687,-5.73012 -7.4215,-12.07267 -8.4279,-18.18326 -1.0018,-6.2034 -0.065,-12.16546 3.0196,-17.01404 a 20.937738,20.943939 0 0 1 4.6615,-5.16872 c 4.351,-3.47057 9.3233,-5.30328 14.2725,-5.26615 4.7728,0.0371 9.4762,1.81879 13.5442,5.52596 a 19.945119,19.951028 0 0 1 3.6132,4.40316 c 3.3165,5.46101 4.0308,12.43459 2.5744,19.48704 a 42.914478,42.927188 0 0 1 -19.2958,27.33755 z m -1.3916,-45.73889 a 10.66832,10.671479 0 1 1 -10.6404,10.6715 10.66832,10.671479 0 0 1 10.6545,-10.6715 z"
       id="p-ie"
       style="opacity:1;fill:#65c8d9;fill-opacity:0.611765;stroke:none;stroke-width:1.27547;stroke-opacity:0.812775" /><path
       class="cls-1"
       d="m 1494.5283,218.24765 a 1.27556,1.2759378 0 0 1 -1.4473,0.0464 50.883247,50.898317 0 0 1 -12.5144,-11.17723 c -4.5689,-5.73011 -7.4216,-12.07268 -8.4282,-18.18325 -1.0017,-6.20339 -0.065,-12.16547 3.0197,-17.01405 a 20.937738,20.943939 0 0 1 4.6618,-5.1687 c 4.3508,-3.47057 9.323,-5.30329 14.2722,-5.26617 4.773,0.0371 9.4762,1.81881 13.5442,5.52598 a 19.945119,19.951028 0 0 1 3.6134,4.40315 c 3.3164,5.46102 4.0306,12.43461 2.5743,19.48704 a 42.914478,42.927188 0 0 1 -19.2957,27.33756 z m -1.3917,-45.73889 a 10.66832,10.671479 0 1 1 -10.6405,10.67148 10.66832,10.671479 0 0 1 10.6544,-10.67148 z"
       id="p-is"
       style="opacity:1;fill:#65c8d9;fill-opacity:0.611765;stroke:none;stroke-width:1.27547;stroke-opacity:0.812775" /><path
       class="cls-1"
       d="m 990.6026,433.89887 a 1.27556,1.2759378 0 0 1 -1.44716,0.0464 50.883247,50.898317 0 0 1 -12.51451,-11.17722 c -4.56886,-5.73013 -7.42145,-12.0727 -8.428,-18.18327 -1.00181,-6.20338 -0.0656,-12.16549 3.01966,-17.01407 a 20.937738,20.943939 0 0 1 4.66162,-5.16868 c 4.35077,-3.47057 9.32304,-5.3033 14.27222,-5.26616 4.77304,0.0371 9.47629,1.81878 13.54427,5.52595 a 19.945119,19.951028 0 0 1 3.6133,4.40316 c 3.3165,5.46102 4.0307,12.43461 2.5743,19.48704 a 42.914478,42.927188 0 0 1 -19.2957,27.33758 z m -1.39161,-45.73888 a 10.66832,10.671479 0 1 1 -10.64044,10.6715 10.66832,10.671479 0 0 1 10.65446,-10.6715 z"
       id="p-us"
       style="opacity:1;fill:#65c8d9;fill-opacity:0.611765;stroke:none;stroke-width:1.27547;stroke-opacity:0.812775" /><path
       class="cls-1"
       d="m 927.7661,346.92002 a 1.27556,1.2759378 0 0 1 -1.44727,0.0464 50.883247,50.898317 0 0 1 -12.51441,-11.17723 c -4.56885,-5.73011 -7.42155,-12.07268 -8.428,-18.18328 -1.00181,-6.20336 -0.0655,-12.16547 3.01956,-17.01404 a 20.937738,20.943939 0 0 1 4.66162,-5.1687 c 4.35087,-3.47055 9.32314,-5.30327 14.27242,-5.26614 4.77284,0.037 9.47609,1.81879 13.54415,5.52597 a 19.945119,19.951028 0 0 1 3.61333,4.40314 c 3.31649,5.46102 4.03064,12.43459 2.57431,19.48705 a 42.914478,42.927188 0 0 1 -19.29571,27.33757 z m -1.39171,-45.73888 a 10.66832,10.671479 0 1 1 -10.64045,10.6715 10.66832,10.671479 0 0 1 10.65446,-10.6715 z"
       id="p-ca"
       style="opacity:1;fill:#65c8d9;fill-opacity:0.611765;stroke:none;stroke-width:1.27547;stroke-opacity:0.812775" /><path
       class="cls-1"
       d="m 1662.0413,336.31478 a 1.27556,1.2759378 0 0 1 -1.4473,0.0464 50.883247,50.898317 0 0 1 -12.5145,-11.17719 c -4.5687,-5.73014 -7.4213,-12.07271 -8.4279,-18.18327 -1.0019,-6.2034 -0.065,-12.16549 3.0196,-17.01406 a 20.937738,20.943939 0 0 1 4.6618,-5.16871 c 4.3507,-3.47057 9.323,-5.30327 14.2722,-5.26616 4.7729,0.0371 9.4762,1.81881 13.5441,5.52598 a 19.945119,19.951028 0 0 1 3.6133,4.40314 c 3.3165,5.46103 4.0307,12.43461 2.5744,19.48705 a 42.914478,42.927188 0 0 1 -19.2957,27.33757 z m -1.3917,-45.73891 a 10.66832,10.671479 0 1 1 -10.6405,10.67151 10.66832,10.671479 0 0 1 10.6545,-10.67151 z"
       id="p-nl"
       style="opacity:1;fill:#65c8d9;fill-opacity:0.611765;stroke:none;stroke-width:1.27547;stroke-opacity:0.812775" /><path
       class="cls-1"
       d="m 1697.3209,373.63262 a 1.27556,1.2759378 0 0 1 -1.4473,0.0465 50.883247,50.898317 0 0 1 -12.5145,-11.17723 c -4.5688,-5.73011 -7.4213,-12.07269 -8.4279,-18.18326 -1.002,-6.20339 -0.065,-12.16547 3.0196,-17.01406 a 20.937738,20.943939 0 0 1 4.6617,-5.1687 c 4.3508,-3.47056 9.323,-5.30327 14.2722,-5.26616 4.773,0.037 9.4762,1.8188 13.5441,5.52599 a 19.945119,19.951028 0 0 1 3.6134,4.40313 c 3.3166,5.46103 4.0307,12.43461 2.5743,19.48706 a 42.914478,42.927188 0 0 1 -19.2956,27.33756 z m -1.3917,-45.73889 a 10.66832,10.671479 0 1 1 -10.6405,10.6715 10.66832,10.671479 0 0 1 10.6544,-10.6715 z"
       id="p-de"
       style="opacity:1;fill:#65c8d9;fill-opacity:0.611765;stroke:none;stroke-width:1.27547;stroke-opacity:0.812775" /><path
       class="cls-1"
       d="m 299.03046,470.86496 a 1.27556,1.2759378 0 0 1 -1.44722,0.0464 50.883247,50.898317 0 0 1 -12.51442,-11.17722 c -4.56883,-5.73012 -7.4215,-12.0727 -8.42811,-18.18328 -1.00182,-6.20339 -0.0653,-12.16549 3.0197,-17.01403 a 20.937738,20.943939 0 0 1 4.66152,-5.16873 c 4.3509,-3.47055 9.32325,-5.30327 14.27247,-5.26614 4.77276,0.037 9.47616,1.8188 13.54414,5.52598 a 19.945119,19.951028 0 0 1 3.61324,4.40314 c 3.31651,5.46101 4.03075,12.43461 2.5743,19.48705 a 42.914478,42.927188 0 0 1 -19.29562,27.33756 z m -1.39175,-45.73888 a 10.66832,10.671479 0 1 1 -10.64036,10.67148 10.66832,10.671479 0 0 1 10.65446,-10.67148 z"
       id="p-jp"
       style="opacity:1;fill:#65c8d9;fill-opacity:0.611765;stroke:none;stroke-width:1.27547;stroke-opacity:0.812775" /><path
       class="cls-1"
       d="m 198.03834,471.68368 a 1.27556,1.2759378 0 0 1 -1.44722,0.0464 50.883247,50.898317 0 0 1 -12.51442,-11.17721 c -4.56882,-5.73012 -7.4214,-12.07269 -8.4281,-18.18328 -1.00182,-6.20339 -0.0642,-12.16548 3.0197,-17.01405 a 20.937738,20.943939 0 0 1 4.66162,-5.16871 c 4.3509,-3.47056 9.32314,-5.30326 14.27236,-5.26614 4.77287,0.0371 9.47617,1.81879 13.54414,5.52596 a 19.945119,19.951028 0 0 1 3.61324,4.40314 c 3.31652,5.46103 4.03075,12.43461 2.5744,19.48707 a 42.914478,42.927188 0 0 1 -19.29572,27.33754 z m -1.39175,-45.7389 a 10.66832,10.671479 0 1 1 -10.64036,10.67151 10.66832,10.671479 0 0 1 10.65456,-10.67151 z"
       id="p-kr"
       style="opacity:1;fill:#65c8d9;fill-opacity:0.611765;stroke:none;stroke-width:1.27547;stroke-opacity:0.812775" /><path
       class="cls-1"
       d="m 1731.4381,370.02 a 1.27556,1.2759378 0 0 1 -1.4472,0.0464 50.883247,50.898317 0 0 1 -12.5145,-11.17722 c -4.5688,-5.73013 -7.4214,-12.0727 -8.4279,-18.18327 -1.0019,-6.20338 -0.065,-12.16547 3.0195,-17.01405 a 20.937738,20.943939 0 0 1 4.6617,-5.1687 c 4.3508,-3.47057 9.3231,-5.30328 14.2724,-5.26616 4.7729,0.037 9.476,1.81879 13.5439,5.52597 a 19.945119,19.951028 0 0 1 3.6135,4.40315 c 3.3165,5.46102 4.0307,12.43461 2.5744,19.48705 a 42.914478,42.927188 0 0 1 -19.2958,27.33755 z m -1.3917,-45.73889 a 10.66832,10.671479 0 1 1 -10.6404,10.6715 10.66832,10.671479 0 0 1 10.6544,-10.6715 z"
       id="p-cz"
       style="opacity:1;fill:#65c8d9;fill-opacity:0.611765;stroke:none;stroke-width:1.27547;stroke-opacity:0.812775" /><g
       id="mx"><path
         class="cls-1"
         d="m 686.10155,656.30096 a 1.27556,1.2759378 0 0 1 -1.44723,0.0463 50.883247,50.898317 0 0 1 -12.51447,-11.1772 c -4.56883,-5.73014 -7.42147,-12.07271 -8.428,-18.18329 -1.0018,-6.20339 -0.065,-12.16547 3.01963,-17.01404 a 20.937738,20.943939 0 0 1 4.66163,-5.16871 c 4.35085,-3.47056 9.32311,-5.30327 14.27232,-5.26617 4.77291,0.0371 9.47621,1.81881 13.54421,5.52598 a 19.945119,19.951028 0 0 1 3.61328,4.40315 c 3.3165,5.46101 4.03074,12.4346 2.57436,19.48707 a 42.914478,42.927188 0 0 1 -19.29573,27.33753 z m -1.39168,-45.73889 a 10.66832,10.671479 0 1 1 -10.64042,10.67149 10.66832,10.671479 0 0 1 10.65447,-10.67149 z"
         id="p-mx"
         style="opacity:1;fill:#65c8d9;fill-opacity:0.611765;stroke:none;stroke-width:1.27547;stroke-opacity:0.812775" /><g
         id="caption"
         class="cls-1"
         style=""><g
           aria-label="MEXICO &lt;3"
           transform="matrix(1.2754932,0,0,1.2754622,-57.449916,-34.7337)"
           id="text2258"
           style="font-size:29.3333px;line-height:1.25;white-space:pre;shape-inside:url(#rect2260);display:inline;fill:#696969;stroke:#fefefe;stroke-width:5;paint-order:stroke markers fill"><path
             d="m 534.0462,572.87689 h -2.83594 v -18.37628 l -5.92968,12.50389 h -1.6901 l -5.88671,-12.50389 v 18.37628 h -2.64974 v -21.3268 h 3.86719 l 5.68619,11.87369 5.49999,-11.87369 h 3.9388 z"
             id="path2364" /><path
             d="m 553.82612,572.87689 h -14.05076 v -21.3268 h 14.05076 v 2.52083 h -11.21483 v 5.84375 h 11.21483 v 2.52083 h -11.21483 v 7.92056 h 11.21483 z"
             id="path2366" /><path
             d="m 574.59433,551.55009 -7.36198,10.54166 7.34765,10.78514 h -3.27994 l -5.8151,-8.77993 -5.95833,8.77993 h -3.09374 l 7.43358,-10.65623 -7.26171,-10.67057 h 3.26562 l 5.74349,8.66536 5.87239,-8.66536 z"
             id="path2368" /><path
             d="m 585.93807,572.87689 h -8.42187 v -2.17708 h 2.79297 v -16.97263 h -2.79297 v -2.17709 h 8.42187 v 2.17709 h -2.79297 v 16.97263 h 2.79297 z"
             id="path2370" /><path
             d="m 607.23621,571.33002 q -0.78776,0.34375 -1.43229,0.64453 -0.6302,0.30078 -1.66145,0.63021 -0.8737,0.27213 -1.90495,0.45833 -1.01692,0.20052 -2.24869,0.20052 -2.32031,0 -4.22526,-0.64453 -1.89062,-0.65885 -3.29427,-2.04817 -1.37499,-1.36068 -2.14843,-3.45182 -0.77344,-2.10547 -0.77344,-4.88411 0,-2.63542 0.74479,-4.71224 0.74479,-2.07682 2.14844,-3.50911 1.36067,-1.38932 3.27994,-2.11979 1.93359,-0.73046 4.28255,-0.73046 1.71875,0 3.42317,0.41536 1.71875,0.41536 3.80989,1.46094 v 3.36588 h -0.21484 q -1.76172,-1.47526 -3.49479,-2.14844 -1.73307,-0.67317 -3.70963,-0.67317 -1.61849,0 -2.92187,0.52994 -1.28906,0.51563 -2.30599,1.61849 -0.98828,1.07422 -1.54687,2.72135 -0.54427,1.63281 -0.54427,3.78125 0,2.24869 0.60156,3.86718 0.61589,1.61849 1.57552,2.63541 1.0026,1.0599 2.33463,1.57552 1.34636,0.50131 2.83594,0.50131 2.04817,0 3.83854,-0.70183 1.79036,-0.70182 3.35155,-2.10546 h 0.20052 z"
             id="path2372" /><path
             d="m 627.14505,553.99931 q 1.30338,1.43229 1.99088,3.50911 0.70182,2.07682 0.70182,4.71224 0,2.63541 -0.71614,4.72655 -0.70182,2.07682 -1.97656,3.46614 -1.31771,1.44662 -3.12239,2.17708 -1.79037,0.73047 -4.09635,0.73047 -2.2487,0 -4.09635,-0.74479 -1.83333,-0.74479 -3.12239,-2.16276 -1.28907,-1.41796 -1.99089,-3.48046 -0.6875,-2.0625 -0.6875,-4.71223 0,-2.60677 0.6875,-4.66927 0.6875,-2.07682 2.00521,-3.55208 1.26041,-1.40364 3.12239,-2.14843 1.8763,-0.7448 4.08203,-0.7448 2.29166,0 4.11067,0.75912 1.83333,0.74479 3.10807,2.13411 z m -0.25781,8.22135 q 0,-4.15365 -1.86198,-6.40234 -1.86198,-2.26302 -5.08463,-2.26302 -3.2513,0 -5.11328,2.26302 -1.84765,2.24869 -1.84765,6.40234 0,4.1966 1.89062,6.43098 1.89063,2.22005 5.07031,2.22005 3.17968,0 5.05598,-2.22005 1.89063,-2.23438 1.89063,-6.43098 z"
             id="path2374" /><path
             d="m 661.94969,571.77403 -16.52862,-7.34765 v -1.77604 l 16.52862,-7.34765 v 2.57813 l -13.03384,5.65754 13.03384,5.65755 z"
             id="path2376" /><path
             d="m 680.65541,562.60737 q 0.6875,0.61589 1.13151,1.54688 0.44401,0.93099 0.44401,2.40624 0,1.46094 -0.52995,2.67839 -0.52995,1.21744 -1.48958,2.11979 -1.07422,1.0026 -2.53515,1.48958 -1.44662,0.47265 -3.17969,0.47265 -1.77604,0 -3.49479,-0.42968 -1.71874,-0.41537 -2.82161,-0.91667 v -2.99349 h 0.21485 q 1.21744,0.80209 2.86458,1.33203 1.64713,0.52995 3.17968,0.52995 0.90234,0 1.91927,-0.30078 1.01692,-0.30078 1.64713,-0.88802 0.65886,-0.63021 0.97396,-1.38932 0.32943,-0.75911 0.32943,-1.91927 0,-1.14583 -0.3724,-1.89062 -0.35807,-0.75912 -1.0026,-1.1888 -0.64453,-0.44401 -1.5612,-0.60156 -0.91666,-0.17188 -1.97656,-0.17188 h -1.28906 v -2.3776 h 1.0026 q 2.17708,0 3.46615,-0.90234 1.30338,-0.91667 1.30338,-2.66406 0,-0.77344 -0.32943,-1.34636 -0.32942,-0.58723 -0.91666,-0.95963 -0.61589,-0.3724 -1.31771,-0.51562 -0.70182,-0.14323 -1.58984,-0.14323 -1.36068,0 -2.89323,0.48697 -1.53255,0.48698 -2.89322,1.375 h -0.14323 v -2.99348 q 1.01692,-0.5013 2.70703,-0.91667 1.70442,-0.42969 3.29426,-0.42969 1.5612,0 2.75,0.28646 1.1888,0.28646 2.14843,0.91667 1.03125,0.6875 1.5612,1.66145 0.52995,0.97396 0.52995,2.27735 0,1.77604 -1.26042,3.10807 -1.24609,1.3177 -2.95051,1.66145 v 0.20052 q 0.68749,0.11459 1.57551,0.48698 0.88802,0.35807 1.50391,0.90234 z"
             id="path2378" /></g></g></g></g><g
     style="display:inline;stroke-width:0.976089"
     transform="matrix(1.0244845,0,0,1.0245094,-28.102331,0.31114479)"
     id="internships"><path
       class="cls-1"
       d="m 566.97422,483.57241 a 0.9761518,0.97644093 0 0 1 -1.10751,0.0355 38.939582,38.951117 0 0 1 -9.57699,-8.55361 c -3.49641,-4.38511 -5.67946,-9.23891 -6.44973,-13.91518 -0.76666,-4.74727 -0.0498,-9.30991 2.31084,-13.02038 a 16.023089,16.027834 0 0 1 3.56742,-3.95548 c 3.32959,-2.65593 7.13473,-4.05845 10.92222,-4.03005 3.65257,0.0284 7.2519,1.39188 10.36503,4.22887 a 15.263464,15.267986 0 0 1 2.76515,3.36961 c 2.53802,4.17918 3.08461,9.51588 1.97008,14.91294 a 32.841298,32.851026 0 0 1 -14.76651,20.92068 z m -1.065,-35.00275 a 8.1641781,8.1665965 0 1 1 -8.14284,8.16661 8.1641781,8.1665965 0 0 1 8.15358,-8.16661 z"
       id="i-mx"
       style="opacity:1;fill:#d9bd59;fill-opacity:0.611765;stroke:none;stroke-width:0.976086;stroke-opacity:0.812775" /><path
       class="cls-1"
       d="m 848.37531,302.38159 a 0.9761518,0.97644093 0 0 1 -1.10752,0.0355 38.939582,38.951117 0 0 1 -9.57698,-8.55361 c -3.4964,-4.38511 -5.67945,-9.23892 -6.44973,-13.91518 -0.76666,-4.74728 -0.0498,-9.30992 2.31084,-13.02038 a 16.023089,16.027834 0 0 1 3.56743,-3.95549 c 3.32958,-2.65592 7.13472,-4.05844 10.92222,-4.03006 3.65257,0.0284 7.2519,1.3919 10.36502,4.22889 a 15.263464,15.267986 0 0 1 2.76513,3.36961 c 2.53801,4.17918 3.08459,9.51587 1.97006,14.91293 a 32.841298,32.851026 0 0 1 -14.76647,20.92069 z m -1.065,-35.00275 a 8.1641781,8.1665965 0 1 1 -8.14284,8.16661 8.1641781,8.1665965 0 0 1 8.15357,-8.16661 z"
       id="i-ca"
       style="opacity:1;fill:#d9bd59;fill-opacity:0.611765;stroke:none;stroke-width:0.976086;stroke-opacity:0.812775" /><path
       class="cls-1"
       d="m 1354.1345,355.24763 a 0.9761518,0.97644093 0 0 1 -1.1075,0.0355 38.939582,38.951117 0 0 1 -9.577,-8.55361 c -3.4963,-4.38511 -5.6794,-9.23892 -6.4497,-13.91518 -0.7666,-4.74728 -0.05,-9.30991 2.3108,-13.02039 a 16.023089,16.027834 0 0 1 3.5674,-3.95547 c 3.3297,-2.65592 7.1347,-4.05846 10.9223,-4.03005 3.6525,0.0284 7.2519,1.39188 10.365,4.22888 a 15.263464,15.267986 0 0 1 2.7651,3.3696 c 2.5381,4.17918 3.0846,9.51588 1.9701,14.91293 a 32.841298,32.851026 0 0 1 -14.7665,20.92069 z m -1.0649,-35.00274 a 8.1641781,8.1665965 0 1 1 -8.1429,8.16661 8.1641781,8.1665965 0 0 1 8.1535,-8.16661 z"
       id="i-it"
       style="opacity:1;fill:#d9bd59;fill-opacity:0.611765;stroke:none;stroke-width:0.976086;stroke-opacity:0.812775" /></g><g
     id="dissemination"
     style="display:inline;stroke-width:0.976089"
     transform="matrix(1.0244845,0,0,1.0245094,-28.102331,0.31114479)"><path
       class="cls-1"
       d="m 1301.7174,337.04981 a 0.9761518,0.97644093 0 0 1 -1.1076,0.0355 38.939582,38.951117 0 0 1 -9.577,-8.55361 c -3.4963,-4.38513 -5.6793,-9.23892 -6.4497,-13.91519 -0.7666,-4.74727 -0.05,-9.30991 2.3109,-13.02038 a 16.023089,16.027834 0 0 1 3.5673,-3.95548 c 3.3297,-2.65594 7.1348,-4.05845 10.9223,-4.03006 3.6525,0.0284 7.252,1.3919 10.365,4.22888 a 15.263464,15.267986 0 0 1 2.7651,3.36961 c 2.5381,4.17918 3.0846,9.51588 1.9702,14.91294 a 32.841298,32.851026 0 0 1 -14.7665,20.92068 z m -1.065,-35.00275 a 8.1641781,8.1665965 0 1 1 -8.1428,8.16661 8.1641781,8.1665965 0 0 1 8.1536,-8.16661 z"
       id="d-fr"
       style="opacity:1;fill:#005b6a;fill-opacity:0.611765;stroke:none;stroke-width:0.976086;stroke-opacity:0.812775" /><path
       class="cls-1"
       d="m 867.61193,294.63131 a 0.9761518,0.97644093 0 0 1 -1.10748,0.0355 38.939582,38.951117 0 0 1 -9.57707,-8.55362 c -3.49641,-4.38511 -5.67943,-9.23891 -6.44974,-13.91518 -0.76659,-4.74728 -0.0498,-9.3099 2.31085,-13.02037 a 16.023089,16.027834 0 0 1 3.56741,-3.9555 c 3.32959,-2.65592 7.13473,-4.05844 10.92229,-4.03004 3.65255,0.0284 7.25186,1.39189 10.36499,4.22888 a 15.263464,15.267986 0 0 1 2.76517,3.36961 c 2.538,4.17918 3.08458,9.51587 1.97005,14.91293 a 32.841298,32.851026 0 0 1 -14.76647,20.92069 z m -1.06504,-35.00274 a 8.1641781,8.1665965 0 1 1 -8.14285,8.16661 8.1641781,8.1665965 0 0 1 8.15354,-8.16661 z"
       id="d-ca-mtl"
       style="opacity:1;fill:#005b6a;fill-opacity:0.611765;stroke:none;stroke-width:0.976086;stroke-opacity:0.812775" /><path
       class="cls-1"
       d="m 467.33131,395.30814 a 0.9761518,0.97644093 0 0 1 -1.10748,0.0355 38.939582,38.951117 0 0 1 -9.57705,-8.55361 c -3.49639,-4.38513 -5.67941,-9.23892 -6.44973,-13.91519 -0.76658,-4.74728 -0.0498,-9.30991 2.31085,-13.02038 a 16.023089,16.027834 0 0 1 3.56742,-3.95548 c 3.32958,-2.65593 7.13473,-4.05846 10.92225,-4.03006 3.65254,0.0284 7.25189,1.3919 10.36499,4.22889 a 15.263464,15.267986 0 0 1 2.76516,3.36961 c 2.53803,4.17918 3.08461,9.51586 1.97008,14.91293 a 32.841298,32.851026 0 0 1 -14.76649,20.92068 z m -1.06497,-35.00276 a 8.1641781,8.1665965 0 1 1 -8.14288,8.16661 8.1641781,8.1665965 0 0 1 8.15356,-8.16661 z"
       id="d-us-ca"
       style="opacity:1;fill:#005b6a;fill-opacity:0.611765;stroke:none;stroke-width:0.976086;stroke-opacity:0.812775" /><path
       class="cls-1"
       d="m 205.10028,402.81156 a 0.9761518,0.97644093 0 0 1 -1.10748,0.0355 38.939582,38.951117 0 0 1 -9.57705,-8.55362 c -3.49639,-4.3851 -5.67941,-9.23891 -6.44973,-13.91517 -0.76659,-4.74728 -0.0498,-9.30991 2.31084,-13.02039 a 16.023089,16.027834 0 0 1 3.56742,-3.95547 c 3.32958,-2.65593 7.13474,-4.05846 10.92226,-4.03005 3.65253,0.0284 7.25189,1.39188 10.36499,4.22887 a 15.263464,15.267986 0 0 1 2.76517,3.3696 c 2.53801,4.17919 3.08459,9.51589 1.97007,14.91294 a 32.841298,32.851026 0 0 1 -14.76649,20.92069 z m -1.06498,-35.00274 a 8.1641781,8.1665965 0 1 1 -8.14288,8.16661 8.1641781,8.1665965 0 0 1 8.15358,-8.16661 z"
       id="d-kr"
       style="opacity:1;fill:#005b6a;fill-opacity:0.611765;stroke:none;stroke-width:0.976086;stroke-opacity:0.812775" /><path
       class="cls-1"
       d="m 1338.3064,316.86703 a 0.9761518,0.97644093 0 0 1 -1.1076,0.0355 38.939582,38.951117 0 0 1 -9.577,-8.55361 c -3.4963,-4.38511 -5.6793,-9.23892 -6.4496,-13.91518 -0.7666,-4.74728 -0.05,-9.30991 2.3108,-13.02039 a 16.023089,16.027834 0 0 1 3.5673,-3.95547 c 3.3297,-2.65593 7.1348,-4.05846 10.9223,-4.03005 3.6525,0.0284 7.252,1.39188 10.3651,4.22889 a 15.263464,15.267986 0 0 1 2.765,3.36959 c 2.5381,4.17918 3.0847,9.51588 1.9703,14.91294 a 32.841298,32.851026 0 0 1 -14.7666,20.92068 z m -1.065,-35.00275 a 8.1641781,8.1665965 0 1 1 -8.1428,8.16661 8.1641781,8.1665965 0 0 1 8.1535,-8.16661 z"
       id="d-ch"
       style="opacity:1;fill:#005b6a;fill-opacity:0.611765;stroke:none;stroke-width:0.976086;stroke-opacity:0.812775" /><path
       class="cls-1"
       d="m 1274.3528,277.60541 a 0.9761518,0.97644093 0 0 1 -1.1074,0.0355 38.939582,38.951117 0 0 1 -9.577,-8.55362 c -3.4963,-4.38511 -5.6795,-9.23891 -6.4498,-13.91518 -0.7665,-4.74727 -0.05,-9.3099 2.3109,-13.02038 a 16.023089,16.027834 0 0 1 3.5674,-3.95548 c 3.3296,-2.65592 7.1347,-4.05845 10.9222,-4.03006 3.6526,0.0284 7.252,1.39189 10.365,4.2289 a 15.263464,15.267986 0 0 1 2.7652,3.36959 c 2.5381,4.17919 3.0846,9.51587 1.97,14.91293 a 32.841298,32.851026 0 0 1 -14.7665,20.92069 z m -1.0649,-35.00275 a 8.1641781,8.1665965 0 1 1 -8.1429,8.16661 8.1641781,8.1665965 0 0 1 8.1536,-8.16661 z"
       id="d-uk"
       style="opacity:1;fill:#005b6a;fill-opacity:0.611765;stroke:none;stroke-width:0.976086;stroke-opacity:0.812775" /><path
       class="cls-1"
       d="m 875.35844,291.74012 a 0.9761518,0.97644093 0 0 1 -1.10748,0.0355 38.939582,38.951117 0 0 1 -9.57702,-8.55362 c -3.49637,-4.38511 -5.67943,-9.23891 -6.44976,-13.91518 -0.76658,-4.74727 -0.0497,-9.3099 2.31083,-13.02038 a 16.023089,16.027834 0 0 1 3.56745,-3.95548 c 3.3296,-2.65592 7.13469,-4.05845 10.92224,-4.03005 3.65255,0.0284 7.25186,1.39188 10.36499,4.22888 a 15.263464,15.267986 0 0 1 2.76517,3.3696 c 2.53801,4.17919 3.0846,9.51588 1.97005,14.91293 A 32.841298,32.851026 0 0 1 875.35844,291.733 Z m -1.06493,-35.00273 a 8.1641781,8.1665965 0 1 1 -8.14286,8.1666 8.1641781,8.1665965 0 0 1 8.15355,-8.1666 z"
       id="d-ca-qc"
       style="opacity:1;fill:#005b6a;fill-opacity:0.611765;stroke:none;stroke-width:0.976086;stroke-opacity:0.812775" /><path
       class="cls-1"
       d="m 811.61176,359.57389 a 0.9761518,0.97644093 0 0 1 -1.10748,0.0355 38.939582,38.951117 0 0 1 -9.57704,-8.55362 c -3.4964,-4.38511 -5.67941,-9.23891 -6.44975,-13.91518 -0.76658,-4.74727 -0.0498,-9.3099 2.31086,-13.02038 a 16.023089,16.027834 0 0 1 3.56742,-3.95547 c 3.32958,-2.65593 7.13473,-4.05846 10.92225,-4.03006 3.65254,0.0284 7.2519,1.39188 10.365,4.22888 a 15.263464,15.267986 0 0 1 2.76516,3.3696 c 2.53802,4.17919 3.08459,9.51589 1.97008,14.91293 a 32.841298,32.851026 0 0 1 -14.7665,20.92069 z m -1.06497,-35.00274 a 8.1641781,8.1665965 0 1 1 -8.14288,8.16661 8.1641781,8.1665965 0 0 1 8.15355,-8.16661 z"
       id="d-us-ny"
       style="opacity:1;fill:#005b6a;fill-opacity:0.611765;stroke:none;stroke-width:0.976086;stroke-opacity:0.812775" /></g></svg>
