<svg width="1440" height="690" viewBox="0 0 1440 690" fill="none" xmlns="http://www.w3.org/2000/svg">
<g clip-path="url(#clip0_302_10628)">
<rect width="1440" height="690" fill="white"/>
<path d="M-97.5566 392.5C-98.4498 390.953 -98.4498 389.047 -97.5566 387.5L-50.4434 305.897C-49.5502 304.35 -47.8996 303.397 -46.1132 303.397H48.1133C49.8996 303.397 51.5502 304.35 52.4434 305.897L99.5566 387.5C100.45 389.047 100.45 390.953 99.5566 392.5L52.4434 474.103C51.5502 475.65 49.8996 476.603 48.1132 476.603H-46.1133C-47.8996 476.603 -49.5502 475.65 -50.4434 474.103L-97.5566 392.5Z" fill="#EEFFFF"/>
<path d="M76.4434 492.5C75.5502 490.953 75.5502 489.047 76.4434 487.5L123.557 405.897C124.45 404.35 126.1 403.397 127.887 403.397H222.113C223.9 403.397 225.55 404.35 226.443 405.897L273.557 487.5C274.45 489.047 274.45 490.953 273.557 492.5L226.443 574.103C225.55 575.65 223.9 576.603 222.113 576.603H127.887C126.1 576.603 124.45 575.65 123.557 574.103L76.4434 492.5Z" fill="#EEFFFF"/>
<path d="M-97.5566 592.5C-98.4498 590.953 -98.4498 589.047 -97.5566 587.5L-50.4434 505.897C-49.5502 504.35 -47.8996 503.397 -46.1132 503.397H48.1133C49.8996 503.397 51.5502 504.35 52.4434 505.897L99.5566 587.5C100.45 589.047 100.45 590.953 99.5566 592.5L52.4434 674.103C51.5502 675.65 49.8996 676.603 48.1132 676.603H-46.1133C-47.8996 676.603 -49.5502 675.65 -50.4434 674.103L-97.5566 592.5Z" fill="#EEFFFF"/>
<path d="M252.443 592.5C251.55 590.953 251.55 589.047 252.443 587.5L299.557 505.897C300.45 504.35 302.1 503.397 303.887 503.397H398.113C399.9 503.397 401.55 504.35 402.443 505.897L449.557 587.5C450.45 589.047 450.45 590.953 449.557 592.5L402.443 674.103C401.55 675.65 399.9 676.603 398.113 676.603H303.887C302.1 676.603 300.45 675.65 299.557 674.103L252.443 592.5Z" fill="#EEFFFF"/>
<path d="M77.4434 692.5C76.5502 690.953 76.5502 689.047 77.4434 687.5L124.557 605.897C125.45 604.35 127.1 603.397 128.887 603.397H223.113C224.9 603.397 226.55 604.35 227.443 605.897L274.557 687.5C275.45 689.047 275.45 690.953 274.557 692.5L227.443 774.103C226.55 775.65 224.9 776.603 223.113 776.603H128.887C127.1 776.603 125.45 775.65 124.557 774.103L77.4434 692.5Z" fill="#EEFFFF"/>
<path d="M427.443 692.5C426.55 690.953 426.55 689.047 427.443 687.5L474.557 605.897C475.45 604.35 477.1 603.397 478.887 603.397H573.113C574.9 603.397 576.55 604.35 577.443 605.897L624.557 687.5C625.45 689.047 625.45 690.953 624.557 692.5L577.443 774.103C576.55 775.65 574.9 776.603 573.113 776.603H478.887C477.1 776.603 475.45 775.65 474.557 774.103L427.443 692.5Z" fill="#EEFFFF"/>
</g>
<defs>
<clipPath id="clip0_302_10628">
<rect width="1440" height="690" fill="white"/>
</clipPath>
</defs>
</svg>
