<svg width="1440" height="250" viewBox="0 0 1440 250" fill="none" xmlns="http://www.w3.org/2000/svg">
<path fill-rule="evenodd" clip-rule="evenodd" d="M-14.8359 247.315C-15.4573 248.691 -14.2194 250 -12.709 250H-11.9103C-11.0781 250 -10.4076 249.333 -9.84737 248.718V248.718L148.04 75.3169C148.513 74.7966 149.184 74.5 149.888 74.5H1964.74C1966.12 74.5 1967.24 73.3807 1967.24 72V72C1967.24 70.6193 1966.12 69.5 1964.74 69.5H149.888C147.777 69.5 145.764 70.3896 144.343 71.9506L-13.5444 245.352C-14.0885 245.949 -14.519 246.613 -14.8359 247.315Z" fill="#D9BD59"/>
<g clip-path="url(#clip0_314_10440)">
<path d="M37.167 117.823L36.3507 117.606L36.1243 116.792L36.714 116.196L37.5301 116.414L37.7566 117.227L37.167 117.823Z" fill="black" stroke="black" stroke-width="2"/>
<path d="M34.5893 113.222C34.0835 112.722 33.8816 111.99 34.0591 111.301L36.2181 102.92C36.3979 102.223 36.9391 101.676 37.6349 101.488L45.9915 99.2381C46.6786 99.0531 47.4122 99.247 47.918 99.7474L54.1395 105.902C54.6454 106.402 54.8473 107.133 54.6698 107.822L52.5108 116.203C52.331 116.901 51.7898 117.448 51.094 117.635L42.7373 119.885C42.0503 120.07 41.3167 119.877 40.8108 119.376L34.5893 113.222Z" fill="#D9BD59" stroke="black" stroke-width="2"/>
<path d="M48.6743 98.9831C48.1684 98.4827 47.9665 97.7513 48.144 97.0623L50.3031 88.6815C50.4828 87.9838 51.0241 87.4366 51.7198 87.2493L60.0765 84.9992C60.7635 84.8142 61.4971 85.0081 62.003 85.5085L68.2245 91.6626C68.7303 92.163 68.9323 92.8945 68.7548 93.5835L66.5957 101.964C66.416 102.662 65.8748 103.209 65.179 103.396L56.8223 105.647C56.1352 105.832 55.4016 105.638 54.8958 105.137L48.6743 98.9831Z" fill="black" stroke="black" stroke-width="2"/>
<path d="M29.6845 94.0682C29.1787 93.5678 28.9767 92.8363 29.1542 92.1473L31.3133 83.7667C31.4931 83.0689 32.0343 82.5218 32.7301 82.3344L41.0867 80.0842C41.7738 79.8992 42.5074 80.0932 43.0132 80.5936L49.2348 86.7478C49.7406 87.2482 49.9426 87.9796 49.765 88.6686L47.6059 97.0492C47.4261 97.747 46.8849 98.2941 46.1892 98.4815L37.8326 100.732C37.1455 100.917 36.4119 100.723 35.9061 100.222L29.6845 94.0682Z" fill="white" stroke="black" stroke-width="2"/>
<path d="M53.9447 118.009C53.4388 117.508 53.2369 116.777 53.4144 116.088L55.5736 107.707C55.7533 107.01 56.2945 106.463 56.9903 106.275L65.3468 104.025C66.0339 103.84 66.7675 104.034 67.2734 104.534L73.495 110.689C74.0009 111.189 74.2028 111.92 74.0253 112.609L71.8662 120.99C71.6865 121.688 71.1453 122.235 70.4495 122.422L62.0928 124.672C61.4057 124.857 60.6721 124.664 60.1663 124.163L53.9447 118.009Z" fill="white" stroke="black" stroke-width="2"/>
<path fill-rule="evenodd" clip-rule="evenodd" d="M63.2925 73.5676L60.3671 84.9223L68.828 93.2916L80.1504 90.243L78.9396 89.0452L69.2499 91.6543L61.9999 84.4828L64.5033 74.7653L63.2925 73.5676Z" fill="black"/>
<path d="M42.2407 99.6331L54.1951 111.458" stroke="black" stroke-width="2"/>
<path d="M35.1353 106.366L47.5356 118.632" stroke="black" stroke-width="2"/>
<path d="M37.0703 101.34L53.2748 117.369" stroke="black" stroke-width="2"/>
<path d="M78.707 90.549C79.2873 91.123 80.2185 91.1225 80.787 90.5478C81.3554 89.9731 81.3458 89.0419 80.7655 88.4679C80.1853 87.8939 79.254 87.8945 78.6856 88.4692C78.1171 89.0438 78.1267 89.975 78.707 90.549Z" fill="black"/>
<path d="M63.0019 75.014C63.5822 75.588 64.5134 75.5875 65.0819 75.0128C65.6503 74.4382 65.6407 73.507 65.0605 72.933C64.4802 72.359 63.5489 72.3595 62.9805 72.9342C62.412 73.5089 62.4216 74.44 63.0019 75.014Z" fill="black"/>
</g>
<defs>
<clipPath id="clip0_314_10440">
<rect x="52.397" y="60.4063" width="57.9441" height="52.7935" rx="26.3968" transform="rotate(44.6882 52.397 60.4063)" fill="white"/>
</clipPath>
</defs>
</svg>
